<svg version="1.1" viewBox="0.0 0.0 960.0 720.0" fill="none" stroke="none" stroke-linecap="square" stroke-miterlimit="10" xmlns:xlink="http://www.w3.org/1999/xlink" xmlns="http://www.w3.org/2000/svg"><clipPath id="p.0"><path d="m0 0l960.0 0l0 720.0l-960.0 0l0 -720.0z" clip-rule="nonzero"/></clipPath><g clip-path="url(#p.0)"><path fill="#000000" fill-opacity="0.0" d="m0 0l960.0 0l0 720.0l-960.0 0z" fill-rule="evenodd"/><path fill="#cfe2f3" d="m85.32284 97.296585l371.2126 0l0 190.11024l-371.2126 0z" fill-rule="evenodd"/><path stroke="#000000" stroke-width="1.0" stroke-linejoin="round" stroke-linecap="butt" d="m85.32284 97.296585l371.2126 0l0 190.11024l-371.2126 0z" fill-rule="evenodd"/><path fill="#cfe2f3" d="m68.85302 46.3937l767.9055 0l0 673.6063l-767.9055 0z" fill-rule="evenodd"/><path stroke="#000000" stroke-width="1.0" stroke-linejoin="round" stroke-linecap="butt" d="m68.85302 46.3937l767.9055 0l0 673.6063l-767.9055 0z" fill-rule="evenodd"/><path fill="#000000" d="m79.774895 391.73688l0 -17.1875l2.28125 0l0 7.0625l8.921875 0l0 -7.0625l2.28125 0l0 17.1875l-2.28125 0l0 -8.09375l-8.921875 0l0 8.09375l-2.28125 0zm16.207031 -6.21875q0 -3.46875 1.921875 -5.125q1.609375 -1.390625 3.921875 -1.390625q2.5625 0 4.1875 1.6875q1.625 1.6875 1.625 4.640625q0 2.40625 -0.71875 3.78125q-0.71875 1.375 -2.09375 2.140625q-1.375 0.765625 -3.0 0.765625q-2.625 0 -4.234375 -1.671875q-1.609375 -1.6875 -1.609375 -4.828125zm2.171875 0q0 2.390625 1.03125 3.578125q1.046875 1.1875 2.640625 1.1875q1.5625 0 2.609375 -1.1875q1.046875 -1.203125 1.046875 -3.65625q0 -2.3125 -1.0625 -3.5q-1.046875 -1.1875 -2.59375 -1.1875q-1.59375 0 -2.640625 1.1875q-1.03125 1.1875 -1.03125 3.578125zm3.6875 -9.765625l-1.328125 1.984375l-2.40625 0l2.53125 -3.28125l2.25 0l2.640625 3.28125l-2.390625 0l-1.296875 -1.984375zm8.269531 20.75l0 -17.21875l1.921875 0l0 1.625q0.6875 -0.953125 1.53125 -1.421875q0.859375 -0.484375 2.078125 -0.484375q1.59375 0 2.8125 0.828125q1.21875 0.8125 1.84375 2.3125q0.625 1.5 0.625 3.28125q0 1.90625 -0.6875 3.4375q-0.6875 1.53125 -2.0 2.34375q-1.296875 0.8125 -2.734375 0.8125q-1.0625 0 -1.90625 -0.4375q-0.828125 -0.453125 -1.375 -1.140625l0 6.0625l-2.109375 0zm1.921875 -10.921875q0 2.40625 0.96875 3.5625q0.96875 1.140625 2.359375 1.140625q1.40625 0 2.40625 -1.1875q1.0 -1.1875 1.0 -3.6875q0 -2.375 -0.984375 -3.5625q-0.96875 -1.1875 -2.328125 -1.1875q-1.359375 0 -2.390625 1.265625q-1.03125 1.25 -1.03125 3.65625zm11.441406 -8.59375l0 -2.4375l2.109375 0l0 2.4375l-2.109375 0zm0 14.75l0 -12.453125l2.109375 0l0 12.453125l-2.109375 0zm9.925774 -1.890625l0.3125 1.859375q-0.890625 0.203125 -1.59375 0.203125q-1.15625 0 -1.796875 -0.359375q-0.625 -0.375 -0.890625 -0.96875q-0.25 -0.59375 -0.25 -2.484375l0 -7.171875l-1.5468674 0l0 -1.640625l1.5468674 0l0 -3.078125l2.09375 -1.265625l0 4.34375l2.125 0l0 1.640625l-2.125 0l0 7.28125q0 0.90625 0.109375 1.171875q0.125 0.25 0.375 0.40625q0.25 0.140625 0.71875 0.140625q0.34375 0 0.921875 -0.078125zm10.183594 0.359375q-1.171875 0.984375 -2.265625 1.40625q-1.078125 0.40625 -2.3125 0.40625q-2.046875 0 -3.15625 -1.0q-1.09375 -1.0 -1.09375 -2.5625q0 -0.921875 0.40625 -1.671875q0.421875 -0.75 1.09375 -1.203125q0.671875 -0.46875 1.515625 -0.703125q0.625 -0.15625 1.875 -0.3125q2.5625 -0.3125 3.765625 -0.734375q0.015625 -0.421875 0.015625 -0.546875q0 -1.28125 -0.609375 -1.8125q-0.796875 -0.71875 -2.390625 -0.71875q-1.5 0 -2.203125 0.53125q-0.703125 0.515625 -1.046875 1.84375l-2.0625 -0.28125q0.28125 -1.328125 0.921875 -2.140625q0.640625 -0.8125 1.859375 -1.25q1.21875 -0.453125 2.828125 -0.453125q1.59375 0 2.59375 0.375q1.0 0.375 1.46875 0.953125q0.46875 0.5625 0.65625 1.4375q0.09375 0.53125 0.09375 1.9375l0 2.8125q0 2.9375 0.140625 3.71875q0.140625 0.78125 0.53125 1.5l-2.203125 0q-0.328125 -0.65625 -0.421875 -1.53125zm-0.171875 -4.71875q-1.15625 0.46875 -3.453125 0.796875q-1.296875 0.1875 -1.84375 0.421875q-0.53125 0.234375 -0.828125 0.6875q-0.28125 0.453125 -0.28125 1.0q0 0.84375 0.625 1.40625q0.640625 0.5625 1.875 0.5625q1.21875 0 2.171875 -0.53125q0.953125 -0.53125 1.390625 -1.453125q0.34375 -0.71875 0.34375 -2.109375l0 -0.78125zm5.3476562 6.25l0 -17.1875l2.109375 0l0 17.1875l-2.109375 0z" fill-rule="nonzero"/><path fill="#cfe2f3" d="m172.14174 137.70079l148.18898 0l0 178.14174l-148.18898 0z" fill-rule="evenodd"/><path stroke="#000000" stroke-width="1.0" stroke-linejoin="round" stroke-linecap="butt" d="m172.14174 137.70079l148.18898 0l0 178.14174l-148.18898 0z" fill-rule="evenodd"/><path fill="#000000" d="m205.29677 215.29602l2.140625 -0.1875q0.15625 1.28125 0.703125 2.109375q0.5625 0.828125 1.734375 1.34375q1.171875 0.5 2.640625 0.5q1.296875 0 2.296875 -0.375q1.0 -0.390625 1.484375 -1.0625q0.484375 -0.6875 0.484375 -1.484375q0 -0.796875 -0.46875 -1.40625q-0.46875 -0.609375 -1.546875 -1.015625q-0.6875 -0.265625 -3.0625 -0.828125q-2.359375 -0.578125 -3.3125 -1.078125q-1.234375 -0.640625 -1.84375 -1.59375q-0.59375 -0.96875 -0.59375 -2.140625q0 -1.3125 0.734375 -2.4375q0.75 -1.125 2.15625 -1.703125q1.421875 -0.59375 3.15625 -0.59375q1.90625 0 3.359375 0.609375q1.46875 0.609375 2.25 1.8125q0.796875 1.1875 0.84375 2.703125l-2.171875 0.171875q-0.171875 -1.640625 -1.1875 -2.46875q-1.015625 -0.828125 -3.0 -0.828125q-2.0625 0 -3.015625 0.765625q-0.9375 0.75 -0.9375 1.8125q0 0.921875 0.671875 1.515625q0.65625 0.609375 3.421875 1.234375q2.78125 0.625 3.8125 1.09375q1.5 0.6875 2.203125 1.75q0.71875 1.0625 0.71875 2.4375q0 1.375 -0.78125 2.59375q-0.78125 1.203125 -2.25 1.890625q-1.46875 0.671875 -3.3125 0.671875q-2.328125 0 -3.90625 -0.671875q-1.578125 -0.6875 -2.484375 -2.046875q-0.890625 -1.375 -0.9375 -3.09375zm25.039062 1.5l2.171875 0.28125q-0.515625 1.90625 -1.90625 2.96875q-1.390625 1.046875 -3.5625 1.046875q-2.734375 0 -4.34375 -1.671875q-1.59375 -1.6875 -1.59375 -4.734375q0 -3.140625 1.609375 -4.875q1.625 -1.734375 4.203125 -1.734375q2.5 0 4.078125 1.703125q1.59375 1.703125 1.59375 4.78125q0 0.1875 -0.015625 0.5625l-9.28125 0q0.109375 2.046875 1.15625 3.140625q1.046875 1.09375 2.609375 1.09375q1.15625 0 1.96875 -0.609375q0.828125 -0.609375 1.3125 -1.953125zm-6.9375 -3.40625l6.953125 0q-0.140625 -1.5625 -0.796875 -2.359375q-1.0 -1.21875 -2.609375 -1.21875q-1.453125 0 -2.453125 0.984375q-0.984375 0.96875 -1.09375 2.59375zm11.738281 7.421875l0 -12.453125l1.890625 0l0 1.890625q0.734375 -1.328125 1.34375 -1.75q0.625 -0.421875 1.359375 -0.421875q1.0625 0 2.171875 0.6875l-0.734375 1.953125q-0.765625 -0.453125 -1.546875 -0.453125q-0.6875 0 -1.25 0.421875q-0.546875 0.40625 -0.78125 1.140625q-0.34375 1.125 -0.34375 2.46875l0 6.515625l-2.109375 0zm11.4765625 0l-4.734375 -12.453125l2.21875 0l2.671875 7.453125q0.4375 1.21875 0.796875 2.515625q0.28125 -0.984375 0.78125 -2.375l2.765625 -7.59375l2.171875 0l-4.703125 12.453125l-1.96875 0zm17.062515 -4.015625l2.171875 0.28125q-0.515625 1.90625 -1.90625 2.96875q-1.390625 1.046875 -3.5625 1.046875q-2.734375 0 -4.34375 -1.671875q-1.5937653 -1.6875 -1.5937653 -4.734375q0 -3.140625 1.6093903 -4.875q1.625 -1.734375 4.203125 -1.734375q2.5 0 4.078125 1.703125q1.59375 1.703125 1.59375 4.78125q0 0.1875 -0.015625 0.5625l-9.28125 0q0.109375 2.046875 1.15625 3.140625q1.046875 1.09375 2.609375 1.09375q1.15625 0 1.96875 -0.609375q0.828125 -0.609375 1.3125 -1.953125zm-6.9375 -3.40625l6.953125 0q-0.140625 -1.5625 -0.796875 -2.359375q-1.0 -1.21875 -2.609375 -1.21875q-1.453125 0 -2.453125 0.984375q-0.984375 0.96875 -1.09375 2.59375zm19.910156 7.421875l0 -1.828125q-1.453125 2.109375 -3.9375 2.109375q-1.109375 0 -2.0625 -0.421875q-0.953125 -0.421875 -1.421875 -1.0625q-0.453125 -0.640625 -0.640625 -1.5625q-0.140625 -0.625 -0.140625 -1.96875l0 -7.71875l2.109375 0l0 6.90625q0 1.65625 0.140625 2.234375q0.1875 0.828125 0.828125 1.3125q0.65625 0.46875 1.609375 0.46875q0.9375 0 1.765625 -0.484375q0.84375 -0.5 1.1875 -1.328125q0.34375 -0.84375 0.34375 -2.4375l0 -6.671875l2.109375 0l0 12.453125l-1.890625 0zm5.1757812 0l0 -12.453125l1.890625 0l0 1.890625q0.734375 -1.328125 1.34375 -1.75q0.625 -0.421875 1.359375 -0.421875q1.0625 0 2.171875 0.6875l-0.734375 1.953125q-0.765625 -0.453125 -1.546875 -0.453125q-0.6875 0 -1.25 0.421875q-0.546875 0.40625 -0.78125 1.140625q-0.34375 1.125 -0.34375 2.46875l0 6.515625l-2.109375 0z" fill-rule="nonzero"/><path fill="#000000" d="m202.287 246.0929l2.09375 -0.328125q0.171875 1.25 0.96875 1.921875q0.8125 0.671875 2.25 0.671875q1.453125 0 2.15625 -0.59375q0.703125 -0.59375 0.703125 -1.390625q0 -0.71875 -0.625 -1.125q-0.421875 -0.28125 -2.15625 -0.71875q-2.3125 -0.578125 -3.21875 -1.0q-0.890625 -0.4375 -1.359375 -1.1875q-0.453125 -0.765625 -0.453125 -1.671875q0 -0.828125 0.375 -1.53125q0.390625 -0.71875 1.046875 -1.1875q0.484375 -0.359375 1.328125 -0.609375q0.859375 -0.265625 1.828125 -0.265625q1.46875 0 2.578125 0.421875q1.109375 0.421875 1.625 1.15625q0.53125 0.71875 0.734375 1.921875l-2.0625 0.28125q-0.140625 -0.96875 -0.8125 -1.5q-0.671875 -0.546875 -1.90625 -0.546875q-1.453125 0 -2.078125 0.484375q-0.625 0.484375 -0.625 1.125q0 0.40625 0.265625 0.734375q0.25 0.34375 0.8125 0.5625q0.3125 0.125 1.859375 0.546875q2.234375 0.59375 3.109375 0.984375q0.890625 0.375 1.390625 1.109375q0.515625 0.71875 0.515625 1.796875q0 1.046875 -0.625 1.984375q-0.609375 0.9375 -1.765625 1.453125q-1.15625 0.5 -2.625 0.5q-2.421875 0 -3.703125 -1.0q-1.265625 -1.015625 -1.625 -3.0zm21.375 -0.296875l2.171875 0.28125q-0.515625 1.90625 -1.90625 2.96875q-1.390625 1.046875 -3.5625 1.046875q-2.734375 0 -4.34375 -1.671875q-1.59375 -1.6875 -1.59375 -4.734375q0 -3.140625 1.609375 -4.875q1.625 -1.734375 4.203125 -1.734375q2.5 0 4.078125 1.703125q1.59375 1.703125 1.59375 4.78125q0 0.1875 -0.015625 0.5625l-9.28125 0q0.109375 2.046875 1.15625 3.140625q1.046875 1.09375 2.609375 1.09375q1.15625 0 1.96875 -0.609375q0.828125 -0.609375 1.3125 -1.953125zm-6.9375 -3.40625l6.953125 0q-0.140625 -1.5625 -0.796875 -2.359375q-1.0 -1.21875 -2.609375 -1.21875q-1.453125 0 -2.453125 0.984375q-0.984375 0.96875 -1.09375 2.59375zm2.28125 -6.578125l1.546875 -3.28125l2.765625 0l-2.578125 3.28125l-1.734375 0zm17.597656 9.4375l2.078125 0.265625q-0.34375 2.15625 -1.75 3.375q-1.390625 1.203125 -3.4375 1.203125q-2.546875 0 -4.109375 -1.671875q-1.546875 -1.671875 -1.546875 -4.78125q0 -2.015625 0.671875 -3.53125q0.671875 -1.515625 2.03125 -2.265625q1.359375 -0.765625 2.96875 -0.765625q2.03125 0 3.3125 1.03125q1.296875 1.03125 1.65625 2.90625l-2.046875 0.328125q-0.296875 -1.265625 -1.046875 -1.890625q-0.734375 -0.640625 -1.796875 -0.640625q-1.59375 0 -2.59375 1.15625q-0.984375 1.140625 -0.984375 3.609375q0 2.5 0.953125 3.640625q0.96875 1.140625 2.515625 1.140625q1.234375 0 2.0625 -0.765625q0.84375 -0.765625 1.0625 -2.34375zm12.03125 4.5625l0 -1.828125q-1.453125 2.109375 -3.9375 2.109375q-1.109375 0 -2.0625 -0.421875q-0.953125 -0.421875 -1.421875 -1.0625q-0.453125 -0.640625 -0.640625 -1.5625q-0.140625 -0.625 -0.140625 -1.96875l0 -7.71875l2.109375 0l0 6.90625q0 1.65625 0.140625 2.234375q0.1875 0.828125 0.828125 1.3125q0.65625 0.46875 1.609375 0.46875q0.9375 0 1.765625 -0.484375q0.84375 -0.5 1.1875 -1.328125q0.34375 -0.84375 0.34375 -2.4375l0 -6.671875l2.109375 0l0 12.453125l-1.890625 0zm5.1757812 0l0 -12.453125l1.890625 0l0 1.890625q0.73439026 -1.328125 1.3437653 -1.75q0.625 -0.421875 1.359375 -0.421875q1.0625 0 2.171875 0.6875l-0.734375 1.953125q-0.765625 -0.453125 -1.546875 -0.453125q-0.6875 0 -1.25 0.421875q-0.546875 0.40625 -0.78125 1.140625q-0.34376526 1.125 -0.34376526 2.46875l0 6.515625l-2.109375 0zm8.023453 -14.75l0 -2.4375l2.109375 0l0 2.4375l-2.109375 0zm0 14.75l0 -12.453125l2.109375 0l0 12.453125l-2.109375 0zm4.4726562 -3.71875l2.09375 -0.328125q0.171875 1.25 0.96875 1.921875q0.8125 0.671875 2.25 0.671875q1.453125 0 2.15625 -0.59375q0.703125 -0.59375 0.703125 -1.390625q0 -0.71875 -0.625 -1.125q-0.421875 -0.28125 -2.15625 -0.71875q-2.3125 -0.578125 -3.21875 -1.0q-0.890625 -0.4375 -1.359375 -1.1875q-0.453125 -0.765625 -0.453125 -1.671875q0 -0.828125 0.375 -1.53125q0.390625 -0.71875 1.046875 -1.1875q0.484375 -0.359375 1.328125 -0.609375q0.859375 -0.265625 1.828125 -0.265625q1.46875 0 2.578125 0.421875q1.109375 0.421875 1.625 1.15625q0.53125 0.71875 0.734375 1.921875l-2.0625 0.28125q-0.140625 -0.96875 -0.8125 -1.5q-0.671875 -0.546875 -1.90625 -0.546875q-1.453125 0 -2.078125 0.484375q-0.625 0.484375 -0.625 1.125q0 0.40625 0.265625 0.734375q0.25 0.34375 0.8125 0.5625q0.3125 0.125 1.859375 0.546875q2.234375 0.59375 3.109375 0.984375q0.890625 0.375 1.390625 1.109375q0.515625 0.71875 0.515625 1.796875q0 1.046875 -0.625 1.984375q-0.609375 0.9375 -1.765625 1.453125q-1.15625 0.5 -2.625 0.5q-2.421875 0 -3.703125 -1.0q-1.265625 -1.015625 -1.625 -3.0zm21.375 -0.296875l2.171875 0.28125q-0.515625 1.90625 -1.90625 2.96875q-1.390625 1.046875 -3.5625 1.046875q-2.734375 0 -4.34375 -1.671875q-1.59375 -1.6875 -1.59375 -4.734375q0 -3.140625 1.609375 -4.875q1.625 -1.734375 4.203125 -1.734375q2.5 0 4.078125 1.703125q1.59375 1.703125 1.59375 4.78125q0 0.1875 -0.015625 0.5625l-9.28125 0q0.109375 2.046875 1.15625 3.140625q1.046875 1.09375 2.609375 1.09375q1.15625 0 1.96875 -0.609375q0.828125 -0.609375 1.3125 -1.953125zm-6.9375 -3.40625l6.953125 0q-0.140625 -1.5625 -0.796875 -2.359375q-1.0 -1.21875 -2.609375 -1.21875q-1.453125 0 -2.453125 0.984375q-0.984375 0.96875 -1.09375 2.59375zm2.28125 -6.578125l1.546875 -3.28125l2.765625 0l-2.578125 3.28125l-1.734375 0z" fill-rule="nonzero"/><path fill="#cfe2f3" d="m597.2546 137.70079l148.18896 0l0 178.14174l-148.18896 0z" fill-rule="evenodd"/><path stroke="#000000" stroke-width="1.0" stroke-linejoin="round" stroke-linecap="butt" d="m597.2546 137.70079l148.18896 0l0 178.14174l-148.18896 0z" fill-rule="evenodd"/><path fill="#000000" d="m615.18304 235.31166l0 -17.1875l6.46875 0q1.71875 0 2.625 0.171875q1.265625 0.203125 2.109375 0.796875q0.859375 0.59375 1.375 1.671875q0.53125 1.0625 0.53125 2.328125q0 2.203125 -1.40625 3.71875q-1.390625 1.515625 -5.03125 1.515625l-4.40625 0l0 6.984375l-2.265625 0zm2.265625 -9.015625l4.4375 0q2.203125 0 3.125 -0.8125q0.9375 -0.828125 0.9375 -2.3125q0 -1.078125 -0.546875 -1.84375q-0.546875 -0.765625 -1.4375 -1.015625q-0.578125 -0.15625 -2.125 -0.15625l-4.390625 0l0 6.140625zm13.4140625 9.015625l0 -17.1875l2.109375 0l0 17.1875l-2.109375 0zm13.503906 -1.53125q-1.171875 0.984375 -2.265625 1.40625q-1.078125 0.40625 -2.3125 0.40625q-2.046875 0 -3.15625 -1.0q-1.09375 -1.0 -1.09375 -2.5625q0 -0.921875 0.40625 -1.671875q0.421875 -0.75 1.09375 -1.203125q0.671875 -0.46875 1.515625 -0.703125q0.625 -0.15625 1.875 -0.3125q2.5625 -0.3125 3.765625 -0.734375q0.015625 -0.421875 0.015625 -0.546875q0 -1.28125 -0.609375 -1.8125q-0.796875 -0.71875 -2.390625 -0.71875q-1.5 0 -2.203125 0.53125q-0.703125 0.515625 -1.046875 1.84375l-2.0625 -0.28125q0.28125 -1.328125 0.921875 -2.140625q0.640625 -0.8125 1.859375 -1.25q1.21875 -0.453125 2.828125 -0.453125q1.59375 0 2.59375 0.375q1.0 0.375 1.46875 0.953125q0.46875 0.5625 0.65625 1.4375q0.09375 0.53125 0.09375 1.9375l0 2.8125q0 2.9375 0.140625 3.71875q0.140625 0.78125 0.53125 1.5l-2.203125 0q-0.328125 -0.65625 -0.421875 -1.53125zm-0.171875 -4.71875q-1.15625 0.46875 -3.453125 0.796875q-1.296875 0.1875 -1.84375 0.421875q-0.53125 0.234375 -0.828125 0.6875q-0.28125 0.453125 -0.28125 1.0q0 0.84375 0.625 1.40625q0.640625 0.5625 1.875 0.5625q1.21875 0 2.171875 -0.53125q0.953125 -0.53125 1.390625 -1.453125q0.34375 -0.71875 0.34375 -2.109375l0 -0.78125zm10.003906 4.359375l0.3125 1.859375q-0.890625 0.203125 -1.59375 0.203125q-1.15625 0 -1.796875 -0.359375q-0.625 -0.375 -0.890625 -0.96875q-0.25 -0.59375 -0.25 -2.484375l0 -7.171875l-1.546875 0l0 -1.640625l1.546875 0l0 -3.078125l2.09375 -1.265625l0 4.34375l2.125 0l0 1.640625l-2.125 0l0 7.28125q0 0.90625 0.109375 1.171875q0.125 0.25 0.375 0.40625q0.25 0.140625 0.71875 0.140625q0.34375 0 0.921875 -0.078125zm10.589844 -2.125l2.171875 0.28125q-0.515625 1.90625 -1.90625 2.96875q-1.390625 1.046875 -3.5625 1.046875q-2.734375 0 -4.34375 -1.671875q-1.59375 -1.6875 -1.59375 -4.734375q0 -3.140625 1.609375 -4.875q1.625 -1.734375 4.203125 -1.734375q2.5 0 4.078125 1.703125q1.59375 1.703125 1.59375 4.78125q0 0.1875 -0.015625 0.5625l-9.28125 0q0.109375 2.046875 1.15625 3.140625q1.046875 1.09375 2.609375 1.09375q1.15625 0 1.96875 -0.609375q0.828125 -0.609375 1.3125 -1.953125zm-6.9375 -3.40625l6.953125 0q-0.140625 -1.5625 -0.796875 -2.359375q-1.0 -1.21875 -2.609375 -1.21875q-1.453125 0 -2.453125 0.984375q-0.984375 0.96875 -1.09375 2.59375zm12.269531 7.421875l0 -10.8125l-1.875 0l0 -1.640625l1.875 0l0 -1.3125q0 -1.265625 0.21875 -1.875q0.296875 -0.8125 1.0625 -1.3125q0.78125 -0.515625 2.15625 -0.515625q0.890625 0 1.96875 0.203125l-0.3125 1.84375q-0.65625 -0.125 -1.25 -0.125q-0.953125 0 -1.359375 0.421875q-0.390625 0.40625 -0.390625 1.53125l0 1.140625l2.421875 0l0 1.640625l-2.421875 0l0 10.8125l-2.09375 0zm5.3710938 -6.21875q0 -3.46875 1.921875 -5.125q1.609375 -1.390625 3.921875 -1.390625q2.5625 0 4.1875 1.6875q1.625 1.6875 1.625 4.640625q0 2.40625 -0.71875 3.78125q-0.71875 1.375 -2.09375 2.140625q-1.375 0.765625 -3.0 0.765625q-2.625 0 -4.234375 -1.671875q-1.609375 -1.6875 -1.609375 -4.828125zm2.171875 0q0 2.390625 1.03125 3.578125q1.046875 1.1875 2.640625 1.1875q1.5625 0 2.609375 -1.1875q1.046875 -1.203125 1.046875 -3.65625q0 -2.3125 -1.0625 -3.5q-1.046875 -1.1875 -2.59375 -1.1875q-1.59375 0 -2.640625 1.1875q-1.03125 1.1875 -1.03125 3.578125zm11.941406 6.21875l0 -12.453125l1.890625 0l0 1.890625q0.734375 -1.328125 1.34375 -1.75q0.625 -0.421875 1.359375 -0.421875q1.0625 0 2.171875 0.6875l-0.734375 1.953125q-0.765625 -0.453125 -1.546875 -0.453125q-0.6875 0 -1.25 0.421875q-0.546875 0.40625 -0.78125 1.140625q-0.34375 1.125 -0.34375 2.46875l0 6.515625l-2.109375 0zm8.0078125 0l0 -12.453125l1.890625 0l0 1.75q0.59375 -0.90625 1.5625 -1.46875q0.96875 -0.5625 2.21875 -0.5625q1.375 0 2.25 0.578125q0.890625 0.578125 1.265625 1.609375q1.46875 -2.1875 3.84375 -2.1875q1.84375 0 2.84375 1.03125q1.0 1.03125 1.0 3.15625l0 8.546875l-2.109375 0l0 -7.84375q0 -1.265625 -0.203125 -1.8125q-0.203125 -0.5625 -0.75 -0.90625q-0.53125 -0.34375 -1.25 -0.34375q-1.3125 0 -2.1875 0.875q-0.859375 0.875 -0.859375 2.796875l0 7.234375l-2.109375 0l0 -8.09375q0 -1.40625 -0.515625 -2.109375q-0.515625 -0.703125 -1.6875 -0.703125q-0.890625 0 -1.65625 0.46875q-0.75 0.46875 -1.09375 1.375q-0.34375 0.90625 -0.34375 2.609375l0 6.453125l-2.109375 0zm28.523438 -4.015625l2.171875 0.28125q-0.515625 1.90625 -1.90625 2.96875q-1.390625 1.046875 -3.5625 1.046875q-2.734375 0 -4.34375 -1.671875q-1.59375 -1.6875 -1.59375 -4.734375q0 -3.140625 1.609375 -4.875q1.625 -1.734375 4.203125 -1.734375q2.5 0 4.078125 1.703125q1.59375 1.703125 1.59375 4.78125q0 0.1875 -0.015625 0.5625l-9.28125 0q0.109375 2.046875 1.15625 3.140625q1.046875 1.09375 2.609375 1.09375q1.15625 0 1.96875 -0.609375q0.828125 -0.609375 1.3125 -1.953125zm-6.9375 -3.40625l6.953125 0q-0.140625 -1.5625 -0.796875 -2.359375q-1.0 -1.21875 -2.609375 -1.21875q-1.453125 0 -2.453125 0.984375q-0.984375 0.96875 -1.09375 2.59375z" fill-rule="nonzero"/><path fill="#cfe2f3" d="m172.14174 386.1942l573.2913 0l0 235.02362l-573.2913 0z" fill-rule="evenodd"/><path stroke="#000000" stroke-width="1.0" stroke-linejoin="round" stroke-linecap="butt" d="m172.14174 386.1942l573.2913 0l0 235.02362l-573.2913 0z" fill-rule="evenodd"/><path fill="#000000" d="m347.81277 512.24603l0 -17.1875l2.265625 0l0 15.15625l8.46875 0l0 2.03125l-10.734375 0zm21.691406 -4.015625l2.171875 0.28125q-0.515625 1.90625 -1.90625 2.96875q-1.390625 1.046875 -3.5625 1.046875q-2.734375 0 -4.34375 -1.671875q-1.59375 -1.6875 -1.59375 -4.734375q0 -3.140625 1.609375 -4.875q1.625 -1.734375 4.203125 -1.734375q2.5 0 4.078125 1.703125q1.59375 1.703125 1.59375 4.78125q0 0.1875 -0.015625 0.5625l-9.28125 0q0.109375 2.046875 1.15625 3.140625q1.046875 1.09375 2.609375 1.09375q1.15625 0 1.96875 -0.609375q0.828125 -0.609375 1.3125 -1.953125zm-6.9375 -3.40625l6.953125 0q-0.140625 -1.5625 -0.796875 -2.359375q-1.0 -1.21875 -2.609375 -1.21875q-1.453125 0 -2.453125 0.984375q-0.984375 0.96875 -1.09375 2.59375zm10.910156 3.703125l2.09375 -0.328125q0.171875 1.25 0.96875 1.921875q0.8125 0.671875 2.25 0.671875q1.453125 0 2.15625 -0.59375q0.703125 -0.59375 0.703125 -1.390625q0 -0.71875 -0.625 -1.125q-0.421875 -0.28125 -2.15625 -0.71875q-2.3125 -0.578125 -3.21875 -1.0q-0.890625 -0.4375 -1.359375 -1.1875q-0.453125 -0.765625 -0.453125 -1.671875q0 -0.828125 0.375 -1.53125q0.390625 -0.71875 1.046875 -1.1875q0.484375 -0.359375 1.328125 -0.609375q0.859375 -0.265625 1.828125 -0.265625q1.46875 0 2.578125 0.421875q1.109375 0.421875 1.625 1.15625q0.53125 0.71875 0.734375 1.921875l-2.0625 0.28125q-0.140625 -0.96875 -0.8125 -1.5q-0.671875 -0.546875 -1.90625 -0.546875q-1.453125 0 -2.078125 0.484375q-0.625 0.484375 -0.625 1.125q0 0.40625 0.265625 0.734375q0.25 0.34375 0.8125 0.5625q0.3125 0.125 1.859375 0.546875q2.234375 0.59375 3.109375 0.984375q0.890625 0.375 1.390625 1.109375q0.515625 0.71875 0.515625 1.796875q0 1.046875 -0.625 1.984375q-0.609375 0.9375 -1.765625 1.453125q-1.15625 0.5 -2.625 0.5q-2.421875 0 -3.703125 -1.0q-1.265625 -1.015625 -1.625 -3.0zm18.730469 -2.5q0 -3.46875 1.921875 -5.125q1.609375 -1.390625 3.921875 -1.390625q2.5625 0 4.1875 1.6875q1.625 1.6875 1.625 4.640625q0 2.40625 -0.71875 3.78125q-0.71875 1.375 -2.09375 2.140625q-1.375 0.765625 -3.0 0.765625q-2.625 0 -4.234375 -1.671875q-1.609375 -1.6875 -1.609375 -4.828125zm2.171875 0q0 2.390625 1.03125 3.578125q1.046875 1.1875 2.640625 1.1875q1.5625 0 2.609375 -1.1875q1.046875 -1.203125 1.046875 -3.65625q0 -2.3125 -1.0625 -3.5q-1.046875 -1.1875 -2.59375 -1.1875q-1.59375 0 -2.640625 1.1875q-1.03125 1.1875 -1.03125 3.578125zm13.910156 6.21875l-1.953125 0l0 -17.1875l2.109375 0l0 6.140625q1.328125 -1.6875 3.40625 -1.6875q1.140625 0 2.171875 0.46875q1.03125 0.46875 1.6875 1.3125q0.65625 0.828125 1.03125 2.015625q0.375 1.171875 0.375 2.53125q0 3.1875 -1.578125 4.9375q-1.578125 1.75 -3.796875 1.75q-2.203125 0 -3.453125 -1.84375l0 1.5625zm-0.03125 -6.3125q0 2.234375 0.609375 3.234375q1.0 1.625 2.703125 1.625q1.375 0 2.375 -1.203125q1.015625 -1.203125 1.015625 -3.578125q0 -2.4375 -0.96875 -3.59375q-0.953125 -1.171875 -2.328125 -1.171875q-1.390625 0 -2.40625 1.203125q-1.0 1.203125 -1.0 3.484375zm11.425781 -8.421875l0 -2.453125l2.109375 0l0 2.453125l-2.109375 0zm-2.6875 19.5625l0.40625 -1.796875q0.625 0.171875 1.0 0.171875q0.640625 0 0.953125 -0.4375q0.328125 -0.421875 0.328125 -2.125l0 -13.09375l2.109375 0l0 13.140625q0 2.296875 -0.609375 3.1875q-0.75 1.171875 -2.53125 1.171875q-0.859375 0 -1.65625 -0.21875zm16.550781 -8.84375l2.171875 0.28125q-0.515625 1.90625 -1.90625 2.96875q-1.390625 1.046875 -3.5625 1.046875q-2.734375 0 -4.34375 -1.671875q-1.59375 -1.6875 -1.59375 -4.734375q0 -3.140625 1.609375 -4.875q1.625 -1.734375 4.203125 -1.734375q2.5 0 4.078125 1.703125q1.59375 1.703125 1.59375 4.78125q0 0.1875 -0.015625 0.5625l-9.28125 0q0.109375 2.046875 1.15625 3.140625q1.046875 1.09375 2.609375 1.09375q1.15625 0 1.96875 -0.609375q0.828125 -0.609375 1.3125 -1.953125zm-6.9375 -3.40625l6.953125 0q-0.140625 -1.5625 -0.796875 -2.359375q-1.0 -1.21875 -2.609375 -1.21875q-1.453125 0 -2.453125 0.984375q-0.984375 0.96875 -1.09375 2.59375zm16.363281 5.53125l0.3125 1.859375q-0.890625 0.203125 -1.59375 0.203125q-1.15625 0 -1.796875 -0.359375q-0.625 -0.375 -0.890625 -0.96875q-0.25 -0.59375 -0.25 -2.484375l0 -7.171875l-1.546875 0l0 -1.640625l1.546875 0l0 -3.078125l2.09375 -1.265625l0 4.34375l2.125 0l0 1.640625l-2.125 0l0 7.28125q0 0.90625 0.109375 1.171875q0.125 0.25 0.375 0.40625q0.25 0.140625 0.71875 0.140625q0.34375 0 0.921875 -0.078125zm1.2148438 -1.828125l2.09375 -0.328125q0.171875 1.25 0.96875 1.921875q0.8125 0.671875 2.25 0.671875q1.453125 0 2.15625 -0.59375q0.703125 -0.59375 0.703125 -1.390625q0 -0.71875 -0.625 -1.125q-0.421875 -0.28125 -2.15625 -0.71875q-2.3125 -0.578125 -3.21875 -1.0q-0.890625 -0.4375 -1.359375 -1.1875q-0.453125 -0.765625 -0.453125 -1.671875q0 -0.828125 0.375 -1.53125q0.390625 -0.71875 1.046875 -1.1875q0.484375 -0.359375 1.328125 -0.609375q0.859375 -0.265625 1.828125 -0.265625q1.46875 0 2.578125 0.421875q1.109375 0.421875 1.625 1.15625q0.53125 0.71875 0.734375 1.921875l-2.0625 0.28125q-0.140625 -0.96875 -0.8125 -1.5q-0.671875 -0.546875 -1.90625 -0.546875q-1.453125 0 -2.078125 0.484375q-0.625 0.484375 -0.625 1.125q0 0.40625 0.265625 0.734375q0.25 0.34375 0.8125 0.5625q0.3125 0.125 1.859375 0.546875q2.234375 0.59375 3.109375 0.984375q0.890625 0.375 1.390625 1.109375q0.515625 0.71875 0.515625 1.796875q0 1.046875 -0.625 1.984375q-0.609375 0.9375 -1.765625 1.453125q-1.15625 0.5 -2.625 0.5q-2.421875 0 -3.703125 -1.0q-1.265625 -1.015625 -1.625 -3.0zm27.636719 -0.84375l2.078125 0.265625q-0.34375 2.15625 -1.75 3.375q-1.390625 1.203125 -3.4375 1.203125q-2.546875 0 -4.109375 -1.671875q-1.546875 -1.671875 -1.546875 -4.78125q0 -2.015625 0.671875 -3.53125q0.671875 -1.515625 2.03125 -2.265625q1.359375 -0.765625 2.96875 -0.765625q2.03125 0 3.3125 1.03125q1.296875 1.03125 1.65625 2.90625l-2.046875 0.328125q-0.296875 -1.265625 -1.046875 -1.890625q-0.734375 -0.640625 -1.796875 -0.640625q-1.59375 0 -2.59375 1.15625q-0.984375 1.140625 -0.984375 3.609375q0 2.5 0.953125 3.640625q0.96875 1.140625 2.515625 1.140625q1.234375 0 2.0625 -0.765625q0.84375 -0.765625 1.0625 -2.34375zm3.09375 -1.65625q0 -3.46875 1.921875 -5.125q1.609375 -1.390625 3.921875 -1.390625q2.5625 0 4.1875 1.6875q1.625 1.6875 1.625 4.640625q0 2.40625 -0.71875 3.78125q-0.71875 1.375 -2.09375 2.140625q-1.375 0.765625 -3.0 0.765625q-2.625 0 -4.234375 -1.671875q-1.609375 -1.6875 -1.609375 -4.828125zm2.171875 0q0 2.390625 1.03125 3.578125q1.046875 1.1875 2.640625 1.1875q1.5625 0 2.609375 -1.1875q1.046875 -1.203125 1.046875 -3.65625q0 -2.3125 -1.0625 -3.5q-1.046875 -1.1875 -2.59375 -1.1875q-1.59375 0 -2.640625 1.1875q-1.03125 1.1875 -1.03125 3.578125zm11.957031 6.21875l0 -12.453125l1.90625 0l0 1.78125q1.375 -2.0625 3.953125 -2.0625q1.125 0 2.0625 0.40625q0.953125 0.40625 1.421875 1.0625q0.46875 0.65625 0.65625 1.5625q0.125 0.578125 0.125 2.046875l0 7.65625l-2.109375 0l0 -7.578125q0 -1.28125 -0.25 -1.921875q-0.25 -0.640625 -0.875 -1.015625q-0.625 -0.390625 -1.46875 -0.390625q-1.34375 0 -2.328125 0.859375q-0.984375 0.859375 -0.984375 3.25l0 6.796875l-2.109375 0zm13.347656 0l0 -12.453125l1.90625 0l0 1.78125q1.375 -2.0625 3.953125 -2.0625q1.125 0 2.0625 0.40625q0.953125 0.40625 1.421875 1.0625q0.46878052 0.65625 0.6562805 1.5625q0.125 0.578125 0.125 2.046875l0 7.65625l-2.1094055 0l0 -7.578125q0 -1.28125 -0.25 -1.921875q-0.25 -0.640625 -0.875 -1.015625q-0.625 -0.390625 -1.46875 -0.390625q-1.34375 0 -2.328125 0.859375q-0.984375 0.859375 -0.984375 3.25l0 6.796875l-2.109375 0zm21.878937 -4.015625l2.171875 0.28125q-0.515625 1.90625 -1.90625 2.96875q-1.390625 1.046875 -3.5625 1.046875q-2.734375 0 -4.34375 -1.671875q-1.59375 -1.6875 -1.59375 -4.734375q0 -3.140625 1.609375 -4.875q1.625 -1.734375 4.203125 -1.734375q2.5 0 4.078125 1.703125q1.59375 1.703125 1.59375 4.78125q0 0.1875 -0.015625 0.5625l-9.28125 0q0.109375 2.046875 1.15625 3.140625q1.046875 1.09375 2.609375 1.09375q1.15625 0 1.96875 -0.609375q0.828125 -0.609375 1.3125 -1.953125zm-6.9375 -3.40625l6.953125 0q-0.140625 -1.5625 -0.796875 -2.359375q-1.0 -1.21875 -2.609375 -1.21875q-1.453125 0 -2.453125 0.984375q-0.984375 0.96875 -1.09375 2.59375zm19.878906 2.859375l2.078125 0.265625q-0.34375 2.15625 -1.75 3.375q-1.390625 1.203125 -3.4375 1.203125q-2.546875 0 -4.109375 -1.671875q-1.546875 -1.671875 -1.546875 -4.78125q0 -2.015625 0.671875 -3.53125q0.671875 -1.515625 2.03125 -2.265625q1.359375 -0.765625 2.96875 -0.765625q2.03125 0 3.3125 1.03125q1.296875 1.03125 1.65625 2.90625l-2.046875 0.328125q-0.296875 -1.265625 -1.046875 -1.890625q-0.734375 -0.640625 -1.796875 -0.640625q-1.59375 0 -2.59375 1.15625q-0.984375 1.140625 -0.984375 3.609375q0 2.5 0.953125 3.640625q0.96875 1.140625 2.515625 1.140625q1.234375 0 2.0625 -0.765625q0.84375 -0.765625 1.0625 -2.34375zm8.484375 2.671875l0.3125 1.859375q-0.890625 0.203125 -1.59375 0.203125q-1.15625 0 -1.796875 -0.359375q-0.625 -0.375 -0.890625 -0.96875q-0.25 -0.59375 -0.25 -2.484375l0 -7.171875l-1.546875 0l0 -1.640625l1.546875 0l0 -3.078125l2.09375 -1.265625l0 4.34375l2.125 0l0 1.640625l-2.125 0l0 7.28125q0 0.90625 0.109375 1.171875q0.125 0.25 0.375 0.40625q0.25 0.140625 0.71875 0.140625q0.34375 0 0.921875 -0.078125zm10.589844 -2.125l2.171875 0.28125q-0.515625 1.90625 -1.90625 2.96875q-1.390625 1.046875 -3.5625 1.046875q-2.734375 0 -4.34375 -1.671875q-1.59375 -1.6875 -1.59375 -4.734375q0 -3.140625 1.609375 -4.875q1.625 -1.734375 4.203125 -1.734375q2.5 0 4.078125 1.703125q1.59375 1.703125 1.59375 4.78125q0 0.1875 -0.015625 0.5625l-9.28125 0q0.109375 2.046875 1.15625 3.140625q1.046875 1.09375 2.609375 1.09375q1.15625 0 1.96875 -0.609375q0.828125 -0.609375 1.3125 -1.953125zm-6.9375 -3.40625l6.953125 0q-0.140625 -1.5625 -0.796875 -2.359375q-1.0 -1.21875 -2.609375 -1.21875q-1.453125 0 -2.453125 0.984375q-0.984375 0.96875 -1.09375 2.59375zm2.28125 -6.578125l1.546875 -3.28125l2.765625 0l-2.578125 3.28125l-1.734375 0zm8.628906 10.28125l2.09375 -0.328125q0.171875 1.25 0.96875 1.921875q0.8125 0.671875 2.25 0.671875q1.453125 0 2.15625 -0.59375q0.703125 -0.59375 0.703125 -1.390625q0 -0.71875 -0.625 -1.125q-0.421875 -0.28125 -2.15625 -0.71875q-2.3125 -0.578125 -3.21875 -1.0q-0.890625 -0.4375 -1.359375 -1.1875q-0.453125 -0.765625 -0.453125 -1.671875q0 -0.828125 0.375 -1.53125q0.390625 -0.71875 1.046875 -1.1875q0.484375 -0.359375 1.328125 -0.609375q0.859375 -0.265625 1.828125 -0.265625q1.46875 0 2.578125 0.421875q1.109375 0.421875 1.625 1.15625q0.53125 0.71875 0.734375 1.921875l-2.0625 0.28125q-0.140625 -0.96875 -0.8125 -1.5q-0.671875 -0.546875 -1.90625 -0.546875q-1.453125 0 -2.078125 0.484375q-0.625 0.484375 -0.625 1.125q0 0.40625 0.265625 0.734375q0.25 0.34375 0.8125 0.5625q0.3125 0.125 1.859375 0.546875q2.234375 0.59375 3.109375 0.984375q0.890625 0.375 1.390625 1.109375q0.515625 0.71875 0.515625 1.796875q0 1.046875 -0.625 1.984375q-0.609375 0.9375 -1.765625 1.453125q-1.15625 0.5 -2.625 0.5q-2.421875 0 -3.703125 -1.0q-1.265625 -1.015625 -1.625 -3.0z" fill-rule="nonzero"/><path fill="#cfe2f3" d="m363.74277 137.70079l205.07089 0l0 178.14174l-205.07089 0z" fill-rule="evenodd"/><path stroke="#000000" stroke-width="1.0" stroke-linejoin="round" stroke-linecap="butt" d="m363.74277 137.70079l205.07089 0l0 178.14174l-205.07089 0z" fill-rule="evenodd"/><path fill="#000000" d="m413.78293 221.53165l0 -16.21875l6.09375 0q1.859375 0 2.96875 0.5q1.125 0.484375 1.765625 1.515625q0.640625 1.015625 0.640625 2.140625q0 1.03125 -0.578125 1.953125q-0.5625 0.921875 -1.6875 1.484375q1.46875 0.421875 2.25 1.46875q0.796875 1.03125 0.796875 2.453125q0 1.140625 -0.484375 2.125q-0.484375 0.96875 -1.1875 1.5q-0.703125 0.53125 -1.78125 0.8125q-1.0625 0.265625 -2.609375 0.265625l-6.1875 0zm2.15625 -9.40625l3.5 0q1.421875 0 2.046875 -0.1875q0.8125 -0.234375 1.21875 -0.796875q0.421875 -0.578125 0.421875 -1.421875q0 -0.8125 -0.390625 -1.421875q-0.375 -0.609375 -1.09375 -0.828125q-0.71875 -0.234375 -2.46875 -0.234375l-3.234375 0l0 4.890625zm0 7.5l4.03125 0q1.046875 0 1.453125 -0.078125q0.75 -0.140625 1.25 -0.453125q0.5 -0.3125 0.8125 -0.890625q0.328125 -0.59375 0.328125 -1.375q0 -0.90625 -0.46875 -1.578125q-0.46875 -0.671875 -1.296875 -0.9375q-0.8125 -0.265625 -2.359375 -0.265625l-3.75 0l0 5.578125zm12.049042 -3.96875q0 -3.265625 1.8125 -4.828125q1.515625 -1.3125 3.703125 -1.3125q2.421875 0 3.953125 1.59375q1.546875 1.578125 1.546875 4.375q0 2.28125 -0.6875 3.578125q-0.671875 1.296875 -1.984375 2.015625q-1.296875 0.71875 -2.828125 0.71875q-2.46875 0 -4.0 -1.578125q-1.515625 -1.578125 -1.515625 -4.5625zm2.046875 0q0 2.25 0.984375 3.375q0.984375 1.125 2.484375 1.125q1.484375 0 2.46875 -1.125q0.984375 -1.125 0.984375 -3.4375q0 -2.1875 -1.0 -3.296875q-0.984375 -1.125 -2.453125 -1.125q-1.5 0 -2.484375 1.125q-0.984375 1.109375 -0.984375 3.359375zm11.990936 5.875l0 -11.75l2.0 0l0 11.75l-2.0 0zm1.15625 -15.09375l-1.25 1.890625l-2.28125 0l2.390625 -3.109375l2.125 0l2.484375 3.109375l-2.265625 0l-1.203125 -1.890625zm8.794647 13.3125l0.28125 1.765625q-0.84375 0.171875 -1.5 0.171875q-1.078125 0 -1.6875 -0.34375q-0.59375 -0.34375 -0.84375 -0.890625q-0.234375 -0.5625 -0.234375 -2.359375l0 -6.765625l-1.46875 0l0 -1.546875l1.46875 0l0 -2.90625l1.984375 -1.203125l0 4.109375l2.0 0l0 1.546875l-2.0 0l0 6.875q0 0.84375 0.09375 1.09375q0.109375 0.25 0.34375 0.390625q0.25 0.140625 0.6875 0.140625q0.328125 0 0.875 -0.078125zm1.9508667 -12.140625l0 -2.296875l2.0 0l0 2.296875l-2.0 0zm0 13.921875l0 -11.75l2.0 0l0 11.75l-2.0 0zm13.064758 -3.78125l2.0625 0.25q-0.484375 1.8125 -1.8125 2.8125q-1.3125 0.984375 -3.359375 0.984375q-2.578125 0 -4.09375 -1.578125q-1.5 -1.59375 -1.5 -4.46875q0 -2.953125 1.53125 -4.59375q1.53125 -1.640625 3.953125 -1.640625q2.359375 0 3.84375 1.609375q1.5 1.59375 1.5 4.515625q0 0.171875 0 0.53125l-8.765625 0q0.109375 1.9375 1.09375 2.96875q0.984375 1.015625 2.453125 1.015625q1.09375 0 1.859375 -0.5625q0.78125 -0.578125 1.234375 -1.84375zm-6.53125 -3.21875l6.5625 0q-0.140625 -1.484375 -0.75 -2.21875q-0.953125 -1.15625 -2.46875 -1.15625q-1.375 0 -2.3125 0.921875q-0.9375 0.90625 -1.03125 2.453125zm11.069061 7.0l0 -11.75l1.796875 0l0 1.78125q0.6875 -1.25 1.265625 -1.640625q0.578125 -0.40625 1.28125 -0.40625q1.0 0 2.046875 0.640625l-0.6875 1.84375q-0.734375 -0.421875 -1.46875 -0.421875q-0.640625 0 -1.171875 0.390625q-0.515625 0.390625 -0.734375 1.09375q-0.328125 1.0625 -0.328125 2.3125l0 6.15625l-2.0 0zm6.7790833 -3.5l1.96875 -0.3125q0.15625 1.171875 0.90625 1.8125q0.765625 0.625 2.125 0.625q1.375 0 2.03125 -0.546875q0.671875 -0.5625 0.671875 -1.3125q0 -0.6875 -0.578125 -1.0625q-0.421875 -0.265625 -2.046875 -0.6875q-2.1875 -0.546875 -3.03125 -0.953125q-0.84375 -0.40625 -1.28125 -1.109375q-0.4375 -0.71875 -0.4375 -1.578125q0 -0.796875 0.359375 -1.453125q0.359375 -0.671875 0.984375 -1.125q0.453125 -0.328125 1.25 -0.5625q0.8125 -0.25 1.734375 -0.25q1.375 0 2.421875 0.40625q1.046875 0.390625 1.546875 1.078125q0.5 0.671875 0.6875 1.8125l-1.953125 0.265625q-0.125 -0.90625 -0.765625 -1.40625q-0.640625 -0.515625 -1.796875 -0.515625q-1.375 0 -1.96875 0.453125q-0.578125 0.453125 -0.578125 1.0625q0 0.390625 0.25 0.6875q0.234375 0.328125 0.75 0.53125q0.3125 0.125 1.765625 0.515625q2.109375 0.5625 2.9375 0.921875q0.84375 0.359375 1.3125 1.046875q0.484375 0.6875 0.484375 1.703125q0 1.0 -0.578125 1.875q-0.578125 0.875 -1.671875 1.359375q-1.09375 0.484375 -2.484375 0.484375q-2.296875 0 -3.5 -0.953125q-1.1875 -0.953125 -1.515625 -2.8125zm26.029022 3.5l0 -1.484375q-1.109375 1.75 -3.28125 1.75q-1.40625 0 -2.59375 -0.765625q-1.171875 -0.78125 -1.8125 -2.171875q-0.640625 -1.390625 -0.640625 -3.1875q0 -1.765625 0.578125 -3.1875q0.59375 -1.4375 1.765625 -2.203125q1.171875 -0.765625 2.609375 -0.765625q1.0625 0 1.890625 0.453125q0.84375 0.4375 1.359375 1.15625l0 -5.8125l1.984375 0l0 16.21875l-1.859375 0zm-6.28125 -5.859375q0 2.25 0.9375 3.375q0.953125 1.109375 2.25 1.109375q1.3125 0 2.21875 -1.0625q0.921875 -1.0625 0.921875 -3.265625q0 -2.40625 -0.9375 -3.53125q-0.921875 -1.125 -2.296875 -1.125q-1.3125 0 -2.203125 1.078125q-0.890625 1.078125 -0.890625 3.421875zm19.303436 2.078125l2.0625 0.25q-0.484375 1.8125 -1.8125 2.8125q-1.3125 0.984375 -3.359375 0.984375q-2.578125 0 -4.09375 -1.578125q-1.5 -1.59375 -1.5 -4.46875q0 -2.953125 1.53125 -4.59375q1.53125 -1.640625 3.953125 -1.640625q2.359375 0 3.84375 1.609375q1.5 1.59375 1.5 4.515625q0 0.171875 0 0.53125l-8.765625 0q0.109375 1.9375 1.09375 2.96875q0.984375 1.015625 2.453125 1.015625q1.09375 0 1.859375 -0.5625q0.78125 -0.578125 1.234375 -1.84375zm-6.53125 -3.21875l6.5625 0q-0.140625 -1.484375 -0.75 -2.21875q-0.953125 -1.15625 -2.46875 -1.15625q-1.375 0 -2.3125 0.921875q-0.9375 0.90625 -1.03125 2.453125z" fill-rule="nonzero"/><path fill="#000000" d="m418.12454 244.23477l1.96875 0.25q-0.328125 2.015625 -1.65625 3.171875q-1.3125 1.140625 -3.234375 1.140625q-2.421875 0 -3.890625 -1.578125q-1.453125 -1.578125 -1.453125 -4.515625q0 -1.90625 0.625 -3.328125q0.625 -1.4375 1.90625 -2.140625q1.296875 -0.71875 2.8125 -0.71875q1.921875 0 3.140625 0.96875q1.21875 0.96875 1.5625 2.75l-1.9375 0.296875q-0.28125 -1.1875 -0.984375 -1.78125q-0.703125 -0.59375 -1.703125 -0.59375q-1.5 0 -2.4375 1.078125q-0.9375 1.078125 -0.9375 3.40625q0 2.375 0.90625 3.453125q0.90625 1.0625 2.359375 1.0625q1.171875 0 1.953125 -0.71875q0.796875 -0.71875 1.0 -2.203125zm2.921875 -1.578125q0 -3.265625 1.8125 -4.828125q1.515625 -1.3125 3.703125 -1.3125q2.421875 0 3.953125 1.59375q1.546875 1.578125 1.546875 4.375q0 2.28125 -0.6875 3.578125q-0.671875 1.296875 -1.984375 2.015625q-1.296875 0.71875 -2.828125 0.71875q-2.46875 0 -4.0 -1.578125q-1.515625 -1.578125 -1.515625 -4.5625zm2.046875 0q0 2.25 0.984375 3.375q0.984375 1.125 2.484375 1.125q1.484375 0 2.46875 -1.125q0.984375 -1.125 0.984375 -3.4375q0 -2.1875 -1.0 -3.296875q-0.984375 -1.125 -2.453125 -1.125q-1.5 0 -2.484375 1.125q-0.984375 1.109375 -0.984375 3.359375zm11.303467 5.875l0 -11.75l1.78125 0l0 1.671875q1.296875 -1.9375 3.75 -1.9375q1.0625 0 1.953125 0.390625q0.890625 0.375 1.328125 1.0q0.4375 0.609375 0.625 1.46875q0.109375 0.546875 0.109375 1.9375l0 7.21875l-2.0 0l0 -7.140625q0 -1.21875 -0.234375 -1.8125q-0.234375 -0.609375 -0.828125 -0.96875q-0.578125 -0.359375 -1.375 -0.359375q-1.28125 0 -2.203125 0.8125q-0.921875 0.796875 -0.921875 3.046875l0 6.421875l-1.984375 0zm12.600311 0l0 -11.75l1.78125 0l0 1.671875q1.296875 -1.9375 3.75 -1.9375q1.0625 0 1.953125 0.390625q0.890625 0.375 1.328125 1.0q0.4375 0.609375 0.625 1.46875q0.109375 0.546875 0.109375 1.9375l0 7.21875l-2.0 0l0 -7.140625q0 -1.21875 -0.234375 -1.8125q-0.234375 -0.609375 -0.828125 -0.96875q-0.578125 -0.359375 -1.375 -0.359375q-1.28125 0 -2.203125 0.8125q-0.921875 0.796875 -0.921875 3.046875l0 6.421875l-1.984375 0zm20.631592 -3.78125l2.0625 0.25q-0.484375 1.8125 -1.8125 2.8125q-1.3125 0.984375 -3.359375 0.984375q-2.578125 0 -4.09375 -1.578125q-1.5 -1.59375 -1.5 -4.46875q0 -2.953125 1.53125 -4.59375q1.53125 -1.640625 3.953125 -1.640625q2.359375 0 3.84375 1.609375q1.5 1.59375 1.5 4.515625q0 0.171875 0 0.53125l-8.765625 0q0.109375 1.9375 1.09375 2.96875q0.984375 1.015625 2.453125 1.015625q1.09375 0 1.859375 -0.5625q0.78125 -0.578125 1.234375 -1.84375zm-6.53125 -3.21875l6.5625 0q-0.140625 -1.484375 -0.75 -2.21875q-0.953125 -1.15625 -2.46875 -1.15625q-1.375 0 -2.3125 0.921875q-0.9375 0.90625 -1.03125 2.453125zm9.772186 7.0l4.28125 -6.109375l-3.96875 -5.640625l2.484375 0l1.8125 2.75q0.5 0.796875 0.8125 1.328125q0.484375 -0.734375 0.90625 -1.296875l1.96875 -2.78125l2.390625 0l-4.0625 5.53125l4.359375 6.21875l-2.4375 0l-2.40625 -3.65625l-0.640625 -0.984375l-3.09375 4.640625l-2.40625 0zm12.65625 -13.921875l0 -2.296875l2.0 0l0 2.296875l-2.0 0zm0 13.921875l0 -11.75l2.0 0l0 11.75l-2.0 0zm4.2835083 -5.875q0 -3.265625 1.8125 -4.828125q1.515625 -1.3125 3.7030945 -1.3125q2.421875 0 3.953125 1.59375q1.546875 1.578125 1.546875 4.375q0 2.28125 -0.6875 3.578125q-0.671875 1.296875 -1.984375 2.015625q-1.296875 0.71875 -2.828125 0.71875q-2.4687195 0 -3.9999695 -1.578125q-1.515625 -1.578125 -1.515625 -4.5625zm2.046875 0q0 2.25 0.984375 3.375q0.9843445 1.125 2.4843445 1.125q1.484375 0 2.46875 -1.125q0.984375 -1.125 0.984375 -3.4375q0 -2.1875 -1.0 -3.296875q-0.984375 -1.125 -2.453125 -1.125q-1.5 0 -2.4843445 1.125q-0.984375 1.109375 -0.984375 3.359375zm11.303436 5.875l0 -11.75l1.78125 0l0 1.671875q1.296875 -1.9375 3.75 -1.9375q1.0625 0 1.953125 0.390625q0.890625 0.375 1.328125 1.0q0.4375 0.609375 0.625 1.46875q0.109375 0.546875 0.109375 1.9375l0 7.21875l-2.0 0l0 -7.140625q0 -1.21875 -0.234375 -1.8125q-0.234375 -0.609375 -0.828125 -0.96875q-0.578125 -0.359375 -1.375 -0.359375q-1.28125 0 -2.203125 0.8125q-0.921875 0.796875 -0.921875 3.046875l0 6.421875l-1.984375 0zm11.803467 -3.5l1.96875 -0.3125q0.15625 1.171875 0.90625 1.8125q0.765625 0.625 2.125 0.625q1.375 0 2.03125 -0.546875q0.671875 -0.5625 0.671875 -1.3125q0 -0.6875 -0.578125 -1.0625q-0.421875 -0.265625 -2.046875 -0.6875q-2.1875 -0.546875 -3.03125 -0.953125q-0.84375 -0.40625 -1.28125 -1.109375q-0.4375 -0.71875 -0.4375 -1.578125q0 -0.796875 0.359375 -1.453125q0.359375 -0.671875 0.984375 -1.125q0.453125 -0.328125 1.25 -0.5625q0.8125 -0.25 1.734375 -0.25q1.375 0 2.421875 0.40625q1.046875 0.390625 1.546875 1.078125q0.5 0.671875 0.6875 1.8125l-1.953125 0.265625q-0.125 -0.90625 -0.765625 -1.40625q-0.640625 -0.515625 -1.796875 -0.515625q-1.375 0 -1.96875 0.453125q-0.578125 0.453125 -0.578125 1.0625q0 0.390625 0.25 0.6875q0.234375 0.328125 0.75 0.53125q0.3125 0.125 1.765625 0.515625q2.109375 0.5625 2.9375 0.921875q0.84375 0.359375 1.3125 1.046875q0.484375 0.6875 0.484375 1.703125q0 1.0 -0.578125 1.875q-0.578125 0.875 -1.671875 1.359375q-1.09375 0.484375 -2.484375 0.484375q-2.296875 0 -3.5 -0.953125q-1.1875 -0.953125 -1.515625 -2.8125z" fill-rule="nonzero"/></g></svg>