<?xml version="1.0" encoding="UTF-8" standalone="no"?>
<svg
   xmlns:dc="http://purl.org/dc/elements/1.1/"
   xmlns:cc="http://creativecommons.org/ns#"
   xmlns:rdf="http://www.w3.org/1999/02/22-rdf-syntax-ns#"
   xmlns:svg="http://www.w3.org/2000/svg"
   xmlns="http://www.w3.org/2000/svg"
   xmlns:sodipodi="http://sodipodi.sourceforge.net/DTD/sodipodi-0.dtd"
   xmlns:inkscape="http://www.inkscape.org/namespaces/inkscape"
   version="1.1"
   viewBox="0.0 0.0 960.0 720.0"
   fill="none"
   stroke="none"
   stroke-linecap="square"
   stroke-miterlimit="10"
   id="svg4757"
   sodipodi:docname="23007634-physiques.svg"
   inkscape:version="0.92.3 (2405546, 2018-03-11)">
  <metadata
     id="metadata4763">
    <rdf:RDF>
      <cc:Work
         rdf:about="">
        <dc:format>image/svg+xml</dc:format>
        <dc:type
           rdf:resource="http://purl.org/dc/dcmitype/StillImage" />
        <dc:title></dc:title>
      </cc:Work>
    </rdf:RDF>
  </metadata>
  <defs
     id="defs4761" />
  <sodipodi:namedview
     pagecolor="#ffffff"
     bordercolor="#000000"
     borderopacity="0.25"
     objecttolerance="10"
     gridtolerance="10"
     guidetolerance="10"
     inkscape:pageopacity="0"
     inkscape:pageshadow="2"
     inkscape:window-width="1366"
     inkscape:window-height="705"
     id="namedview4759"
     showgrid="false"
     inkscape:zoom="0.32777778"
     inkscape:cx="-34.067793"
     inkscape:cy="360"
     inkscape:window-x="-8"
     inkscape:window-y="-8"
     inkscape:window-maximized="1"
     inkscape:current-layer="svg4757" />
  <clipPath
     id="p.0">
    <path
       d="m0 0l960.0 0l0 720.0l-960.0 0l0 -720.0z"
       clip-rule="nonzero"
       id="path4684" />
  </clipPath>
  <path
     style="fill:#000000;fill-opacity:0;fill-rule:evenodd"
     inkscape:connector-curvature="0"
     id="path4687"
     d="M 0,0 H 960 V 720 H 0 Z" />
  <path
     style="fill:#f3f3f3;fill-rule:evenodd"
     inkscape:connector-curvature="0"
     id="path4689"
     d="M 46.330708,50.125984 H 913.66931 V 683.57483 H 46.330708 Z" />
  <path
     style="fill-rule:evenodd;stroke:#000000;stroke-width:1;stroke-linecap:butt;stroke-linejoin:round"
     inkscape:connector-curvature="0"
     id="path4691"
     d="M 46.330708,50.125984 H 913.66931 V 683.57483 H 46.330708 Z" />
  <path
     style="fill:#000000;fill-rule:nonzero"
     inkscape:connector-curvature="0"
     id="path4693"
     d="m 423.1431,373.7704 v -13.35938 h 1.64063 v 4.79688 q 1.14062,-1.32813 2.89062,-1.32813 1.07813,0 1.85938,0.42188 0.79687,0.42187 1.14062,1.17187 0.34375,0.75 0.34375,2.17188 v 6.125 h -1.64062 v -6.125 q 0,-1.23438 -0.53125,-1.79688 -0.53125,-0.5625 -1.51563,-0.5625 -0.71875,0 -1.35937,0.39063 -0.64063,0.375 -0.92188,1.01562 -0.26562,0.64063 -0.26562,1.78125 v 5.29688 z m 9.76636,-4.84375 q 0,-2.6875 1.48437,-3.96875 1.25,-1.07813 3.04688,-1.07813 2,0 3.26562,1.3125 1.26563,1.29688 1.26563,3.60938 0,1.85937 -0.5625,2.9375 -0.5625,1.0625 -1.64063,1.65625 -1.0625,0.59375 -2.32812,0.59375 -2.03125,0 -3.28125,-1.29688 -1.25,-1.3125 -1.25,-3.76562 z m 1.6875,0 q 0,1.85937 0.79687,2.79687 0.8125,0.92188 2.04688,0.92188 1.21875,0 2.03125,-0.92188 0.8125,-0.9375 0.8125,-2.84375 0,-1.79687 -0.8125,-2.71875 -0.8125,-0.92187 -2.03125,-0.92187 -1.23438,0 -2.04688,0.92187 -0.79687,0.90625 -0.79687,2.76563 z m 9.29757,8.54687 v -13.375 h 1.48438 v 1.25 q 0.53125,-0.73437 1.1875,-1.09375 0.67187,-0.375 1.625,-0.375 1.23437,0 2.17187,0.64063 0.95313,0.625 1.4375,1.79687 0.48438,1.15625 0.48438,2.54688 0,1.48437 -0.53125,2.67187 -0.53125,1.1875 -1.54688,1.82813 -1.01562,0.625 -2.14062,0.625 -0.8125,0 -1.46875,-0.34375 -0.65625,-0.34375 -1.0625,-0.875 v 4.70312 z m 1.48438,-8.48437 q 0,1.85937 0.75,2.76562 0.76562,0.89063 1.82812,0.89063 1.09375,0 1.875,-0.92188 0.78125,-0.9375 0.78125,-2.875 0,-1.84375 -0.76562,-2.76562 -0.75,-0.92188 -1.8125,-0.92188 -1.04688,0 -1.85938,0.98438 -0.79687,0.96875 -0.79687,2.84375 z m 8.89133,-6.6875 v -1.89063 h 1.64062 v 1.89063 z m 0,11.46875 v -9.67188 h 1.64062 v 9.67188 z m 7.72296,-1.46875 0.23437,1.45312 q -0.6875,0.14063 -1.23437,0.14063 -0.89063,0 -1.39063,-0.28125 -0.48437,-0.28125 -0.6875,-0.73438 -0.20312,-0.46875 -0.20312,-1.9375 v -5.57812 h -1.20313 v -1.26563 h 1.20313 v -2.39062 l 1.625,-0.98438 v 3.375 h 1.65625 v 1.26563 h -1.65625 v 5.67187 q 0,0.6875 0.0781,0.89063 0.0938,0.20312 0.28125,0.32812 0.20313,0.10938 0.57813,0.10938 0.26562,0 0.71875,-0.0625 z m 7.91766,0.28125 q -0.92187,0.76562 -1.76562,1.09375 -0.82813,0.3125 -1.79688,0.3125 -1.59375,0 -2.45312,-0.78125 -0.85938,-0.78125 -0.85938,-1.98438 0,-0.71875 0.32813,-1.29687 0.32812,-0.59375 0.84375,-0.9375 0.53125,-0.35938 1.1875,-0.54688 0.46875,-0.125 1.45312,-0.25 1.98438,-0.23437 2.92188,-0.5625 0.0156,-0.34375 0.0156,-0.42187 0,-1 -0.46875,-1.42188 -0.625,-0.54687 -1.875,-0.54687 -1.15625,0 -1.70312,0.40625 -0.54688,0.40625 -0.8125,1.42187 l -1.60938,-0.21875 q 0.21875,-1.01562 0.71875,-1.64062 0.5,-0.64063 1.45313,-0.98438 0.95312,-0.34375 2.1875,-0.34375 1.25,0 2.01562,0.29688 0.78125,0.28125 1.14063,0.73437 0.375,0.4375 0.51562,1.10938 0.0781,0.42187 0.0781,1.51562 v 2.1875 q 0,2.28125 0.10937,2.89063 0.10938,0.59375 0.40625,1.15625 h -1.70312 q -0.26563,-0.51563 -0.32813,-1.1875 z m -0.14062,-3.67188 q -0.89063,0.375 -2.67188,0.625 -1.01562,0.14063 -1.4375,0.32813 -0.42187,0.1875 -0.65625,0.53125 -0.21875,0.34375 -0.21875,0.78125 0,0.65625 0.5,1.09375 0.5,0.4375 1.45313,0.4375 0.9375,0 1.67187,-0.40625 0.75,-0.42188 1.09375,-1.14063 0.26563,-0.5625 0.26563,-1.64062 z m 4.46948,4.85938 v -13.35938 h 1.76562 v 5.48438 h 6.9375 v -5.48438 h 1.76563 v 13.35938 h -1.76563 v -6.29688 h -6.9375 v 6.29688 z m 13.20733,0 v -13.35938 h 1.64063 v 4.79688 q 1.14062,-1.32813 2.89062,-1.32813 1.07813,0 1.85938,0.42188 0.79687,0.42187 1.14062,1.17187 0.34375,0.75 0.34375,2.17188 v 6.125 h -1.64062 v -6.125 q 0,-1.23438 -0.53125,-1.79688 -0.53125,-0.5625 -1.51563,-0.5625 -0.71875,0 -1.35937,0.39063 -0.64063,0.375 -0.92188,1.01562 -0.26562,0.64063 -0.26562,1.78125 v 5.29688 z m 9.76633,-4.84375 q 0,-2.6875 1.48438,-3.96875 1.25,-1.07813 3.04687,-1.07813 2,0 3.26563,1.3125 1.26562,1.29688 1.26562,3.60938 0,1.85937 -0.5625,2.9375 -0.5625,1.0625 -1.64062,1.65625 -1.0625,0.59375 -2.32813,0.59375 -2.03125,0 -3.28125,-1.29688 -1.25,-1.3125 -1.25,-3.76562 z m 1.6875,0 q 0,1.85937 0.79688,2.79687 0.8125,0.92188 2.04687,0.92188 1.21875,0 2.03125,-0.92188 0.8125,-0.9375 0.8125,-2.84375 0,-1.79687 -0.8125,-2.71875 -0.8125,-0.92187 -2.03125,-0.92187 -1.23437,0 -2.04687,0.92187 -0.79688,0.90625 -0.79688,2.76563 z m 9.29758,4.84375 v -13.35938 h 1.64062 v 4.79688 q 1.14063,-1.32813 2.8906,-1.32813 1.07812,0 1.85937,0.42188 0.79688,0.42187 1.14063,1.17187 0.34375,0.75 0.34375,2.17188 v 6.125 h -1.64063 v -6.125 q 0,-1.23438 -0.53125,-1.79688 -0.53125,-0.5625 -1.51562,-0.5625 -0.71872,0 -1.35935,0.39063 -0.64062,0.375 -0.92187,1.01562 -0.26563,0.64063 -0.26563,1.78125 v 5.29688 z m 9.76633,-4.84375 q 0,-2.6875 1.48437,-3.96875 1.25,-1.07813 3.04688,-1.07813 2,0 3.26562,1.3125 1.26563,1.29688 1.26563,3.60938 0,1.85937 -0.5625,2.9375 -0.5625,1.0625 -1.64063,1.65625 -1.0625,0.59375 -2.32812,0.59375 -2.03125,0 -3.28125,-1.29688 -1.25,-1.3125 -1.25,-3.76562 z m 1.6875,0 q 0,1.85937 0.79687,2.79687 0.8125,0.92188 2.04688,0.92188 1.21875,0 2.03125,-0.92188 0.8125,-0.9375 0.8125,-2.84375 0,-1.79687 -0.8125,-2.71875 -0.8125,-0.92187 -2.03125,-0.92187 -1.23438,0 -2.04688,0.92187 -0.79687,0.90625 -0.79687,2.76563 z m 9.2976,8.54687 v -13.375 h 1.48438 v 1.25 q 0.53125,-0.73437 1.1875,-1.09375 0.67187,-0.375 1.625,-0.375 1.23437,0 2.17187,0.64063 0.95313,0.625 1.4375,1.79687 0.48438,1.15625 0.48438,2.54688 0,1.48437 -0.53125,2.67187 -0.53125,1.1875 -1.54688,1.82813 -1.01562,0.625 -2.14062,0.625 -0.8125,0 -1.46875,-0.34375 -0.65625,-0.34375 -1.0625,-0.875 v 4.70312 z m 1.48438,-8.48437 q 0,1.85937 0.75,2.76562 0.76562,0.89063 1.82812,0.89063 1.09375,0 1.875,-0.92188 0.78125,-0.9375 0.78125,-2.875 0,-1.84375 -0.76562,-2.76562 -0.75,-0.92188 -1.8125,-0.92188 -1.04688,0 -1.85938,0.98438 -0.79687,0.96875 -0.79687,2.84375 z" />
  <path
     style="fill:#f3f3f3;fill-rule:evenodd"
     inkscape:connector-curvature="0"
     id="path4695"
     d="m 129.71391,158.58267 h 108.7559 v 138.23624 h -108.7559 z" />
  <path
     style="fill-rule:evenodd;stroke:#000000;stroke-width:1;stroke-linecap:butt;stroke-linejoin:round"
     inkscape:connector-curvature="0"
     id="path4697"
     d="m 129.71391,158.58267 h 108.7559 v 138.23624 h -108.7559 z" />
  <path
     style="fill:#000000;fill-rule:nonzero"
     inkscape:connector-curvature="0"
     id="path4699"
     d="m 144.81256,218.02203 2.09375,-0.32812 q 0.17187,1.25 0.96875,1.92187 0.8125,0.67188 2.25,0.67188 1.45312,0 2.15625,-0.59375 0.70312,-0.59375 0.70312,-1.39063 0,-0.71875 -0.625,-1.125 -0.42187,-0.28125 -2.15625,-0.71875 -2.3125,-0.57812 -3.21875,-1 -0.89062,-0.4375 -1.35937,-1.1875 -0.45313,-0.76562 -0.45313,-1.67187 0,-0.82813 0.375,-1.53125 0.39063,-0.71875 1.04688,-1.1875 0.48437,-0.35938 1.32812,-0.60938 0.85938,-0.26562 1.82813,-0.26562 1.46875,0 2.57812,0.42187 1.10938,0.42188 1.625,1.15625 0.53125,0.71875 0.73438,1.92188 l -2.0625,0.28125 q -0.14063,-0.96875 -0.8125,-1.5 -0.67188,-0.54688 -1.90625,-0.54688 -1.45313,0 -2.07813,0.48438 -0.625,0.48437 -0.625,1.125 0,0.40625 0.26563,0.73437 0.25,0.34375 0.8125,0.5625 0.3125,0.125 1.85937,0.54688 2.23438,0.59375 3.10938,0.98437 0.89062,0.375 1.39062,1.10938 0.51563,0.71875 0.51563,1.79687 0,1.04688 -0.625,1.98438 -0.60938,0.9375 -1.76563,1.45312 -1.15625,0.5 -2.625,0.5 -2.42187,0 -3.70312,-1 -1.26563,-1.01562 -1.625,-3 z m 21.375,-0.29687 2.17187,0.28125 q -0.51562,1.90625 -1.90625,2.96875 -1.39062,1.04687 -3.5625,1.04687 -2.73437,0 -4.34375,-1.67187 -1.59375,-1.6875 -1.59375,-4.73438 0,-3.14062 1.60938,-4.875 1.625,-1.73437 4.20312,-1.73437 2.5,0 4.07813,1.70312 1.59375,1.70313 1.59375,4.78125 0,0.1875 -0.0156,0.5625 h -9.28125 q 0.10938,2.04688 1.15625,3.14063 1.04688,1.09375 2.60938,1.09375 1.15625,0 1.96875,-0.60938 0.82812,-0.60937 1.3125,-1.95312 z m -6.9375,-3.40625 h 6.95312 q -0.14062,-1.5625 -0.79687,-2.35938 -1,-1.21875 -2.60938,-1.21875 -1.45312,0 -2.45312,0.98438 -0.98438,0.96875 -1.09375,2.59375 z m 11.73828,7.42187 v -12.45312 h 1.89063 v 1.89062 q 0.73437,-1.32812 1.34375,-1.75 0.625,-0.42187 1.35937,-0.42187 1.0625,0 2.17188,0.6875 l -0.73438,1.95312 q -0.76562,-0.45312 -1.54687,-0.45312 -0.6875,0 -1.25,0.42187 -0.54688,0.40625 -0.78125,1.14063 -0.34375,1.125 -0.34375,2.46875 v 6.51562 z m 11.47656,0 -4.73437,-12.45312 h 2.21875 l 2.67187,7.45312 q 0.4375,1.21875 0.79688,2.51563 0.28125,-0.98438 0.78125,-2.375 l 2.76562,-7.59375 h 2.17188 l -4.70313,12.45312 z m 17.0625,-4.01562 2.17188,0.28125 q -0.51563,1.90625 -1.90625,2.96875 -1.39063,1.04687 -3.5625,1.04687 -2.73438,0 -4.34375,-1.67187 -1.59375,-1.6875 -1.59375,-4.73438 0,-3.14062 1.60937,-4.875 1.625,-1.73437 4.20313,-1.73437 2.5,0 4.07812,1.70312 1.59375,1.70313 1.59375,4.78125 0,0.1875 -0.0156,0.5625 h -9.28125 q 0.10937,2.04688 1.15625,3.14063 1.04687,1.09375 2.60937,1.09375 1.15625,0 1.96875,-0.60938 0.82813,-0.60937 1.3125,-1.95312 z m -6.9375,-3.40625 h 6.95313 q -0.14063,-1.5625 -0.79688,-2.35938 -1,-1.21875 -2.60937,-1.21875 -1.45313,0 -2.45313,0.98438 -0.98437,0.96875 -1.09375,2.59375 z m 19.91016,7.42187 v -1.82812 q -1.45313,2.10937 -3.9375,2.10937 -1.10938,0 -2.0625,-0.42187 -0.95313,-0.42188 -1.42188,-1.0625 -0.45312,-0.64063 -0.64062,-1.5625 -0.14063,-0.625 -0.14063,-1.96875 v -7.71875 h 2.10938 v 6.90625 q 0,1.65625 0.14062,2.23437 0.1875,0.82813 0.82813,1.3125 0.65625,0.46875 1.60937,0.46875 0.9375,0 1.76563,-0.48437 0.84375,-0.5 1.1875,-1.32813 0.34375,-0.84375 0.34375,-2.4375 v -6.67187 h 2.10937 v 12.45312 z m 5.17578,0 v -12.45312 h 1.89063 v 1.89062 q 0.73437,-1.32812 1.34375,-1.75 0.625,-0.42187 1.35937,-0.42187 1.0625,0 2.17188,0.6875 l -0.73438,1.95312 q -0.76562,-0.45312 -1.54687,-0.45312 -0.6875,0 -1.25,0.42187 -0.54688,0.40625 -0.78125,1.14063 -0.34375,1.125 -0.34375,2.46875 v 6.51562 z" />
  <path
     style="fill:#000000;fill-rule:nonzero"
     inkscape:connector-curvature="0"
     id="path4701"
     d="m 140.14264,247.02203 2.09375,-0.32812 q 0.17188,1.25 0.96875,1.92187 0.8125,0.67188 2.25,0.67188 1.45313,0 2.15625,-0.59375 0.70313,-0.59375 0.70313,-1.39063 0,-0.71875 -0.625,-1.125 -0.42188,-0.28125 -2.15625,-0.71875 -2.3125,-0.57812 -3.21875,-1 -0.89063,-0.4375 -1.35938,-1.1875 -0.45312,-0.76562 -0.45312,-1.67187 0,-0.82813 0.375,-1.53125 0.39062,-0.71875 1.04687,-1.1875 0.48438,-0.35938 1.32813,-0.60938 0.85937,-0.26562 1.82812,-0.26562 1.46875,0 2.57813,0.42187 1.10937,0.42188 1.625,1.15625 0.53125,0.71875 0.73437,1.92188 l -2.0625,0.28125 q -0.14062,-0.96875 -0.8125,-1.5 -0.67187,-0.54688 -1.90625,-0.54688 -1.45312,0 -2.07812,0.48438 -0.625,0.48437 -0.625,1.125 0,0.40625 0.26562,0.73437 0.25,0.34375 0.8125,0.5625 0.3125,0.125 1.85938,0.54688 2.23437,0.59375 3.10937,0.98437 0.89063,0.375 1.39063,1.10938 0.51562,0.71875 0.51562,1.79687 0,1.04688 -0.625,1.98438 -0.60937,0.9375 -1.76562,1.45312 -1.15625,0.5 -2.625,0.5 -2.42188,0 -3.70313,-1 -1.26562,-1.01562 -1.625,-3 z m 21.375,-0.29687 2.17188,0.28125 q -0.51563,1.90625 -1.90625,2.96875 -1.39063,1.04687 -3.5625,1.04687 -2.73438,0 -4.34375,-1.67187 -1.59375,-1.6875 -1.59375,-4.73438 0,-3.14062 1.60937,-4.875 1.625,-1.73437 4.20313,-1.73437 2.5,0 4.07812,1.70312 1.59375,1.70313 1.59375,4.78125 0,0.1875 -0.0156,0.5625 h -9.28125 q 0.10937,2.04688 1.15625,3.14063 1.04687,1.09375 2.60937,1.09375 1.15625,0 1.96875,-0.60938 0.82813,-0.60937 1.3125,-1.95312 z m -6.9375,-3.40625 h 6.95313 q -0.14063,-1.5625 -0.79688,-2.35938 -1,-1.21875 -2.60937,-1.21875 -1.45313,0 -2.45313,0.98438 -0.98437,0.96875 -1.09375,2.59375 z m 2.28125,-6.57813 1.54688,-3.28125 h 2.76562 l -2.57812,3.28125 z m 17.59766,9.4375 2.07812,0.26563 q -0.34375,2.15625 -1.75,3.375 -1.39062,1.20312 -3.4375,1.20312 -2.54687,0 -4.10937,-1.67187 -1.54688,-1.67188 -1.54688,-4.78125 0,-2.01563 0.67188,-3.53125 0.67187,-1.51563 2.03125,-2.26563 1.35937,-0.76562 2.96875,-0.76562 2.03125,0 3.3125,1.03125 1.29687,1.03125 1.65625,2.90625 l -2.04688,0.32812 q -0.29687,-1.26562 -1.04687,-1.89062 -0.73438,-0.64063 -1.79688,-0.64063 -1.59375,0 -2.59375,1.15625 -0.98437,1.14063 -0.98437,3.60938 0,2.5 0.95312,3.64062 0.96875,1.14063 2.51563,1.14063 1.23437,0 2.0625,-0.76563 0.84375,-0.76562 1.0625,-2.34375 z m 12.03125,4.5625 v -1.82812 q -1.45313,2.10937 -3.9375,2.10937 -1.10938,0 -2.0625,-0.42187 -0.95313,-0.42188 -1.42188,-1.0625 -0.45312,-0.64063 -0.64062,-1.5625 -0.14063,-0.625 -0.14063,-1.96875 v -7.71875 h 2.10938 v 6.90625 q 0,1.65625 0.14062,2.23437 0.1875,0.82813 0.82813,1.3125 0.65625,0.46875 1.60937,0.46875 0.9375,0 1.76563,-0.48437 0.84375,-0.5 1.1875,-1.32813 0.34375,-0.84375 0.34375,-2.4375 v -6.67187 h 2.10937 v 12.45312 z m 5.17578,0 v -12.45312 h 1.89062 v 1.89062 q 0.73438,-1.32812 1.34375,-1.75 0.625,-0.42187 1.35938,-0.42187 1.0625,0 2.17187,0.6875 l -0.73437,1.95312 q -0.76563,-0.45312 -1.54688,-0.45312 -0.6875,0 -1.25,0.42187 -0.54687,0.40625 -0.78125,1.14063 -0.34375,1.125 -0.34375,2.46875 v 6.51562 z m 8.02343,-14.75 v -2.4375 h 2.10938 v 2.4375 z m 0,14.75 v -12.45312 h 2.10938 v 12.45312 z m 4.47266,-3.71875 2.09375,-0.32812 q 0.17188,1.25 0.96875,1.92187 0.8125,0.67188 2.25,0.67188 1.45313,0 2.15625,-0.59375 0.70313,-0.59375 0.70313,-1.39063 0,-0.71875 -0.625,-1.125 -0.42188,-0.28125 -2.15625,-0.71875 -2.3125,-0.57812 -3.21875,-1 -0.89063,-0.4375 -1.35938,-1.1875 -0.45312,-0.76562 -0.45312,-1.67187 0,-0.82813 0.375,-1.53125 0.39062,-0.71875 1.04687,-1.1875 0.48438,-0.35938 1.32813,-0.60938 0.85937,-0.26562 1.82812,-0.26562 1.46875,0 2.57813,0.42187 1.10937,0.42188 1.625,1.15625 0.53125,0.71875 0.73437,1.92188 l -2.0625,0.28125 q -0.14062,-0.96875 -0.8125,-1.5 -0.67187,-0.54688 -1.90625,-0.54688 -1.45312,0 -2.07812,0.48438 -0.625,0.48437 -0.625,1.125 0,0.40625 0.26562,0.73437 0.25,0.34375 0.8125,0.5625 0.3125,0.125 1.85938,0.54688 2.23437,0.59375 3.10937,0.98437 0.89063,0.375 1.39063,1.10938 0.51562,0.71875 0.51562,1.79687 0,1.04688 -0.625,1.98438 -0.60937,0.9375 -1.76562,1.45312 -1.15625,0.5 -2.625,0.5 -2.42188,0 -3.70313,-1 -1.26562,-1.01562 -1.625,-3 z m 21.375,-0.29687 2.17188,0.28125 q -0.51563,1.90625 -1.90625,2.96875 -1.39063,1.04687 -3.5625,1.04687 -2.73438,0 -4.34375,-1.67187 -1.59375,-1.6875 -1.59375,-4.73438 0,-3.14062 1.60937,-4.875 1.625,-1.73437 4.20313,-1.73437 2.5,0 4.07812,1.70312 1.59375,1.70313 1.59375,4.78125 0,0.1875 -0.0156,0.5625 h -9.28125 q 0.10937,2.04688 1.15625,3.14063 1.04687,1.09375 2.60937,1.09375 1.15625,0 1.96875,-0.60938 0.82813,-0.60937 1.3125,-1.95312 z m -6.9375,-3.40625 h 6.95313 q -0.14063,-1.5625 -0.79688,-2.35938 -1,-1.21875 -2.60937,-1.21875 -1.45313,0 -2.45313,0.98438 -0.98437,0.96875 -1.09375,2.59375 z m 2.28125,-6.57813 1.54688,-3.28125 h 2.76562 l -2.57812,3.28125 z" />
  <path
     style="fill:#f3f3f3;fill-rule:evenodd"
     inkscape:connector-curvature="0"
     id="path4703"
     d="M 587.0866,330.43045 H 821.07085 V 465.23358 H 587.0866 Z" />
  <path
     style="fill-rule:evenodd;stroke:#000000;stroke-width:1;stroke-linecap:butt;stroke-linejoin:round"
     inkscape:connector-curvature="0"
     id="path4705"
     d="M 587.0866,330.43045 H 821.07085 V 465.23358 H 587.0866 Z" />
  <path
     style="fill:#000000;fill-rule:nonzero"
     inkscape:connector-curvature="0"
     id="path4707"
     d="m 606.2799,391.622 v -2.4375 h 2.10937 v 2.4375 z m 0,14.75 v -12.45312 h 2.10937 V 406.372 Z m 5.31641,0 v -12.45312 h 1.90625 v 1.78125 q 1.375,-2.0625 3.95312,-2.0625 1.125,0 2.0625,0.40625 0.95313,0.40625 1.42188,1.0625 0.46875,0.65625 0.65625,1.5625 0.125,0.57812 0.125,2.04687 v 7.65625 h -2.10938 v -7.57812 q 0,-1.28125 -0.25,-1.92188 -0.25,-0.64062 -0.875,-1.01562 -0.625,-0.39063 -1.46875,-0.39063 -1.34375,0 -2.32812,0.85938 -0.98438,0.85937 -0.98438,3.25 v 6.79687 z m 17.95703,-1.89062 0.3125,1.85937 q -0.89063,0.20313 -1.59375,0.20313 -1.15625,0 -1.79688,-0.35938 -0.625,-0.375 -0.89062,-0.96875 -0.25,-0.59375 -0.25,-2.48437 v -7.17188 h -1.54688 v -1.64062 h 1.54688 v -3.07813 l 2.09375,-1.26562 v 4.34375 h 2.125 v 1.64062 h -2.125 v 7.28125 q 0,0.90625 0.10937,1.17188 0.125,0.25 0.375,0.40625 0.25,0.14062 0.71875,0.14062 0.34375,0 0.92188,-0.0781 z m 10.58984,-2.125 2.17188,0.28125 q -0.51563,1.90625 -1.90625,2.96875 -1.39063,1.04687 -3.5625,1.04687 -2.73438,0 -4.34375,-1.67187 -1.59375,-1.6875 -1.59375,-4.73438 0,-3.14062 1.60937,-4.875 1.625,-1.73437 4.20313,-1.73437 2.5,0 4.07812,1.70312 1.59375,1.70313 1.59375,4.78125 0,0.1875 -0.0156,0.5625 h -9.28125 q 0.10937,2.04688 1.15625,3.14063 1.04687,1.09375 2.60937,1.09375 1.15625,0 1.96875,-0.60938 0.82813,-0.60937 1.3125,-1.95312 z m -6.9375,-3.40625 h 6.95313 q -0.14063,-1.5625 -0.79688,-2.35938 -1,-1.21875 -2.60937,-1.21875 -1.45313,0 -2.45313,0.98438 -0.98437,0.96875 -1.09375,2.59375 z m 11.73828,7.42187 v -12.45312 h 1.89063 v 1.89062 q 0.73437,-1.32812 1.34375,-1.75 0.625,-0.42187 1.35937,-0.42187 1.0625,0 2.17188,0.6875 l -0.73438,1.95312 q -0.76562,-0.45312 -1.54687,-0.45312 -0.6875,0 -1.25,0.42187 -0.54688,0.40625 -0.78125,1.14063 -0.34375,1.125 -0.34375,2.46875 v 6.51562 z m 8.00781,0 v -12.45312 h 1.90625 v 1.78125 q 1.375,-2.0625 3.95313,-2.0625 1.125,0 2.0625,0.40625 0.95312,0.40625 1.42187,1.0625 0.46875,0.65625 0.65625,1.5625 0.125,0.57812 0.125,2.04687 v 7.65625 h -2.10937 v -7.57812 q 0,-1.28125 -0.25,-1.92188 -0.25,-0.64062 -0.875,-1.01562 -0.625,-0.39063 -1.46875,-0.39063 -1.34375,0 -2.32813,0.85938 -0.98437,0.85937 -0.98437,3.25 v 6.79687 z m 21.87891,-4.01562 2.17188,0.28125 q -0.51563,1.90625 -1.90625,2.96875 -1.39063,1.04687 -3.5625,1.04687 -2.73438,0 -4.34375,-1.67187 -1.59375,-1.6875 -1.59375,-4.73438 0,-3.14062 1.60937,-4.875 1.625,-1.73437 4.20313,-1.73437 2.5,0 4.07812,1.70312 1.59375,1.70313 1.59375,4.78125 0,0.1875 -0.0156,0.5625 h -9.28125 q 0.10937,2.04688 1.15625,3.14063 1.04687,1.09375 2.60937,1.09375 1.15625,0 1.96875,-0.60938 0.82813,-0.60937 1.3125,-1.95312 z m -6.9375,-3.40625 h 6.95313 q -0.14063,-1.5625 -0.79688,-2.35938 -1,-1.21875 -2.60937,-1.21875 -1.45313,0 -2.45313,0.98438 -0.98437,0.96875 -1.09375,2.59375 z m 16.36328,5.53125 0.3125,1.85937 q -0.89062,0.20313 -1.59375,0.20313 -1.15625,0 -1.79687,-0.35938 -0.625,-0.375 -0.89063,-0.96875 -0.25,-0.59375 -0.25,-2.48437 v -7.17188 h -1.54687 v -1.64062 h 1.54687 v -3.07813 l 2.09375,-1.26562 v 4.34375 h 2.125 v 1.64062 h -2.125 v 7.28125 q 0,0.90625 0.10938,1.17188 0.125,0.25 0.375,0.40625 0.25,0.14062 0.71875,0.14062 0.34375,0 0.92187,-0.0781 z m 17.25781,-2.125 2.17188,0.28125 q -0.51563,1.90625 -1.90625,2.96875 -1.39063,1.04687 -3.5625,1.04687 -2.73438,0 -4.34375,-1.67187 -1.59375,-1.6875 -1.59375,-4.73438 0,-3.14062 1.60937,-4.875 1.625,-1.73437 4.20313,-1.73437 2.5,0 4.07812,1.70312 1.59375,1.70313 1.59375,4.78125 0,0.1875 -0.0156,0.5625 h -9.28125 q 0.10937,2.04688 1.15625,3.14063 1.04687,1.09375 2.60937,1.09375 1.15625,0 1.96875,-0.60938 0.82813,-0.60937 1.3125,-1.95312 z m -6.9375,-3.40625 h 6.95313 q -0.14063,-1.5625 -0.79688,-2.35938 -1,-1.21875 -2.60937,-1.21875 -1.45313,0 -2.45313,0.98438 -0.98437,0.96875 -1.09375,2.59375 z m 16.36328,5.53125 0.3125,1.85937 q -0.89062,0.20313 -1.59375,0.20313 -1.15625,0 -1.79687,-0.35938 -0.625,-0.375 -0.89063,-0.96875 -0.25,-0.59375 -0.25,-2.48437 v -7.17188 h -1.54687 v -1.64062 h 1.54687 v -3.07813 l 2.09375,-1.26562 v 4.34375 h 2.125 v 1.64062 h -2.125 v 7.28125 q 0,0.90625 0.10938,1.17188 0.125,0.25 0.375,0.40625 0.25,0.14062 0.71875,0.14062 0.34375,0 0.92187,-0.0781 z m 8.71094,1.89062 v -12.45312 h 1.89063 v 1.89062 q 0.73437,-1.32812 1.34375,-1.75 0.625,-0.42187 1.35937,-0.42187 1.0625,0 2.17188,0.6875 l -0.73438,1.95312 q -0.76562,-0.45312 -1.54687,-0.45312 -0.6875,0 -1.25,0.42187 -0.54688,0.40625 -0.78125,1.14063 -0.34375,1.125 -0.34375,2.46875 v 6.51562 z m 16.53906,-4.01562 2.17188,0.28125 q -0.51563,1.90625 -1.90625,2.96875 -1.39063,1.04687 -3.5625,1.04687 -2.73438,0 -4.34375,-1.67187 -1.59375,-1.6875 -1.59375,-4.73438 0,-3.14062 1.60937,-4.875 1.625,-1.73437 4.20313,-1.73437 2.5,0 4.07812,1.70312 1.59375,1.70313 1.59375,4.78125 0,0.1875 -0.0156,0.5625 h -9.28125 q 0.10937,2.04688 1.15625,3.14063 1.04687,1.09375 2.60937,1.09375 1.15625,0 1.96875,-0.60938 0.82813,-0.60937 1.3125,-1.95312 z m -6.9375,-3.40625 h 6.95313 q -0.14063,-1.5625 -0.79688,-2.35938 -1,-1.21875 -2.60937,-1.21875 -1.45313,0 -2.45313,0.98438 -0.98437,0.96875 -1.09375,2.59375 z m 2.28125,-6.57813 1.54688,-3.28125 h 2.76562 l -2.57812,3.28125 z m 8.62891,10.28125 2.09375,-0.32812 q 0.17188,1.25 0.96875,1.92187 0.8125,0.67188 2.25,0.67188 1.45313,0 2.15625,-0.59375 0.70313,-0.59375 0.70313,-1.39063 0,-0.71875 -0.625,-1.125 -0.42188,-0.28125 -2.15625,-0.71875 -2.3125,-0.57812 -3.21875,-1 -0.89063,-0.4375 -1.35938,-1.1875 -0.45312,-0.76562 -0.45312,-1.67187 0,-0.82813 0.375,-1.53125 0.39062,-0.71875 1.04687,-1.1875 0.48438,-0.35938 1.32813,-0.60938 0.85937,-0.26562 1.82812,-0.26562 1.46875,0 2.57813,0.42187 1.10937,0.42188 1.625,1.15625 0.53125,0.71875 0.73437,1.92188 l -2.0625,0.28125 q -0.14062,-0.96875 -0.8125,-1.5 -0.67187,-0.54688 -1.90625,-0.54688 -1.45312,0 -2.07812,0.48438 -0.625,0.48437 -0.625,1.125 0,0.40625 0.26562,0.73437 0.25,0.34375 0.8125,0.5625 0.3125,0.125 1.85938,0.54688 2.23437,0.59375 3.10937,0.98437 0.89063,0.375 1.39063,1.10938 0.51562,0.71875 0.51562,1.79687 0,1.04688 -0.625,1.98438 -0.60937,0.9375 -1.76562,1.45312 -1.15625,0.5 -2.625,0.5 -2.42188,0 -3.70313,-1 -1.26562,-1.01562 -1.625,-3 z m 21.375,-0.29687 2.17188,0.28125 q -0.51563,1.90625 -1.90625,2.96875 -1.39063,1.04687 -3.5625,1.04687 -2.73438,0 -4.34375,-1.67187 -1.59375,-1.6875 -1.59375,-4.73438 0,-3.14062 1.60937,-4.875 1.625,-1.73437 4.20313,-1.73437 2.5,0 4.07812,1.70312 1.59375,1.70313 1.59375,4.78125 0,0.1875 -0.0156,0.5625 h -9.28125 q 0.10937,2.04688 1.15625,3.14063 1.04687,1.09375 2.60937,1.09375 1.15625,0 1.96875,-0.60938 0.82813,-0.60937 1.3125,-1.95312 z m -6.9375,-3.40625 h 6.95313 q -0.14063,-1.5625 -0.79688,-2.35938 -1,-1.21875 -2.60937,-1.21875 -1.45313,0 -2.45313,0.98438 -0.98437,0.96875 -1.09375,2.59375 z m 19.87891,5.89062 q -1.17188,0.98438 -2.26563,1.40625 -1.07812,0.40625 -2.3125,0.40625 -2.04687,0 -3.15625,-1 -1.09375,-1 -1.09375,-2.5625 0,-0.92187 0.40625,-1.67187 0.42188,-0.75 1.09375,-1.20313 0.67188,-0.46875 1.51563,-0.70312 0.625,-0.15625 1.875,-0.3125 2.5625,-0.3125 3.76562,-0.73438 0.0156,-0.42187 0.0156,-0.54687 0,-1.28125 -0.60938,-1.8125 -0.79687,-0.71875 -2.39062,-0.71875 -1.5,0 -2.20313,0.53125 -0.70312,0.51562 -1.04687,1.84375 l -2.0625,-0.28125 q 0.28125,-1.32813 0.92187,-2.14063 0.64063,-0.8125 1.85938,-1.25 1.21875,-0.45312 2.82812,-0.45312 1.59375,0 2.59375,0.375 1,0.375 1.46875,0.95312 0.46875,0.5625 0.65625,1.4375 0.0938,0.53125 0.0938,1.9375 v 2.8125 q 0,2.9375 0.14063,3.71875 0.14062,0.78125 0.53125,1.5 h -2.20313 q -0.32812,-0.65625 -0.42187,-1.53125 z m -0.17188,-4.71875 q -1.15625,0.46875 -3.45312,0.79688 -1.29688,0.1875 -1.84375,0.42187 -0.53125,0.23438 -0.82813,0.6875 -0.28125,0.45313 -0.28125,1 0,0.84375 0.625,1.40625 0.64063,0.5625 1.875,0.5625 1.21875,0 2.17188,-0.53125 0.95312,-0.53125 1.39062,-1.45312 0.34375,-0.71875 0.34375,-2.10938 z m 13.55078,6.25 v -1.82812 q -1.45312,2.10937 -3.9375,2.10937 -1.10937,0 -2.0625,-0.42187 -0.95312,-0.42188 -1.42187,-1.0625 -0.45313,-0.64063 -0.64063,-1.5625 -0.14062,-0.625 -0.14062,-1.96875 v -7.71875 h 2.10937 v 6.90625 q 0,1.65625 0.14063,2.23437 0.1875,0.82813 0.82812,1.3125 0.65625,0.46875 1.60938,0.46875 0.9375,0 1.76562,-0.48437 0.84375,-0.5 1.1875,-1.32813 0.34375,-0.84375 0.34375,-2.4375 v -6.67187 h 2.10938 V 406.372 Z m 3.78516,0 4.54687,-6.46875 -4.20312,-5.98437 h 2.64062 l 1.90625,2.92187 q 0.54688,0.82813 0.875,1.39063 0.51563,-0.76563 0.9375,-1.35938 l 2.10938,-2.95312 h 2.51562 l -4.29687,5.85937 4.625,6.59375 h -2.59375 l -2.54688,-3.875 -0.6875,-1.03125 -3.26562,4.90625 z" />
  <path
     style="fill:#f3f3f3;fill-rule:evenodd"
     inkscape:connector-curvature="0"
     id="path4709"
     d="M 372.9134,158.58267 H 587.08662 V 296.81891 H 372.9134 Z" />
  <path
     style="fill-rule:evenodd;stroke:#000000;stroke-width:1;stroke-linecap:butt;stroke-linejoin:round"
     inkscape:connector-curvature="0"
     id="path4711"
     d="M 372.9134,158.58267 H 587.08662 V 296.81891 H 372.9134 Z" />
  <path
     style="fill:#000000;fill-rule:nonzero"
     inkscape:connector-curvature="0"
     id="path4713"
     d="m 428.2168,226.50641 v -17.21875 h 1.92187 v 1.625 q 0.6875,-0.95313 1.53125,-1.42188 0.85938,-0.48437 2.07813,-0.48437 1.59375,0 2.8125,0.82812 1.21875,0.8125 1.84375,2.3125 0.625,1.5 0.625,3.28125 0,1.90625 -0.6875,3.4375 -0.6875,1.53125 -2,2.34375 -1.29688,0.8125 -2.73438,0.8125 -1.0625,0 -1.90625,-0.4375 -0.82812,-0.45312 -1.375,-1.14062 v 6.0625 z m 1.92187,-10.92188 q 0,2.40625 0.96875,3.5625 0.96875,1.14063 2.35938,1.14063 1.40625,0 2.40625,-1.1875 1,-1.1875 1,-3.6875 0,-2.375 -0.98438,-3.5625 -0.96875,-1.1875 -2.32812,-1.1875 -1.35938,0 -2.39063,1.26562 -1.03125,1.25 -1.03125,3.65625 z m 11.37891,6.15625 v -17.1875 h 2.10938 v 17.1875 z m 13.50391,-1.53125 q -1.17188,0.98438 -2.26563,1.40625 -1.07812,0.40625 -2.3125,0.40625 -2.04687,0 -3.15625,-1 -1.09375,-1 -1.09375,-2.5625 0,-0.92187 0.40625,-1.67187 0.42188,-0.75 1.09375,-1.20313 0.67188,-0.46875 1.51563,-0.70312 0.625,-0.15625 1.875,-0.3125 2.5625,-0.3125 3.76562,-0.73438 0.0156,-0.42187 0.0156,-0.54687 0,-1.28125 -0.60938,-1.8125 -0.79687,-0.71875 -2.39062,-0.71875 -1.5,0 -2.20313,0.53125 -0.70312,0.51562 -1.04687,1.84375 l -2.0625,-0.28125 q 0.28125,-1.32813 0.92187,-2.14063 0.64063,-0.8125 1.85938,-1.25 1.21875,-0.45312 2.82812,-0.45312 1.59375,0 2.59375,0.375 1,0.375 1.46875,0.95312 0.46875,0.5625 0.65625,1.4375 0.0938,0.53125 0.0938,1.9375 v 2.8125 q 0,2.9375 0.14063,3.71875 0.14062,0.78125 0.53125,1.5 h -2.20313 q -0.32812,-0.65625 -0.42187,-1.53125 z m -0.17188,-4.71875 q -1.15625,0.46875 -3.45312,0.79688 -1.29688,0.1875 -1.84375,0.42187 -0.53125,0.23438 -0.82813,0.6875 -0.28125,0.45313 -0.28125,1 0,0.84375 0.625,1.40625 0.64063,0.5625 1.875,0.5625 1.21875,0 2.17188,-0.53125 0.95312,-0.53125 1.39062,-1.45312 0.34375,-0.71875 0.34375,-2.10938 z m 10.00391,4.35938 0.3125,1.85937 q -0.89063,0.20313 -1.59375,0.20313 -1.15625,0 -1.79688,-0.35938 -0.625,-0.375 -0.89062,-0.96875 -0.25,-0.59375 -0.25,-2.48437 v -7.17188 h -1.54688 v -1.64062 h 1.54688 v -3.07813 l 2.09375,-1.26562 v 4.34375 h 2.125 v 1.64062 h -2.125 v 7.28125 q 0,0.90625 0.10937,1.17188 0.125,0.25 0.375,0.40625 0.25,0.14062 0.71875,0.14062 0.34375,0 0.92188,-0.0781 z m 10.58984,-2.125 2.17188,0.28125 q -0.51563,1.90625 -1.90625,2.96875 -1.39063,1.04687 -3.5625,1.04687 -2.73438,0 -4.34375,-1.67187 -1.59375,-1.6875 -1.59375,-4.73438 0,-3.14062 1.60937,-4.875 1.625,-1.73437 4.20313,-1.73437 2.5,0 4.07812,1.70312 1.59375,1.70313 1.59375,4.78125 0,0.1875 -0.0156,0.5625 h -9.28125 q 0.10937,2.04688 1.15625,3.14063 1.04687,1.09375 2.60937,1.09375 1.15625,0 1.96875,-0.60938 0.82813,-0.60937 1.3125,-1.95312 z m -6.9375,-3.40625 h 6.95313 q -0.14063,-1.5625 -0.79688,-2.35938 -1,-1.21875 -2.60937,-1.21875 -1.45313,0 -2.45313,0.98438 -0.98437,0.96875 -1.09375,2.59375 z m 12.26953,7.42187 v -10.8125 h -1.875 v -1.64062 h 1.875 v -1.3125 q 0,-1.26563 0.21875,-1.875 0.29688,-0.8125 1.0625,-1.3125 0.78125,-0.51563 2.15625,-0.51563 0.89063,0 1.96875,0.20313 l -0.3125,1.84375 q -0.65625,-0.125 -1.25,-0.125 -0.95312,0 -1.35937,0.42187 -0.39063,0.40625 -0.39063,1.53125 v 1.14063 h 2.42188 v 1.64062 h -2.42188 v 10.8125 z m 5.3711,-6.21875 q 0,-3.46875 1.92187,-5.125 1.60938,-1.39062 3.92188,-1.39062 2.5625,0 4.1875,1.6875 1.625,1.6875 1.625,4.64062 0,2.40625 -0.71875,3.78125 -0.71875,1.375 -2.09375,2.14063 -1.375,0.76562 -3,0.76562 -2.625,0 -4.23438,-1.67187 -1.60937,-1.6875 -1.60937,-4.82813 z m 2.17187,0 q 0,2.39063 1.03125,3.57813 1.04688,1.1875 2.64063,1.1875 1.5625,0 2.60937,-1.1875 1.04688,-1.20313 1.04688,-3.65625 0,-2.3125 -1.0625,-3.5 -1.04688,-1.1875 -2.59375,-1.1875 -1.59375,0 -2.64063,1.1875 -1.03125,1.1875 -1.03125,3.57812 z m 11.94141,6.21875 v -12.45312 h 1.89062 v 1.89062 q 0.73438,-1.32812 1.34375,-1.75 0.625,-0.42187 1.35938,-0.42187 1.0625,0 2.17187,0.6875 l -0.73437,1.95312 q -0.76563,-0.45312 -1.54688,-0.45312 -0.6875,0 -1.25,0.42187 -0.54687,0.40625 -0.78125,1.14063 -0.34375,1.125 -0.34375,2.46875 v 6.51562 z m 8.00781,0 v -12.45312 h 1.89063 v 1.75 q 0.59375,-0.90625 1.5625,-1.46875 0.96875,-0.5625 2.21875,-0.5625 1.375,0 2.25,0.57812 0.89062,0.57813 1.26562,1.60938 1.46875,-2.1875 3.84375,-2.1875 1.84375,0 2.84375,1.03125 1,1.03125 1,3.15625 v 8.54687 h -2.10937 v -7.84375 q 0,-1.26562 -0.20313,-1.8125 -0.20312,-0.5625 -0.75,-0.90625 -0.53125,-0.34375 -1.25,-0.34375 -1.3125,0 -2.1875,0.875 -0.85937,0.875 -0.85937,2.79688 v 7.23437 h -2.10938 v -8.09375 q 0,-1.40625 -0.51562,-2.10937 -0.51563,-0.70313 -1.6875,-0.70313 -0.89063,0 -1.65625,0.46875 -0.75,0.46875 -1.09375,1.375 -0.34375,0.90625 -0.34375,2.60938 v 6.45312 z m 28.52344,-4.01562 2.17187,0.28125 q -0.51562,1.90625 -1.90625,2.96875 -1.39062,1.04687 -3.5625,1.04687 -2.73437,0 -4.34375,-1.67187 -1.59375,-1.6875 -1.59375,-4.73438 0,-3.14062 1.60938,-4.875 1.625,-1.73437 4.20312,-1.73437 2.5,0 4.07813,1.70312 1.59375,1.70313 1.59375,4.78125 0,0.1875 -0.0156,0.5625 h -9.28125 q 0.10938,2.04688 1.15625,3.14063 1.04688,1.09375 2.60938,1.09375 1.15625,0 1.96875,-0.60938 0.82812,-0.60937 1.3125,-1.95312 z m -6.9375,-3.40625 h 6.95312 q -0.14062,-1.5625 -0.79687,-2.35938 -1,-1.21875 -2.60938,-1.21875 -1.45312,0 -2.45312,0.98438 -0.98438,0.96875 -1.09375,2.59375 z" />
  <path
     style="fill:#000000;fill-rule:nonzero"
     inkscape:connector-curvature="0"
     id="path4715"
     d="m 401.60156,250.74078 v -1.57812 q -1.1875,1.85937 -3.48437,1.85937 -1.48438,0 -2.73438,-0.8125 -1.25,-0.82812 -1.9375,-2.29687 -0.67187,-1.46875 -0.67187,-3.39063 0,-1.85937 0.60937,-3.375 0.625,-1.51562 1.85938,-2.32812 1.25,-0.8125 2.78125,-0.8125 1.125,0 2,0.48437 0.89062,0.46875 1.4375,1.23438 v -6.17188 h 2.09375 v 17.1875 z m -6.67187,-6.21875 q 0,2.39063 1,3.57813 1.01562,1.1875 2.39062,1.1875 1.39063,0 2.34375,-1.125 0.96875,-1.14063 0.96875,-3.45313 0,-2.5625 -0.98437,-3.75 -0.98438,-1.20312 -2.42188,-1.20312 -1.40625,0 -2.35937,1.15625 -0.9375,1.14062 -0.9375,3.60937 z m 11.8164,-8.6875 v -2.45312 h 2.26563 v 1.9375 q 0,1.5625 -0.35938,2.26562 -0.51562,0.9375 -1.57812,1.42188 l -0.51563,-0.82813 q 0.64063,-0.26562 0.9375,-0.8125 0.3125,-0.5625 0.35938,-1.53125 z m 5.47266,0.15625 v -2.4375 h 2.10937 v 2.4375 z m 0,14.75 v -12.45312 h 2.10937 v 12.45312 z m 5.3164,0 v -12.45312 h 1.90625 v 1.78125 q 1.375,-2.0625 3.95313,-2.0625 1.125,0 2.0625,0.40625 0.95312,0.40625 1.42187,1.0625 0.46875,0.65625 0.65625,1.5625 0.125,0.57812 0.125,2.04687 v 7.65625 h -2.10937 v -7.57812 q 0,-1.28125 -0.25,-1.92188 -0.25,-0.64062 -0.875,-1.01562 -0.625,-0.39063 -1.46875,-0.39063 -1.34375,0 -2.32813,0.85938 -0.98437,0.85937 -0.98437,3.25 v 6.79687 z m 17.95703,-1.89062 0.3125,1.85937 q -0.89062,0.20313 -1.59375,0.20313 -1.15625,0 -1.79687,-0.35938 -0.625,-0.375 -0.89063,-0.96875 -0.25,-0.59375 -0.25,-2.48437 v -7.17188 h -1.54687 v -1.64062 h 1.54687 v -3.07813 l 2.09375,-1.26562 v 4.34375 h 2.125 v 1.64062 h -2.125 v 7.28125 q 0,0.90625 0.10938,1.17188 0.125,0.25 0.375,0.40625 0.25,0.14062 0.71875,0.14062 0.34375,0 0.92187,-0.0781 z m 10.58985,-2.125 2.17187,0.28125 q -0.51562,1.90625 -1.90625,2.96875 -1.39062,1.04687 -3.5625,1.04687 -2.73437,0 -4.34375,-1.67187 -1.59375,-1.6875 -1.59375,-4.73438 0,-3.14062 1.60938,-4.875 1.625,-1.73437 4.20312,-1.73437 2.5,0 4.07813,1.70312 1.59375,1.70313 1.59375,4.78125 0,0.1875 -0.0156,0.5625 h -9.28125 q 0.10938,2.04688 1.15625,3.14063 1.04688,1.09375 2.60938,1.09375 1.15625,0 1.96875,-0.60938 0.82812,-0.60937 1.3125,-1.95312 z m -6.9375,-3.40625 h 6.95312 q -0.14062,-1.5625 -0.79687,-2.35938 -1,-1.21875 -2.60938,-1.21875 -1.45312,0 -2.45312,0.98438 -0.98438,0.96875 -1.09375,2.59375 z m 11.73828,7.42187 v -12.45312 h 1.89062 v 1.89062 q 0.73438,-1.32812 1.34375,-1.75 0.625,-0.42187 1.35938,-0.42187 1.0625,0 2.17187,0.6875 l -0.73437,1.95312 q -0.76563,-0.45312 -1.54688,-0.45312 -0.6875,0 -1.25,0.42187 -0.54687,0.40625 -0.78125,1.14063 -0.34375,1.125 -0.34375,2.46875 v 6.51562 z m 7.22656,-6.21875 q 0,-3.46875 1.92188,-5.125 1.60937,-1.39062 3.92187,-1.39062 2.5625,0 4.1875,1.6875 1.625,1.6875 1.625,4.64062 0,2.40625 -0.71875,3.78125 -0.71875,1.375 -2.09375,2.14063 -1.375,0.76562 -3,0.76562 -2.625,0 -4.23437,-1.67187 -1.60938,-1.6875 -1.60938,-4.82813 z m 2.17188,0 q 0,2.39063 1.03125,3.57813 1.04687,1.1875 2.64062,1.1875 1.5625,0 2.60938,-1.1875 1.04687,-1.20313 1.04687,-3.65625 0,-2.3125 -1.0625,-3.5 -1.04687,-1.1875 -2.59375,-1.1875 -1.59375,0 -2.64062,1.1875 -1.03125,1.1875 -1.03125,3.57812 z m 11.95703,10.98438 v -17.21875 h 1.92187 v 1.625 q 0.6875,-0.95313 1.53125,-1.42188 0.85938,-0.48437 2.07813,-0.48437 1.59375,0 2.8125,0.82812 1.21875,0.8125 1.84375,2.3125 0.625,1.5 0.625,3.28125 0,1.90625 -0.6875,3.4375 -0.6875,1.53125 -2,2.34375 -1.29688,0.8125 -2.73438,0.8125 -1.0625,0 -1.90625,-0.4375 -0.82812,-0.45312 -1.375,-1.14062 v 6.0625 z m 1.92187,-10.92188 q 0,2.40625 0.96875,3.5625 0.96875,1.14063 2.35938,1.14063 1.40625,0 2.40625,-1.1875 1,-1.1875 1,-3.6875 0,-2.375 -0.98438,-3.5625 -0.96875,-1.1875 -2.32812,-1.1875 -1.35938,0 -2.39063,1.26562 -1.03125,1.25 -1.03125,3.65625 z m 19.95703,2.14063 2.17188,0.28125 q -0.51563,1.90625 -1.90625,2.96875 -1.39063,1.04687 -3.5625,1.04687 -2.73438,0 -4.34375,-1.67187 -1.59375,-1.6875 -1.59375,-4.73438 0,-3.14062 1.60937,-4.875 1.625,-1.73437 4.20313,-1.73437 2.5,0 4.07812,1.70312 1.59375,1.70313 1.59375,4.78125 0,0.1875 -0.0156,0.5625 h -9.28125 q 0.10937,2.04688 1.15625,3.14063 1.04687,1.09375 2.60937,1.09375 1.15625,0 1.96875,-0.60938 0.82813,-0.60937 1.3125,-1.95312 z m -6.9375,-3.40625 h 6.95313 q -0.14063,-1.5625 -0.79688,-2.35938 -1,-1.21875 -2.60937,-1.21875 -1.45313,0 -2.45313,0.98438 -0.98437,0.96875 -1.09375,2.59375 z m 2.28125,-6.57813 1.54688,-3.28125 h 2.76562 l -2.57812,3.28125 z m 9.45703,14 v -12.45312 h 1.89063 v 1.89062 q 0.73437,-1.32812 1.34375,-1.75 0.625,-0.42187 1.35937,-0.42187 1.0625,0 2.17188,0.6875 l -0.73438,1.95312 q -0.76562,-0.45312 -1.54687,-0.45312 -0.6875,0 -1.25,0.42187 -0.54688,0.40625 -0.78125,1.14063 -0.34375,1.125 -0.34375,2.46875 v 6.51562 z m 16.13282,-1.53125 q -1.17188,0.98438 -2.26563,1.40625 -1.07812,0.40625 -2.3125,0.40625 -2.04687,0 -3.15625,-1 -1.09375,-1 -1.09375,-2.5625 0,-0.92187 0.40625,-1.67187 0.42188,-0.75 1.09375,-1.20313 0.67188,-0.46875 1.51563,-0.70312 0.625,-0.15625 1.875,-0.3125 2.5625,-0.3125 3.76562,-0.73438 0.0156,-0.42187 0.0156,-0.54687 0,-1.28125 -0.60938,-1.8125 -0.79687,-0.71875 -2.39062,-0.71875 -1.5,0 -2.20313,0.53125 -0.70312,0.51562 -1.04687,1.84375 l -2.0625,-0.28125 q 0.28125,-1.32813 0.92187,-2.14063 0.64063,-0.8125 1.85938,-1.25 1.21875,-0.45312 2.82812,-0.45312 1.59375,0 2.59375,0.375 1,0.375 1.46875,0.95312 0.46875,0.5625 0.65625,1.4375 0.0938,0.53125 0.0938,1.9375 v 2.8125 q 0,2.9375 0.14063,3.71875 0.14062,0.78125 0.53125,1.5 h -2.20313 q -0.32812,-0.65625 -0.42187,-1.53125 z m -0.17188,-4.71875 q -1.15625,0.46875 -3.45312,0.79688 -1.29688,0.1875 -1.84375,0.42187 -0.53125,0.23438 -0.82813,0.6875 -0.28125,0.45313 -0.28125,1 0,0.84375 0.625,1.40625 0.64063,0.5625 1.875,0.5625 1.21875,0 2.17188,-0.53125 0.95312,-0.53125 1.39062,-1.45312 0.34375,-0.71875 0.34375,-2.10938 z m 7.34766,6.25 h -1.95313 v -17.1875 h 2.10938 v 6.14063 q 1.32812,-1.6875 3.40625,-1.6875 1.14062,0 2.17187,0.46875 1.03125,0.46875 1.6875,1.3125 0.65625,0.82812 1.03125,2.01562 0.375,1.17188 0.375,2.53125 0,3.1875 -1.57812,4.9375 -1.57813,1.75 -3.79688,1.75 -2.20312,0 -3.45312,-1.84375 z m -0.0312,-6.3125 q 0,2.23438 0.60937,3.23438 1,1.625 2.70313,1.625 1.375,0 2.375,-1.20313 1.01562,-1.20312 1.01562,-3.57812 0,-2.4375 -0.96875,-3.59375 -0.95312,-1.17188 -2.32812,-1.17188 -1.39063,0 -2.40625,1.20313 -1,1.20312 -1,3.48437 z m 11.4414,-8.4375 v -2.4375 h 2.10938 v 2.4375 z m 0,14.75 v -12.45312 h 2.10938 v 12.45312 z m 5.26954,0 v -17.1875 h 2.10937 v 17.1875 z m 5.39453,-14.75 v -2.4375 h 2.10937 v 2.4375 z m 0,14.75 v -12.45312 h 2.10937 v 12.45312 z m 9.92578,-1.89062 0.3125,1.85937 q -0.89063,0.20313 -1.59375,0.20313 -1.15625,0 -1.79688,-0.35938 -0.625,-0.375 -0.89062,-0.96875 -0.25,-0.59375 -0.25,-2.48437 v -7.17188 h -1.54688 v -1.64062 h 1.54688 v -3.07813 l 2.09375,-1.26562 v 4.34375 h 2.125 v 1.64062 h -2.125 v 7.28125 q 0,0.90625 0.10937,1.17188 0.125,0.25 0.375,0.40625 0.25,0.14062 0.71875,0.14062 0.34375,0 0.92188,-0.0781 z m 10.58984,-2.125 2.17188,0.28125 q -0.51563,1.90625 -1.90625,2.96875 -1.39063,1.04687 -3.5625,1.04687 -2.73438,0 -4.34375,-1.67187 -1.59375,-1.6875 -1.59375,-4.73438 0,-3.14062 1.60937,-4.875 1.625,-1.73437 4.20313,-1.73437 2.5,0 4.07812,1.70312 1.59375,1.70313 1.59375,4.78125 0,0.1875 -0.0156,0.5625 h -9.28125 q 0.10937,2.04688 1.15625,3.14063 1.04687,1.09375 2.60937,1.09375 1.15625,0 1.96875,-0.60938 0.82813,-0.60937 1.3125,-1.95312 z m -6.9375,-3.40625 h 6.95313 q -0.14063,-1.5625 -0.79688,-2.35938 -1,-1.21875 -2.60937,-1.21875 -1.45313,0 -2.45313,0.98438 -0.98437,0.96875 -1.09375,2.59375 z m 2.28125,-6.57813 1.54688,-3.28125 h 2.76562 l -2.57812,3.28125 z" />
  <path
     style="fill:#f3f3f3;fill-rule:evenodd"
     inkscape:connector-curvature="0"
     id="path4717"
     d="M 606.8845,158.58267 H 821.05772 V 296.81891 H 606.8845 Z" />
  <path
     style="fill-rule:evenodd;stroke:#000000;stroke-width:1;stroke-linecap:butt;stroke-linejoin:round"
     inkscape:connector-curvature="0"
     id="path4719"
     d="M 606.8845,158.58267 H 821.05772 V 296.81891 H 606.8845 Z" />
  <path
     style="fill:#000000;fill-rule:nonzero"
     inkscape:connector-curvature="0"
     id="path4721"
     d="m 630.35394,221.74078 v -17.1875 h 2.26562 v 15.15625 h 8.46875 v 2.03125 z m 21.69141,-4.01562 2.17187,0.28125 q -0.51562,1.90625 -1.90625,2.96875 -1.39062,1.04687 -3.5625,1.04687 -2.73437,0 -4.34375,-1.67187 -1.59375,-1.6875 -1.59375,-4.73438 0,-3.14062 1.60938,-4.875 1.625,-1.73437 4.20312,-1.73437 2.5,0 4.07813,1.70312 1.59375,1.70313 1.59375,4.78125 0,0.1875 -0.0156,0.5625 h -9.28125 q 0.10938,2.04688 1.15625,3.14063 1.04688,1.09375 2.60938,1.09375 1.15625,0 1.96875,-0.60938 0.82812,-0.60937 1.3125,-1.95312 z m -6.9375,-3.40625 h 6.95312 q -0.14062,-1.5625 -0.79687,-2.35938 -1,-1.21875 -2.60938,-1.21875 -1.45312,0 -2.45312,0.98438 -0.98438,0.96875 -1.09375,2.59375 z m 10.91015,3.70312 2.09375,-0.32812 q 0.17188,1.25 0.96875,1.92187 0.8125,0.67188 2.25,0.67188 1.45313,0 2.15625,-0.59375 0.70313,-0.59375 0.70313,-1.39063 0,-0.71875 -0.625,-1.125 -0.42188,-0.28125 -2.15625,-0.71875 -2.3125,-0.57812 -3.21875,-1 -0.89063,-0.4375 -1.35938,-1.1875 -0.45312,-0.76562 -0.45312,-1.67187 0,-0.82813 0.375,-1.53125 0.39062,-0.71875 1.04687,-1.1875 0.48438,-0.35938 1.32813,-0.60938 0.85937,-0.26562 1.82812,-0.26562 1.46875,0 2.57813,0.42187 1.10937,0.42188 1.625,1.15625 0.53125,0.71875 0.73437,1.92188 l -2.0625,0.28125 q -0.14062,-0.96875 -0.8125,-1.5 -0.67187,-0.54688 -1.90625,-0.54688 -1.45312,0 -2.07812,0.48438 -0.625,0.48437 -0.625,1.125 0,0.40625 0.26562,0.73437 0.25,0.34375 0.8125,0.5625 0.3125,0.125 1.85938,0.54688 2.23437,0.59375 3.10937,0.98437 0.89063,0.375 1.39063,1.10938 0.51562,0.71875 0.51562,1.79687 0,1.04688 -0.625,1.98438 -0.60937,0.9375 -1.76562,1.45312 -1.15625,0.5 -2.625,0.5 -2.42188,0 -3.70313,-1 -1.26562,-1.01562 -1.625,-3 z m 28.04297,-0.29687 2.17188,0.28125 q -0.51563,1.90625 -1.90625,2.96875 -1.39063,1.04687 -3.5625,1.04687 -2.73438,0 -4.34375,-1.67187 -1.59375,-1.6875 -1.59375,-4.73438 0,-3.14062 1.60937,-4.875 1.625,-1.73437 4.20313,-1.73437 2.5,0 4.07812,1.70312 1.59375,1.70313 1.59375,4.78125 0,0.1875 -0.0156,0.5625 h -9.28125 q 0.10937,2.04688 1.15625,3.14063 1.04687,1.09375 2.60937,1.09375 1.15625,0 1.96875,-0.60938 0.82813,-0.60937 1.3125,-1.95312 z m -6.9375,-3.40625 h 6.95313 q -0.14063,-1.5625 -0.79688,-2.35938 -1,-1.21875 -2.60937,-1.21875 -1.45313,0 -2.45313,0.98438 -0.98437,0.96875 -1.09375,2.59375 z m 2.28125,-6.57813 1.54688,-3.28125 h 2.76562 l -2.57812,3.28125 z m 17.59766,9.4375 2.07812,0.26563 q -0.34375,2.15625 -1.75,3.375 -1.39062,1.20312 -3.4375,1.20312 -2.54687,0 -4.10937,-1.67187 -1.54688,-1.67188 -1.54688,-4.78125 0,-2.01563 0.67188,-3.53125 0.67187,-1.51563 2.03125,-2.26563 1.35937,-0.76562 2.96875,-0.76562 2.03125,0 3.3125,1.03125 1.29687,1.03125 1.65625,2.90625 l -2.04688,0.32812 q -0.29687,-1.26562 -1.04687,-1.89062 -0.73438,-0.64063 -1.79688,-0.64063 -1.59375,0 -2.59375,1.15625 -0.98437,1.14063 -0.98437,3.60938 0,2.5 0.95312,3.64062 0.96875,1.14063 2.51563,1.14063 1.23437,0 2.0625,-0.76563 0.84375,-0.76562 1.0625,-2.34375 z m 3.85937,4.5625 v -12.45312 h 1.89063 v 1.89062 q 0.73437,-1.32812 1.34375,-1.75 0.625,-0.42187 1.35937,-0.42187 1.0625,0 2.17188,0.6875 l -0.73438,1.95312 q -0.76562,-0.45312 -1.54687,-0.45312 -0.6875,0 -1.25,0.42187 -0.54688,0.40625 -0.78125,1.14063 -0.34375,1.125 -0.34375,2.46875 v 6.51562 z m 16.13281,-1.53125 q -1.17187,0.98438 -2.26562,1.40625 -1.07813,0.40625 -2.3125,0.40625 -2.04688,0 -3.15625,-1 -1.09375,-1 -1.09375,-2.5625 0,-0.92187 0.40625,-1.67187 0.42187,-0.75 1.09375,-1.20313 0.67187,-0.46875 1.51562,-0.70312 0.625,-0.15625 1.875,-0.3125 2.5625,-0.3125 3.76563,-0.73438 0.0156,-0.42187 0.0156,-0.54687 0,-1.28125 -0.60937,-1.8125 -0.79688,-0.71875 -2.39063,-0.71875 -1.5,0 -2.20312,0.53125 -0.70313,0.51562 -1.04688,1.84375 l -2.0625,-0.28125 q 0.28125,-1.32813 0.92188,-2.14063 0.64062,-0.8125 1.85937,-1.25 1.21875,-0.45312 2.82813,-0.45312 1.59375,0 2.59375,0.375 1,0.375 1.46875,0.95312 0.46875,0.5625 0.65625,1.4375 0.0938,0.53125 0.0938,1.9375 v 2.8125 q 0,2.9375 0.14062,3.71875 0.14063,0.78125 0.53125,1.5 h -2.20312 q -0.32813,-0.65625 -0.42188,-1.53125 z m -0.17187,-4.71875 q -1.15625,0.46875 -3.45313,0.79688 -1.29687,0.1875 -1.84375,0.42187 -0.53125,0.23438 -0.82812,0.6875 -0.28125,0.45313 -0.28125,1 0,0.84375 0.625,1.40625 0.64062,0.5625 1.875,0.5625 1.21875,0 2.17187,-0.53125 0.95313,-0.53125 1.39063,-1.45312 0.34375,-0.71875 0.34375,-2.10938 z m 5.39453,6.25 v -12.45312 h 1.90625 v 1.78125 q 1.375,-2.0625 3.95313,-2.0625 1.125,0 2.0625,0.40625 0.95312,0.40625 1.42187,1.0625 0.46875,0.65625 0.65625,1.5625 0.125,0.57812 0.125,2.04687 v 7.65625 h -2.10937 v -7.57812 q 0,-1.28125 -0.25,-1.92188 -0.25,-0.64062 -0.875,-1.01562 -0.625,-0.39063 -1.46875,-0.39063 -1.34375,0 -2.32813,0.85938 -0.98437,0.85937 -0.98437,3.25 v 6.79687 z m 12.50391,-3.71875 2.09375,-0.32812 q 0.17187,1.25 0.96875,1.92187 0.8125,0.67188 2.25,0.67188 1.45312,0 2.15625,-0.59375 0.70312,-0.59375 0.70312,-1.39063 0,-0.71875 -0.625,-1.125 -0.42187,-0.28125 -2.15625,-0.71875 -2.3125,-0.57812 -3.21875,-1 -0.89062,-0.4375 -1.35937,-1.1875 -0.45313,-0.76562 -0.45313,-1.67187 0,-0.82813 0.375,-1.53125 0.39063,-0.71875 1.04688,-1.1875 0.48437,-0.35938 1.32812,-0.60938 0.85938,-0.26562 1.82813,-0.26562 1.46875,0 2.57812,0.42187 1.10938,0.42188 1.625,1.15625 0.53125,0.71875 0.73438,1.92188 l -2.0625,0.28125 q -0.14063,-0.96875 -0.8125,-1.5 -0.67188,-0.54688 -1.90625,-0.54688 -1.45313,0 -2.07813,0.48438 -0.625,0.48437 -0.625,1.125 0,0.40625 0.26563,0.73437 0.25,0.34375 0.8125,0.5625 0.3125,0.125 1.85937,0.54688 2.23438,0.59375 3.10938,0.98437 0.89062,0.375 1.39062,1.10938 0.51563,0.71875 0.51563,1.79687 0,1.04688 -0.625,1.98438 -0.60938,0.9375 -1.76563,1.45312 -1.15625,0.5 -2.625,0.5 -2.42187,0 -3.70312,-1 -1.26563,-1.01562 -1.625,-3 z m 28.04297,-0.29687 2.17187,0.28125 q -0.51562,1.90625 -1.90625,2.96875 -1.39062,1.04687 -3.5625,1.04687 -2.73437,0 -4.34375,-1.67187 -1.59375,-1.6875 -1.59375,-4.73438 0,-3.14062 1.60938,-4.875 1.625,-1.73437 4.20312,-1.73437 2.5,0 4.07813,1.70312 1.59375,1.70313 1.59375,4.78125 0,0.1875 -0.0156,0.5625 h -9.28125 q 0.10938,2.04688 1.15625,3.14063 1.04688,1.09375 2.60938,1.09375 1.15625,0 1.96875,-0.60938 0.82812,-0.60937 1.3125,-1.95312 z m -6.9375,-3.40625 h 6.95312 q -0.14062,-1.5625 -0.79687,-2.35938 -1,-1.21875 -2.60938,-1.21875 -1.45312,0 -2.45312,0.98438 -0.98438,0.96875 -1.09375,2.59375 z m 16.36328,5.53125 0.3125,1.85937 q -0.89063,0.20313 -1.59375,0.20313 -1.15625,0 -1.79688,-0.35938 -0.625,-0.375 -0.89062,-0.96875 -0.25,-0.59375 -0.25,-2.48437 v -7.17188 h -1.54688 v -1.64062 h 1.54688 v -3.07813 l 2.09375,-1.26562 v 4.34375 h 2.125 v 1.64062 h -2.125 v 7.28125 q 0,0.90625 0.10937,1.17188 0.125,0.25 0.375,0.40625 0.25,0.14062 0.71875,0.14062 0.34375,0 0.92188,-0.0781 z m 17.25781,-2.125 2.17187,0.28125 q -0.51562,1.90625 -1.90625,2.96875 -1.39062,1.04687 -3.5625,1.04687 -2.73437,0 -4.34375,-1.67187 -1.59375,-1.6875 -1.59375,-4.73438 0,-3.14062 1.60938,-4.875 1.625,-1.73437 4.20312,-1.73437 2.5,0 4.07813,1.70312 1.59375,1.70313 1.59375,4.78125 0,0.1875 -0.0156,0.5625 h -9.28125 q 0.10938,2.04688 1.15625,3.14063 1.04688,1.09375 2.60938,1.09375 1.15625,0 1.96875,-0.60938 0.82812,-0.60937 1.3125,-1.95312 z m -6.9375,-3.40625 h 6.95312 q -0.14062,-1.5625 -0.79687,-2.35938 -1,-1.21875 -2.60938,-1.21875 -1.45312,0 -2.45312,0.98438 -0.98438,0.96875 -1.09375,2.59375 z m 16.36328,5.53125 0.3125,1.85937 q -0.89063,0.20313 -1.59375,0.20313 -1.15625,0 -1.79688,-0.35938 -0.625,-0.375 -0.89062,-0.96875 -0.25,-0.59375 -0.25,-2.48437 v -7.17188 h -1.54688 v -1.64062 h 1.54688 v -3.07813 l 2.09375,-1.26562 v 4.34375 h 2.125 v 1.64062 h -2.125 v 7.28125 q 0,0.90625 0.10937,1.17188 0.125,0.25 0.375,0.40625 0.25,0.14062 0.71875,0.14062 0.34375,0 0.92188,-0.0781 z" />
  <path
     style="fill:#000000;fill-rule:nonzero"
     inkscape:connector-curvature="0"
     id="path4723"
     d="m 674.19965,250.74078 v -12.45312 h 1.89063 v 1.75 q 0.59375,-0.90625 1.5625,-1.46875 0.96875,-0.5625 2.21875,-0.5625 1.375,0 2.25,0.57812 0.89062,0.57813 1.26562,1.60938 1.46875,-2.1875 3.84375,-2.1875 1.84375,0 2.84375,1.03125 1,1.03125 1,3.15625 v 8.54687 h -2.10937 v -7.84375 q 0,-1.26562 -0.20313,-1.8125 -0.20312,-0.5625 -0.75,-0.90625 -0.53125,-0.34375 -1.25,-0.34375 -1.3125,0 -2.1875,0.875 -0.85937,0.875 -0.85937,2.79688 v 7.23437 h -2.10938 v -8.09375 q 0,-1.40625 -0.51562,-2.10937 -0.51563,-0.70313 -1.6875,-0.70313 -0.89063,0 -1.65625,0.46875 -0.75,0.46875 -1.09375,1.375 -0.34375,0.90625 -0.34375,2.60938 v 6.45312 z m 19.21094,-6.21875 q 0,-3.46875 1.92187,-5.125 1.60938,-1.39062 3.92188,-1.39062 2.5625,0 4.1875,1.6875 1.625,1.6875 1.625,4.64062 0,2.40625 -0.71875,3.78125 -0.71875,1.375 -2.09375,2.14063 -1.375,0.76562 -3,0.76562 -2.625,0 -4.23438,-1.67187 -1.60937,-1.6875 -1.60937,-4.82813 z m 2.17187,0 q 0,2.39063 1.03125,3.57813 1.04688,1.1875 2.64063,1.1875 1.5625,0 2.60937,-1.1875 1.04688,-1.20313 1.04688,-3.65625 0,-2.3125 -1.0625,-3.5 -1.04688,-1.1875 -2.59375,-1.1875 -1.59375,0 -2.64063,1.1875 -1.03125,1.1875 -1.03125,3.57812 z m 13.91016,6.21875 h -1.95313 v -17.1875 h 2.10938 v 6.14063 q 1.32812,-1.6875 3.40625,-1.6875 1.14062,0 2.17187,0.46875 1.03125,0.46875 1.6875,1.3125 0.65625,0.82812 1.03125,2.01562 0.375,1.17188 0.375,2.53125 0,3.1875 -1.57812,4.9375 -1.57813,1.75 -3.79688,1.75 -2.20312,0 -3.45312,-1.84375 z m -0.0312,-6.3125 q 0,2.23438 0.60937,3.23438 1,1.625 2.70313,1.625 1.375,0 2.375,-1.20313 1.01562,-1.20312 1.01562,-3.57812 0,-2.4375 -0.96875,-3.59375 -0.95312,-1.17188 -2.32812,-1.17188 -1.39063,0 -2.40625,1.20313 -1,1.20312 -1,3.48437 z m 11.44141,-8.4375 v -2.4375 h 2.10937 v 2.4375 z m 0,14.75 v -12.45312 h 2.10937 v 12.45312 z m 5.26953,0 v -17.1875 h 2.10937 v 17.1875 z m 13.91015,-4.01562 2.17188,0.28125 q -0.51563,1.90625 -1.90625,2.96875 -1.39063,1.04687 -3.5625,1.04687 -2.73438,0 -4.34375,-1.67187 -1.59375,-1.6875 -1.59375,-4.73438 0,-3.14062 1.60937,-4.875 1.625,-1.73437 4.20313,-1.73437 2.5,0 4.07812,1.70312 1.59375,1.70313 1.59375,4.78125 0,0.1875 -0.0156,0.5625 h -9.28125 q 0.10937,2.04688 1.15625,3.14063 1.04687,1.09375 2.60937,1.09375 1.15625,0 1.96875,-0.60938 0.82813,-0.60937 1.3125,-1.95312 z m -6.9375,-3.40625 h 6.95313 q -0.14063,-1.5625 -0.79688,-2.35938 -1,-1.21875 -2.60937,-1.21875 -1.45313,0 -2.45313,0.98438 -0.98437,0.96875 -1.09375,2.59375 z m 10.91016,3.70312 2.09375,-0.32812 q 0.17187,1.25 0.96875,1.92187 0.8125,0.67188 2.25,0.67188 1.45312,0 2.15625,-0.59375 0.70312,-0.59375 0.70312,-1.39063 0,-0.71875 -0.625,-1.125 -0.42187,-0.28125 -2.15625,-0.71875 -2.3125,-0.57812 -3.21875,-1 -0.89062,-0.4375 -1.35937,-1.1875 -0.45313,-0.76562 -0.45313,-1.67187 0,-0.82813 0.375,-1.53125 0.39063,-0.71875 1.04688,-1.1875 0.48437,-0.35938 1.32812,-0.60938 0.85938,-0.26562 1.82813,-0.26562 1.46875,0 2.57812,0.42187 1.10938,0.42188 1.625,1.15625 0.53125,0.71875 0.73438,1.92188 l -2.0625,0.28125 q -0.14063,-0.96875 -0.8125,-1.5 -0.67188,-0.54688 -1.90625,-0.54688 -1.45313,0 -2.07813,0.48438 -0.625,0.48437 -0.625,1.125 0,0.40625 0.26563,0.73437 0.25,0.34375 0.8125,0.5625 0.3125,0.125 1.85937,0.54688 2.23438,0.59375 3.10938,0.98437 0.89062,0.375 1.39062,1.10938 0.51563,0.71875 0.51563,1.79687 0,1.04688 -0.625,1.98438 -0.60938,0.9375 -1.76563,1.45312 -1.15625,0.5 -2.625,0.5 -2.42187,0 -3.70312,-1 -1.26563,-1.01562 -1.625,-3 z" />
  <path
     style="fill:#f3f3f3;fill-rule:evenodd"
     inkscape:connector-curvature="0"
     id="path4725"
     d="M 129.71391,328.7139 H 548.35954 V 466.95014 H 129.71391 Z" />
  <path
     style="fill-rule:evenodd;stroke:#000000;stroke-width:1;stroke-linecap:butt;stroke-linejoin:round"
     inkscape:connector-curvature="0"
     id="path4727"
     d="M 129.71391,328.7139 H 548.35954 V 466.95014 H 129.71391 Z" />
  <path
     style="fill:#000000;fill-rule:nonzero"
     inkscape:connector-curvature="0"
     id="path4729"
     d="m 144.01526,406.372 v -17.1875 h 2.26563 v 15.15625 h 8.46875 v 2.03125 z m 21.69141,-4.01562 2.17187,0.28125 q -0.51562,1.90625 -1.90625,2.96875 -1.39062,1.04687 -3.5625,1.04687 -2.73437,0 -4.34375,-1.67187 -1.59375,-1.6875 -1.59375,-4.73438 0,-3.14062 1.60938,-4.875 1.625,-1.73437 4.20312,-1.73437 2.5,0 4.07813,1.70312 1.59375,1.70313 1.59375,4.78125 0,0.1875 -0.0156,0.5625 h -9.28125 q 0.10938,2.04688 1.15625,3.14063 1.04688,1.09375 2.60938,1.09375 1.15625,0 1.96875,-0.60938 0.82812,-0.60937 1.3125,-1.95312 z m -6.9375,-3.40625 h 6.95312 q -0.14062,-1.5625 -0.79687,-2.35938 -1,-1.21875 -2.60938,-1.21875 -1.45312,0 -2.45312,0.98438 -0.98438,0.96875 -1.09375,2.59375 z m 10.91015,3.70312 2.09375,-0.32812 q 0.17188,1.25 0.96875,1.92187 0.8125,0.67188 2.25,0.67188 1.45313,0 2.15625,-0.59375 0.70313,-0.59375 0.70313,-1.39063 0,-0.71875 -0.625,-1.125 -0.42188,-0.28125 -2.15625,-0.71875 -2.3125,-0.57812 -3.21875,-1 -0.89063,-0.4375 -1.35938,-1.1875 -0.45312,-0.76562 -0.45312,-1.67187 0,-0.82813 0.375,-1.53125 0.39062,-0.71875 1.04687,-1.1875 0.48438,-0.35938 1.32813,-0.60938 0.85937,-0.26562 1.82812,-0.26562 1.46875,0 2.57813,0.42187 1.10937,0.42188 1.625,1.15625 0.53125,0.71875 0.73437,1.92188 l -2.0625,0.28125 q -0.14062,-0.96875 -0.8125,-1.5 -0.67187,-0.54688 -1.90625,-0.54688 -1.45312,0 -2.07812,0.48438 -0.625,0.48437 -0.625,1.125 0,0.40625 0.26562,0.73437 0.25,0.34375 0.8125,0.5625 0.3125,0.125 1.85938,0.54688 2.23437,0.59375 3.10937,0.98437 0.89063,0.375 1.39063,1.10938 0.51562,0.71875 0.51562,1.79687 0,1.04688 -0.625,1.98438 -0.60937,0.9375 -1.76562,1.45312 -1.15625,0.5 -2.625,0.5 -2.42188,0 -3.70313,-1 -1.26562,-1.01562 -1.625,-3 z m 18.73047,-2.5 q 0,-3.46875 1.92188,-5.125 1.60937,-1.39062 3.92187,-1.39062 2.5625,0 4.1875,1.6875 1.625,1.6875 1.625,4.64062 0,2.40625 -0.71875,3.78125 -0.71875,1.375 -2.09375,2.14063 -1.375,0.76562 -3,0.76562 -2.625,0 -4.23437,-1.67187 -1.60938,-1.6875 -1.60938,-4.82813 z m 2.17188,0 q 0,2.39063 1.03125,3.57813 1.04687,1.1875 2.64062,1.1875 1.5625,0 2.60938,-1.1875 1.04687,-1.20313 1.04687,-3.65625 0,-2.3125 -1.0625,-3.5 -1.04687,-1.1875 -2.59375,-1.1875 -1.59375,0 -2.64062,1.1875 -1.03125,1.1875 -1.03125,3.57812 z m 13.91015,6.21875 h -1.95312 v -17.1875 h 2.10937 v 6.14063 q 1.32813,-1.6875 3.40625,-1.6875 1.14063,0 2.17188,0.46875 1.03125,0.46875 1.6875,1.3125 0.65625,0.82812 1.03125,2.01562 0.375,1.17188 0.375,2.53125 0,3.1875 -1.57813,4.9375 -1.57812,1.75 -3.79687,1.75 -2.20313,0 -3.45313,-1.84375 z m -0.0312,-6.3125 q 0,2.23438 0.60938,3.23438 1,1.625 2.70312,1.625 1.375,0 2.375,-1.20313 1.01563,-1.20312 1.01563,-3.57812 0,-2.4375 -0.96875,-3.59375 -0.95313,-1.17188 -2.32813,-1.17188 -1.39062,0 -2.40625,1.20313 -1,1.20312 -1,3.48437 z m 11.42578,-8.42187 v -2.45313 h 2.10938 v 2.45313 z m -2.6875,19.5625 0.40625,-1.79688 q 0.625,0.17188 1,0.17188 0.64063,0 0.95313,-0.4375 0.32812,-0.42188 0.32812,-2.125 v -13.09375 h 2.10938 v 13.14062 q 0,2.29688 -0.60938,3.1875 -0.75,1.17188 -2.53125,1.17188 -0.85937,0 -1.65625,-0.21875 z m 16.55078,-8.84375 2.17188,0.28125 q -0.51563,1.90625 -1.90625,2.96875 -1.39063,1.04687 -3.5625,1.04687 -2.73438,0 -4.34375,-1.67187 -1.59375,-1.6875 -1.59375,-4.73438 0,-3.14062 1.60937,-4.875 1.625,-1.73437 4.20313,-1.73437 2.5,0 4.07812,1.70312 1.59375,1.70313 1.59375,4.78125 0,0.1875 -0.0156,0.5625 h -9.28125 q 0.10937,2.04688 1.15625,3.14063 1.04687,1.09375 2.60937,1.09375 1.15625,0 1.96875,-0.60938 0.82813,-0.60937 1.3125,-1.95312 z m -6.9375,-3.40625 h 6.95313 q -0.14063,-1.5625 -0.79688,-2.35938 -1,-1.21875 -2.60937,-1.21875 -1.45313,0 -2.45313,0.98438 -0.98437,0.96875 -1.09375,2.59375 z m 16.36329,5.53125 0.3125,1.85937 q -0.89063,0.20313 -1.59375,0.20313 -1.15625,0 -1.79688,-0.35938 -0.625,-0.375 -0.89062,-0.96875 -0.25,-0.59375 -0.25,-2.48437 v -7.17188 h -1.54688 v -1.64062 h 1.54688 v -3.07813 l 2.09375,-1.26562 v 4.34375 h 2.125 v 1.64062 h -2.125 v 7.28125 q 0,0.90625 0.10937,1.17188 0.125,0.25 0.375,0.40625 0.25,0.14062 0.71875,0.14062 0.34375,0 0.92188,-0.0781 z m 1.21484,-1.82813 2.09375,-0.32812 q 0.17187,1.25 0.96875,1.92187 0.8125,0.67188 2.25,0.67188 1.45312,0 2.15625,-0.59375 0.70312,-0.59375 0.70312,-1.39063 0,-0.71875 -0.625,-1.125 -0.42187,-0.28125 -2.15625,-0.71875 -2.3125,-0.57812 -3.21875,-1 -0.89062,-0.4375 -1.35937,-1.1875 -0.45313,-0.76562 -0.45313,-1.67187 0,-0.82813 0.375,-1.53125 0.39063,-0.71875 1.04688,-1.1875 0.48437,-0.35938 1.32812,-0.60938 0.85938,-0.26562 1.82813,-0.26562 1.46875,0 2.57812,0.42187 1.10938,0.42188 1.625,1.15625 0.53125,0.71875 0.73438,1.92188 l -2.0625,0.28125 q -0.14063,-0.96875 -0.8125,-1.5 -0.67188,-0.54688 -1.90625,-0.54688 -1.45313,0 -2.07813,0.48438 -0.625,0.48437 -0.625,1.125 0,0.40625 0.26563,0.73437 0.25,0.34375 0.8125,0.5625 0.3125,0.125 1.85937,0.54688 2.23438,0.59375 3.10938,0.98437 0.89062,0.375 1.39062,1.10938 0.51563,0.71875 0.51563,1.79687 0,1.04688 -0.625,1.98438 -0.60938,0.9375 -1.76563,1.45312 -1.15625,0.5 -2.625,0.5 -2.42187,0 -3.70312,-1 -1.26563,-1.01562 -1.625,-3 z M 259.9176,391.622 v -2.4375 h 2.10938 v 2.4375 z m 0,14.75 v -12.45312 h 2.10938 V 406.372 Z m 5.31641,0 v -12.45312 h 1.89062 v 1.75 q 0.59375,-0.90625 1.5625,-1.46875 0.96875,-0.5625 2.21875,-0.5625 1.375,0 2.25,0.57812 0.89063,0.57813 1.26563,1.60938 1.46875,-2.1875 3.84375,-2.1875 1.84375,0 2.84375,1.03125 1,1.03125 1,3.15625 v 8.54687 h -2.10938 v -7.84375 q 0,-1.26562 -0.20312,-1.8125 -0.20313,-0.5625 -0.75,-0.90625 -0.53125,-0.34375 -1.25,-0.34375 -1.3125,0 -2.1875,0.875 -0.85938,0.875 -0.85938,2.79688 v 7.23437 h -2.10937 v -8.09375 q 0,-1.40625 -0.51563,-2.10937 -0.51562,-0.70313 -1.6875,-0.70313 -0.89062,0 -1.65625,0.46875 -0.75,0.46875 -1.09375,1.375 -0.34375,0.90625 -0.34375,2.60938 v 6.45312 z m 19.99219,4.76563 v -17.21875 h 1.92187 v 1.625 q 0.6875,-0.95313 1.53125,-1.42188 0.85938,-0.48437 2.07813,-0.48437 1.59375,0 2.8125,0.82812 1.21875,0.8125 1.84375,2.3125 0.625,1.5 0.625,3.28125 0,1.90625 -0.6875,3.4375 -0.6875,1.53125 -2,2.34375 -1.29688,0.8125 -2.73438,0.8125 -1.0625,0 -1.90625,-0.4375 -0.82812,-0.45312 -1.375,-1.14062 v 6.0625 z m 1.92187,-10.92188 q 0,2.40625 0.96875,3.5625 0.96875,1.14063 2.35938,1.14063 1.40625,0 2.40625,-1.1875 1,-1.1875 1,-3.6875 0,-2.375 -0.98438,-3.5625 -0.96875,-1.1875 -2.32812,-1.1875 -1.35938,0 -2.39063,1.26562 -1.03125,1.25 -1.03125,3.65625 z m 11.37891,6.15625 v -17.1875 h 2.10937 v 17.1875 z m 13.5039,-1.53125 q -1.17187,0.98438 -2.26562,1.40625 -1.07813,0.40625 -2.3125,0.40625 -2.04688,0 -3.15625,-1 -1.09375,-1 -1.09375,-2.5625 0,-0.92187 0.40625,-1.67187 0.42187,-0.75 1.09375,-1.20313 0.67187,-0.46875 1.51562,-0.70312 0.625,-0.15625 1.875,-0.3125 2.5625,-0.3125 3.76563,-0.73438 0.0156,-0.42187 0.0156,-0.54687 0,-1.28125 -0.60937,-1.8125 -0.79688,-0.71875 -2.39063,-0.71875 -1.5,0 -2.20312,0.53125 -0.70313,0.51562 -1.04688,1.84375 l -2.0625,-0.28125 q 0.28125,-1.32813 0.92188,-2.14063 0.64062,-0.8125 1.85937,-1.25 1.21875,-0.45312 2.82813,-0.45312 1.59375,0 2.59375,0.375 1,0.375 1.46875,0.95312 0.46875,0.5625 0.65625,1.4375 0.0938,0.53125 0.0938,1.9375 v 2.8125 q 0,2.9375 0.14062,3.71875 0.14063,0.78125 0.53125,1.5 h -2.20312 q -0.32813,-0.65625 -0.42188,-1.53125 z m -0.17187,-4.71875 q -1.15625,0.46875 -3.45313,0.79688 -1.29687,0.1875 -1.84375,0.42187 -0.53125,0.23438 -0.82812,0.6875 -0.28125,0.45313 -0.28125,1 0,0.84375 0.625,1.40625 0.64062,0.5625 1.875,0.5625 1.21875,0 2.17187,-0.53125 0.95313,-0.53125 1.39063,-1.45312 0.34375,-0.71875 0.34375,-2.10938 z m 5.39453,6.25 v -12.45312 h 1.90625 v 1.78125 q 1.375,-2.0625 3.95313,-2.0625 1.125,0 2.0625,0.40625 0.95312,0.40625 1.42187,1.0625 0.46875,0.65625 0.65625,1.5625 0.125,0.57812 0.125,2.04687 v 7.65625 h -2.10937 v -7.57812 q 0,-1.28125 -0.25,-1.92188 -0.25,-0.64062 -0.875,-1.01562 -0.625,-0.39063 -1.46875,-0.39063 -1.34375,0 -2.32813,0.85938 -0.98437,0.85937 -0.98437,3.25 v 6.79687 z m 17.95703,-1.89062 0.3125,1.85937 q -0.89062,0.20313 -1.59375,0.20313 -1.15625,0 -1.79687,-0.35938 -0.625,-0.375 -0.89063,-0.96875 -0.25,-0.59375 -0.25,-2.48437 v -7.17188 h -1.54687 v -1.64062 h 1.54687 v -3.07813 l 2.09375,-1.26562 v 4.34375 h 2.125 v 1.64062 h -2.125 v 7.28125 q 0,0.90625 0.10938,1.17188 0.125,0.25 0.375,0.40625 0.25,0.14062 0.71875,0.14062 0.34375,0 0.92187,-0.0781 z m 10.1836,0.35937 q -1.17188,0.98438 -2.26563,1.40625 -1.07812,0.40625 -2.3125,0.40625 -2.04687,0 -3.15625,-1 -1.09375,-1 -1.09375,-2.5625 0,-0.92187 0.40625,-1.67187 0.42188,-0.75 1.09375,-1.20313 0.67188,-0.46875 1.51563,-0.70312 0.625,-0.15625 1.875,-0.3125 2.5625,-0.3125 3.76562,-0.73438 0.0156,-0.42187 0.0156,-0.54687 0,-1.28125 -0.60938,-1.8125 -0.79687,-0.71875 -2.39062,-0.71875 -1.5,0 -2.20313,0.53125 -0.70312,0.51562 -1.04687,1.84375 l -2.0625,-0.28125 q 0.28125,-1.32813 0.92187,-2.14063 0.64063,-0.8125 1.85938,-1.25 1.21875,-0.45312 2.82812,-0.45312 1.59375,0 2.59375,0.375 1,0.375 1.46875,0.95312 0.46875,0.5625 0.65625,1.4375 0.0938,0.53125 0.0938,1.9375 v 2.8125 q 0,2.9375 0.14063,3.71875 0.14062,0.78125 0.53125,1.5 h -2.20313 q -0.32812,-0.65625 -0.42187,-1.53125 z m -0.17188,-4.71875 q -1.15625,0.46875 -3.45312,0.79688 -1.29688,0.1875 -1.84375,0.42187 -0.53125,0.23438 -0.82813,0.6875 -0.28125,0.45313 -0.28125,1 0,0.84375 0.625,1.40625 0.64063,0.5625 1.875,0.5625 1.21875,0 2.17188,-0.53125 0.95312,-0.53125 1.39062,-1.45312 0.34375,-0.71875 0.34375,-2.10938 z m 7.34766,6.25 h -1.95313 v -17.1875 h 2.10938 v 6.14063 q 1.32812,-1.6875 3.40625,-1.6875 1.14062,0 2.17187,0.46875 1.03125,0.46875 1.6875,1.3125 0.65625,0.82812 1.03125,2.01562 0.375,1.17188 0.375,2.53125 0,3.1875 -1.57812,4.9375 -1.57813,1.75 -3.79688,1.75 -2.20312,0 -3.45312,-1.84375 z m -0.0312,-6.3125 q 0,2.23438 0.60937,3.23438 1,1.625 2.70313,1.625 1.375,0 2.375,-1.20313 1.01562,-1.20312 1.01562,-3.57812 0,-2.4375 -0.96875,-3.59375 Q 357.32,395.372 355.945,395.372 q -1.39063,0 -2.40625,1.20313 -1,1.20312 -1,3.48437 z m 11.3789,6.3125 v -17.1875 h 2.10938 v 17.1875 z m 13.91016,-4.01562 2.17187,0.28125 q -0.51562,1.90625 -1.90625,2.96875 -1.39062,1.04687 -3.5625,1.04687 -2.73437,0 -4.34375,-1.67187 -1.59375,-1.6875 -1.59375,-4.73438 0,-3.14062 1.60938,-4.875 1.625,-1.73437 4.20312,-1.73437 2.5,0 4.07813,1.70312 1.59375,1.70313 1.59375,4.78125 0,0.1875 -0.0156,0.5625 h -9.28125 q 0.10938,2.04688 1.15625,3.14063 1.04688,1.09375 2.60938,1.09375 1.15625,0 1.96875,-0.60938 0.82812,-0.60937 1.3125,-1.95312 z m -6.9375,-3.40625 h 6.95312 q -0.14062,-1.5625 -0.79687,-2.35938 -1,-1.21875 -2.60938,-1.21875 -1.45312,0 -2.45312,0.98438 -0.98438,0.96875 -1.09375,2.59375 z m 10.91015,3.70312 2.09375,-0.32812 q 0.17188,1.25 0.96875,1.92187 0.8125,0.67188 2.24997,0.67188 1.45313,0 2.15625,-0.59375 0.70313,-0.59375 0.70313,-1.39063 0,-0.71875 -0.625,-1.125 -0.42188,-0.28125 -2.15625,-0.71875 -2.31247,-0.57812 -3.21872,-1 -0.89063,-0.4375 -1.35938,-1.1875 -0.45312,-0.76562 -0.45312,-1.67187 0,-0.82813 0.375,-1.53125 0.39062,-0.71875 1.04687,-1.1875 0.48438,-0.35938 1.32813,-0.60938 0.85934,-0.26562 1.82809,-0.26562 1.46875,0 2.57813,0.42187 1.10937,0.42188 1.625,1.15625 0.53125,0.71875 0.73437,1.92188 l -2.0625,0.28125 q -0.14062,-0.96875 -0.8125,-1.5 -0.67187,-0.54688 -1.90625,-0.54688 -1.45309,0 -2.07809,0.48438 -0.625,0.48437 -0.625,1.125 0,0.40625 0.26562,0.73437 0.25,0.34375 0.8125,0.5625 0.3125,0.125 1.85935,0.54688 2.23437,0.59375 3.10937,0.98437 0.89063,0.375 1.39063,1.10938 0.51562,0.71875 0.51562,1.79687 0,1.04688 -0.625,1.98438 -0.60937,0.9375 -1.76562,1.45312 -1.15625,0.5 -2.625,0.5 -2.42185,0 -3.7031,-1 -1.26562,-1.01562 -1.625,-3 z m 28.04294,-0.29687 2.17188,0.28125 q -0.51563,1.90625 -1.90625,2.96875 -1.39063,1.04687 -3.5625,1.04687 -2.73438,0 -4.34375,-1.67187 -1.59375,-1.6875 -1.59375,-4.73438 0,-3.14062 1.60937,-4.875 1.625,-1.73437 4.20313,-1.73437 2.5,0 4.07812,1.70312 1.59375,1.70313 1.59375,4.78125 0,0.1875 -0.0156,0.5625 h -9.28125 q 0.10937,2.04688 1.15625,3.14063 1.04687,1.09375 2.60937,1.09375 1.15625,0 1.96875,-0.60938 0.82813,-0.60937 1.3125,-1.95312 z m -6.9375,-3.40625 h 6.95313 q -0.14063,-1.5625 -0.79688,-2.35938 -1,-1.21875 -2.60937,-1.21875 -1.45313,0 -2.45313,0.98438 -0.98437,0.96875 -1.09375,2.59375 z m 16.36328,5.53125 0.3125,1.85937 q -0.89062,0.20313 -1.59375,0.20313 -1.15625,0 -1.79687,-0.35938 -0.625,-0.375 -0.89063,-0.96875 -0.25,-0.59375 -0.25,-2.48437 v -7.17188 h -1.54687 v -1.64062 h 1.54687 v -3.07813 l 2.09375,-1.26562 v 4.34375 h 2.125 v 1.64062 h -2.125 v 7.28125 q 0,0.90625 0.10938,1.17188 0.125,0.25 0.375,0.40625 0.25,0.14062 0.71875,0.14062 0.34375,0 0.92187,-0.0781 z m 16.85157,-2.67188 2.07812,0.26563 q -0.34375,2.15625 -1.75,3.375 -1.39062,1.20312 -3.4375,1.20312 -2.54687,0 -4.10937,-1.67187 -1.54688,-1.67188 -1.54688,-4.78125 0,-2.01563 0.67188,-3.53125 0.67187,-1.51563 2.03125,-2.26563 1.35937,-0.76562 2.96875,-0.76562 2.03125,0 3.3125,1.03125 1.29687,1.03125 1.65625,2.90625 l -2.04688,0.32812 q -0.29687,-1.26562 -1.04687,-1.89062 -0.73438,-0.64063 -1.79688,-0.64063 -1.59375,0 -2.59375,1.15625 -0.98437,1.14063 -0.98437,3.60938 0,2.5 0.95312,3.64062 0.96875,1.14063 2.51563,1.14063 1.23437,0 2.0625,-0.76563 0.84375,-0.76562 1.0625,-2.34375 z m 3.09375,-1.65625 q 0,-3.46875 1.92187,-5.125 1.60938,-1.39062 3.92188,-1.39062 2.5625,0 4.1875,1.6875 1.625,1.6875 1.625,4.64062 0,2.40625 -0.71875,3.78125 -0.71875,1.375 -2.09375,2.14063 -1.375,0.76562 -3,0.76562 -2.625,0 -4.23438,-1.67187 -1.60937,-1.6875 -1.60937,-4.82813 z m 2.17187,0 q 0,2.39063 1.03125,3.57813 1.04688,1.1875 2.64063,1.1875 1.5625,0 2.60937,-1.1875 1.04688,-1.20313 1.04688,-3.65625 0,-2.3125 -1.0625,-3.5 -1.04688,-1.1875 -2.59375,-1.1875 -1.59375,0 -2.64063,1.1875 -1.03125,1.1875 -1.03125,3.57812 z m 11.95703,6.21875 v -12.45312 h 1.90625 v 1.78125 q 1.375,-2.0625 3.95313,-2.0625 1.125,0 2.0625,0.40625 0.95312,0.40625 1.42187,1.0625 0.46875,0.65625 0.65625,1.5625 0.125,0.57812 0.125,2.04687 v 7.65625 h -2.10937 v -7.57812 q 0,-1.28125 -0.25,-1.92188 -0.25,-0.64062 -0.875,-1.01562 -0.625,-0.39063 -1.46875,-0.39063 -1.34375,0 -2.32813,0.85938 -0.98437,0.85937 -0.98437,3.25 v 6.79687 z m 13.34766,0 v -12.45312 h 1.90625 v 1.78125 q 1.375,-2.0625 3.95312,-2.0625 1.125,0 2.0625,0.40625 0.95313,0.40625 1.42188,1.0625 0.46875,0.65625 0.65625,1.5625 0.125,0.57812 0.125,2.04687 v 7.65625 h -2.10938 v -7.57812 q 0,-1.28125 -0.25,-1.92188 -0.25,-0.64062 -0.875,-1.01562 -0.625,-0.39063 -1.46875,-0.39063 -1.34375,0 -2.32812,0.85938 -0.98438,0.85937 -0.98438,3.25 v 6.79687 z m 21.8789,-4.01562 2.17188,0.28125 q -0.51563,1.90625 -1.90625,2.96875 -1.39063,1.04687 -3.5625,1.04687 -2.73438,0 -4.34375,-1.67187 -1.59375,-1.6875 -1.59375,-4.73438 0,-3.14062 1.60937,-4.875 1.625,-1.73437 4.20313,-1.73437 2.5,0 4.07812,1.70312 1.59375,1.70313 1.59375,4.78125 0,0.1875 -0.0156,0.5625 h -9.28125 q 0.10937,2.04688 1.15625,3.14063 1.04687,1.09375 2.60937,1.09375 1.15625,0 1.96875,-0.60938 0.82813,-0.60937 1.3125,-1.95312 z m -6.9375,-3.40625 h 6.95313 q -0.14063,-1.5625 -0.79688,-2.35938 -1,-1.21875 -2.60937,-1.21875 -1.45313,0 -2.45313,0.98438 -0.98437,0.96875 -1.09375,2.59375 z m 19.87891,2.85937 2.07812,0.26563 q -0.34375,2.15625 -1.75,3.375 -1.39062,1.20312 -3.4375,1.20312 -2.54687,0 -4.10937,-1.67187 -1.54688,-1.67188 -1.54688,-4.78125 0,-2.01563 0.67188,-3.53125 0.67187,-1.51563 2.03125,-2.26563 1.35937,-0.76562 2.96875,-0.76562 2.03125,0 3.3125,1.03125 1.29687,1.03125 1.65625,2.90625 l -2.04688,0.32812 q -0.29687,-1.26562 -1.04687,-1.89062 -0.73438,-0.64063 -1.79688,-0.64063 -1.59375,0 -2.59375,1.15625 -0.98437,1.14063 -0.98437,3.60938 0,2.5 0.95312,3.64062 0.96875,1.14063 2.51563,1.14063 1.23437,0 2.0625,-0.76563 0.84375,-0.76562 1.0625,-2.34375 z m 8.48437,2.67188 0.3125,1.85937 q -0.89062,0.20313 -1.59375,0.20313 -1.15625,0 -1.79687,-0.35938 -0.625,-0.375 -0.89063,-0.96875 -0.25,-0.59375 -0.25,-2.48437 v -7.17188 h -1.54687 v -1.64062 h 1.54687 v -3.07813 l 2.09375,-1.26562 v 4.34375 h 2.125 v 1.64062 h -2.125 v 7.28125 q 0,0.90625 0.10938,1.17188 0.125,0.25 0.375,0.40625 0.25,0.14062 0.71875,0.14062 0.34375,0 0.92187,-0.0781 z m 10.58988,-2.125 2.17187,0.28125 q -0.51562,1.90625 -1.90625,2.96875 -1.39062,1.04687 -3.5625,1.04687 -2.73437,0 -4.34375,-1.67187 -1.59378,-1.6875 -1.59378,-4.73438 0,-3.14062 1.60941,-4.875 1.625,-1.73437 4.20312,-1.73437 2.5,0 4.07813,1.70312 1.59375,1.70313 1.59375,4.78125 0,0.1875 -0.0156,0.5625 h -9.28125 q 0.10938,2.04688 1.15625,3.14063 1.04688,1.09375 2.60938,1.09375 1.15625,0 1.96875,-0.60938 0.82812,-0.60937 1.3125,-1.95312 z m -6.9375,-3.40625 h 6.95312 q -0.14062,-1.5625 -0.79687,-2.35938 -1,-1.21875 -2.60938,-1.21875 -1.45312,0 -2.45312,0.98438 -0.98438,0.96875 -1.09375,2.59375 z m 2.28125,-6.57813 1.54687,-3.28125 h 2.76563 l -2.57813,3.28125 z m 8.6289,10.28125 2.09375,-0.32812 q 0.17188,1.25 0.96875,1.92187 0.8125,0.67188 2.25,0.67188 1.45313,0 2.15625,-0.59375 0.70313,-0.59375 0.70313,-1.39063 0,-0.71875 -0.625,-1.125 -0.42188,-0.28125 -2.15625,-0.71875 -2.3125,-0.57812 -3.21875,-1 -0.89063,-0.4375 -1.35938,-1.1875 -0.45312,-0.76562 -0.45312,-1.67187 0,-0.82813 0.375,-1.53125 0.39062,-0.71875 1.04687,-1.1875 0.48438,-0.35938 1.32813,-0.60938 0.85937,-0.26562 1.82812,-0.26562 1.46875,0 2.57813,0.42187 1.10937,0.42188 1.625,1.15625 0.53125,0.71875 0.73437,1.92188 l -2.0625,0.28125 q -0.14062,-0.96875 -0.8125,-1.5 -0.67187,-0.54688 -1.90625,-0.54688 -1.45312,0 -2.07812,0.48438 -0.625,0.48437 -0.625,1.125 0,0.40625 0.26562,0.73437 0.25,0.34375 0.8125,0.5625 0.3125,0.125 1.85938,0.54688 2.23437,0.59375 3.10937,0.98437 0.89063,0.375 1.39063,1.10938 0.51562,0.71875 0.51562,1.79687 0,1.04688 -0.625,1.98438 -0.60937,0.9375 -1.76562,1.45312 -1.15625,0.5 -2.625,0.5 -2.42188,0 -3.70313,-1 -1.26562,-1.01562 -1.625,-3 z" />
  <path
     style="fill:#f3f3f3;fill-rule:evenodd"
     inkscape:connector-curvature="0"
     id="path4731"
     d="M 129.71391,502.27823 H 343.88714 V 640.51447 H 129.71391 Z" />
  <path
     style="fill-rule:evenodd;stroke:#000000;stroke-width:1;stroke-linecap:butt;stroke-linejoin:round"
     inkscape:connector-curvature="0"
     id="path4733"
     d="M 129.71391,502.27823 H 343.88714 V 640.51447 H 129.71391 Z" />
  <path
     style="fill:#000000;fill-rule:nonzero"
     inkscape:connector-curvature="0"
     id="path4735"
     d="m 181.20287,565.43634 v -17.1875 h 6.4375 q 1.96875,0 3.15625,0.53125 1.1875,0.51562 1.85937,1.60937 0.6875,1.07813 0.6875,2.26563 0,1.09375 -0.60937,2.07812 -0.59375,0.96875 -1.79688,1.5625 1.5625,0.45313 2.39063,1.5625 0.84375,1.09375 0.84375,2.59375 0,1.20313 -0.51563,2.25 -0.5,1.03125 -1.25,1.59375 -0.75,0.5625 -1.89062,0.85938 -1.125,0.28125 -2.76563,0.28125 z m 2.26562,-9.96875 h 3.71875 q 1.51563,0 2.17188,-0.1875 0.85937,-0.26563 1.29687,-0.85938 0.4375,-0.59375 0.4375,-1.5 0,-0.85937 -0.40625,-1.5 -0.40625,-0.65625 -1.17187,-0.89062 -0.76563,-0.25 -2.60938,-0.25 h -3.4375 z m 0,7.9375 h 4.28125 q 1.09375,0 1.54688,-0.0781 0.78125,-0.14062 1.3125,-0.46875 0.53125,-0.32812 0.85937,-0.95312 0.34375,-0.625 0.34375,-1.45313 0,-0.95312 -0.5,-1.65625 -0.48437,-0.71875 -1.35937,-1 -0.875,-0.29687 -2.51563,-0.29687 h -3.96875 z m 12.77344,-4.1875 q 0,-3.46875 1.92188,-5.125 1.60937,-1.39063 3.92187,-1.39063 2.5625,0 4.1875,1.6875 1.625,1.6875 1.625,4.64063 0,2.40625 -0.71875,3.78125 -0.71875,1.375 -2.09375,2.14062 -1.375,0.76563 -3,0.76563 -2.625,0 -4.23437,-1.67188 -1.60938,-1.6875 -1.60938,-4.82812 z m 2.17188,0 q 0,2.39062 1.03125,3.57812 1.04687,1.1875 2.64062,1.1875 1.5625,0 2.60938,-1.1875 1.04687,-1.20312 1.04687,-3.65625 0,-2.3125 -1.0625,-3.5 -1.04687,-1.1875 -2.59375,-1.1875 -1.59375,0 -2.64062,1.1875 -1.03125,1.1875 -1.03125,3.57813 z m 12.70703,6.21875 v -12.45313 h 2.10937 v 12.45313 z m 1.20312,-15.98438 -1.32812,1.98438 h -2.40625 l 2.53125,-3.28125 h 2.25 l 2.64062,3.28125 h -2.39062 z m 9.32422,14.09375 0.3125,1.85938 q -0.89062,0.20312 -1.59375,0.20312 -1.15625,0 -1.79687,-0.35937 -0.625,-0.375 -0.89063,-0.96875 -0.25,-0.59375 -0.25,-2.48438 v -7.17187 h -1.54687 v -1.64063 h 1.54687 v -3.07812 l 2.09375,-1.26563 v 4.34375 h 2.125 v 1.64063 h -2.125 v 7.28125 q 0,0.90625 0.10938,1.17187 0.125,0.25 0.375,0.40625 0.25,0.14063 0.71875,0.14063 0.34375,0 0.92187,-0.0781 z m 2.07422,-12.85937 v -2.4375 h 2.10938 v 2.4375 z m 0,14.75 v -12.45313 h 2.10938 v 12.45313 z m 13.84766,-4.01563 2.17187,0.28125 q -0.51562,1.90625 -1.90625,2.96875 -1.39062,1.04688 -3.5625,1.04688 -2.73437,0 -4.34375,-1.67188 -1.59375,-1.6875 -1.59375,-4.73437 0,-3.14063 1.60938,-4.875 1.625,-1.73438 4.20312,-1.73438 2.5,0 4.07813,1.70313 1.59375,1.70312 1.59375,4.78125 0,0.1875 -0.0156,0.5625 h -9.28125 q 0.10938,2.04687 1.15625,3.14062 1.04688,1.09375 2.60938,1.09375 1.15625,0 1.96875,-0.60937 0.82812,-0.60938 1.3125,-1.95313 z m -6.9375,-3.40625 h 6.95312 q -0.14062,-1.5625 -0.79687,-2.35937 -1,-1.21875 -2.60938,-1.21875 -1.45312,0 -2.45312,0.98437 -0.98438,0.96875 -1.09375,2.59375 z m 11.73828,7.42188 v -12.45313 h 1.89062 v 1.89063 q 0.73438,-1.32813 1.34375,-1.75 0.625,-0.42188 1.35938,-0.42188 1.0625,0 2.17187,0.6875 l -0.73437,1.95313 q -0.76563,-0.45313 -1.54688,-0.45313 -0.6875,0 -1.25,0.42188 -0.54687,0.40625 -0.78125,1.14062 -0.34375,1.125 -0.34375,2.46875 v 6.51563 z m 7.16406,-3.71875 2.09375,-0.32813 q 0.17188,1.25 0.96875,1.92188 0.8125,0.67187 2.25,0.67187 1.45314,0 2.15627,-0.59375 0.70312,-0.59375 0.70312,-1.39062 0,-0.71875 -0.625,-1.125 -0.42187,-0.28125 -2.15626,-0.71875 -2.3125,-0.57813 -3.21875,-1 -0.89063,-0.4375 -1.35938,-1.1875 -0.45312,-0.76563 -0.45312,-1.67188 0,-0.82812 0.375,-1.53125 0.39062,-0.71875 1.04687,-1.1875 0.48438,-0.35937 1.32813,-0.60937 0.85937,-0.26563 1.82812,-0.26563 1.46875,0 2.57814,0.42188 1.10935,0.42187 1.62497,1.15625 0.53125,0.71875 0.73438,1.92187 l -2.06247,0.28125 q -0.14063,-0.96875 -0.8125,-1.5 -0.67189,-0.54687 -1.90627,-0.54687 -1.45312,0 -2.07812,0.48437 -0.625,0.48438 -0.625,1.125 0,0.40625 0.26562,0.73438 0.25,0.34375 0.8125,0.5625 0.3125,0.125 1.85938,0.54687 2.23439,0.59375 3.10936,0.98438 0.89062,0.375 1.39062,1.10937 0.51563,0.71875 0.51563,1.79688 0,1.04687 -0.625,1.98437 -0.60938,0.9375 -1.7656,1.45313 -1.15625,0.5 -2.62501,0.5 -2.42188,0 -3.70313,-1 -1.26562,-1.01563 -1.625,-3 z m 27.58983,3.71875 v -1.57813 q -1.1875,1.85938 -3.48438,1.85938 -1.48437,0 -2.73437,-0.8125 -1.25,-0.82813 -1.9375,-2.29688 -0.67188,-1.46875 -0.67188,-3.39062 0,-1.85938 0.60938,-3.375 0.625,-1.51563 1.85937,-2.32813 1.25,-0.8125 2.78125,-0.8125 1.125,0 2,0.48438 0.89063,0.46875 1.4375,1.23437 v -6.17187 h 2.09375 v 17.1875 z m -6.67188,-6.21875 q 0,2.39062 1,3.57812 1.01563,1.1875 2.39063,1.1875 1.39062,0 2.34375,-1.125 0.96875,-1.14062 0.96875,-3.45312 0,-2.5625 -0.98438,-3.75 -0.98437,-1.20313 -2.42187,-1.20313 -1.40625,0 -2.35938,1.15625 -0.9375,1.14063 -0.9375,3.60938 z m 20.47266,2.20312 2.17187,0.28125 q -0.51562,1.90625 -1.90625,2.96875 -1.39062,1.04688 -3.5625,1.04688 -2.73437,0 -4.34375,-1.67188 -1.59375,-1.6875 -1.59375,-4.73437 0,-3.14063 1.60938,-4.875 1.625,-1.73438 4.20312,-1.73438 2.5,0 4.07813,1.70313 1.59375,1.70312 1.59375,4.78125 0,0.1875 -0.0156,0.5625 h -9.28125 q 0.10938,2.04687 1.15625,3.14062 1.04688,1.09375 2.60938,1.09375 1.15625,0 1.96875,-0.60937 0.82812,-0.60938 1.3125,-1.95313 z m -6.9375,-3.40625 h 6.95312 q -0.14062,-1.5625 -0.79687,-2.35937 -1,-1.21875 -2.60938,-1.21875 -1.45312,0 -2.45312,0.98437 -0.98438,0.96875 -1.09375,2.59375 z" />
  <path
     style="fill:#000000;fill-rule:nonzero"
     inkscape:connector-curvature="0"
     id="path4737"
     d="m 175.6345,592.5457 0.3125,1.85938 q -0.89062,0.20312 -1.59375,0.20312 -1.15625,0 -1.79687,-0.35937 -0.625,-0.375 -0.89063,-0.96875 -0.25,-0.59375 -0.25,-2.48438 v -7.17187 h -1.54687 v -1.64063 h 1.54687 v -3.07812 l 2.09375,-1.26563 v 4.34375 h 2.125 v 1.64063 h -2.125 v 7.28125 q 0,0.90625 0.10938,1.17187 0.125,0.25 0.375,0.40625 0.25,0.14063 0.71875,0.14063 0.34375,0 0.92187,-0.0781 z m 2.04297,1.89063 V 581.9832 h 1.89062 v 1.89063 q 0.73438,-1.32813 1.34375,-1.75 0.625,-0.42188 1.35938,-0.42188 1.0625,0 2.17187,0.6875 l -0.73437,1.95313 q -0.76563,-0.45313 -1.54688,-0.45313 -0.6875,0 -1.25,0.42188 -0.54687,0.40625 -0.78125,1.14062 -0.34375,1.125 -0.34375,2.46875 v 6.51563 z m 16.13281,-1.53125 q -1.17187,0.98437 -2.26562,1.40625 -1.07813,0.40625 -2.3125,0.40625 -2.04688,0 -3.15625,-1 -1.09375,-1 -1.09375,-2.5625 0,-0.92188 0.40625,-1.67188 0.42187,-0.75 1.09375,-1.20312 0.67187,-0.46875 1.51562,-0.70313 0.625,-0.15625 1.875,-0.3125 2.5625,-0.3125 3.76563,-0.73437 0.0156,-0.42188 0.0156,-0.54688 0,-1.28125 -0.60937,-1.8125 -0.79688,-0.71875 -2.39063,-0.71875 -1.5,0 -2.20312,0.53125 -0.70313,0.51563 -1.04688,1.84375 l -2.0625,-0.28125 q 0.28125,-1.32812 0.92188,-2.14062 0.64062,-0.8125 1.85937,-1.25 1.21875,-0.45313 2.82813,-0.45313 1.59375,0 2.59375,0.375 1,0.375 1.46875,0.95313 0.46875,0.5625 0.65625,1.4375 0.0938,0.53125 0.0938,1.9375 v 2.8125 q 0,2.9375 0.14062,3.71875 0.14063,0.78125 0.53125,1.5 h -2.20312 q -0.32813,-0.65625 -0.42188,-1.53125 z m -0.17187,-4.71875 q -1.15625,0.46875 -3.45313,0.79687 -1.29687,0.1875 -1.84375,0.42188 -0.53125,0.23437 -0.82812,0.6875 -0.28125,0.45312 -0.28125,1 0,0.84375 0.625,1.40625 0.64062,0.5625 1.875,0.5625 1.21875,0 2.17187,-0.53125 0.95313,-0.53125 1.39063,-1.45313 0.34375,-0.71875 0.34375,-2.10937 z m 5.39453,6.25 V 581.9832 h 1.90625 v 1.78125 q 1.375,-2.0625 3.95312,-2.0625 1.125,0 2.0625,0.40625 0.95313,0.40625 1.42188,1.0625 0.46875,0.65625 0.65625,1.5625 0.125,0.57813 0.125,2.04688 v 7.65625 h -2.10938 v -7.57813 q 0,-1.28125 -0.25,-1.92187 -0.25,-0.64063 -0.875,-1.01563 -0.625,-0.39062 -1.46875,-0.39062 -1.34375,0 -2.32812,0.85937 -0.98438,0.85938 -0.98438,3.25 v 6.79688 z m 12.5039,-3.71875 2.09375,-0.32813 q 0.17188,1.25 0.96875,1.92188 0.8125,0.67187 2.25,0.67187 1.45313,0 2.15625,-0.59375 0.70313,-0.59375 0.70313,-1.39062 0,-0.71875 -0.625,-1.125 -0.42188,-0.28125 -2.15625,-0.71875 -2.3125,-0.57813 -3.21875,-1 -0.89063,-0.4375 -1.35938,-1.1875 -0.45312,-0.76563 -0.45312,-1.67188 0,-0.82812 0.375,-1.53125 0.39062,-0.71875 1.04687,-1.1875 0.48438,-0.35937 1.32813,-0.60937 0.85937,-0.26563 1.82812,-0.26563 1.46875,0 2.57813,0.42188 1.10937,0.42187 1.625,1.15625 0.53125,0.71875 0.73437,1.92187 l -2.0625,0.28125 q -0.14062,-0.96875 -0.8125,-1.5 -0.67187,-0.54687 -1.90625,-0.54687 -1.45312,0 -2.07812,0.48437 -0.625,0.48438 -0.625,1.125 0,0.40625 0.26562,0.73438 0.25,0.34375 0.8125,0.5625 0.3125,0.125 1.85938,0.54687 2.23437,0.59375 3.10937,0.98438 0.89063,0.375 1.39063,1.10937 0.51562,0.71875 0.51562,1.79688 0,1.04687 -0.625,1.98437 -0.60937,0.9375 -1.76562,1.45313 -1.15625,0.5 -2.625,0.5 -2.42188,0 -3.70313,-1 -1.26562,-1.01563 -1.625,-3 z m 12.84375,3.71875 V 581.9832 h 1.89063 v 1.75 q 0.59375,-0.90625 1.5625,-1.46875 0.96875,-0.5625 2.21875,-0.5625 1.375,0 2.25,0.57813 0.89062,0.57812 1.26562,1.60937 1.46875,-2.1875 3.84375,-2.1875 1.84375,0 2.84375,1.03125 1,1.03125 1,3.15625 v 8.54688 h -2.10937 v -7.84375 q 0,-1.26563 -0.20313,-1.8125 -0.20312,-0.5625 -0.75,-0.90625 -0.53125,-0.34375 -1.25,-0.34375 -1.3125,0 -2.1875,0.875 -0.85937,0.875 -0.85937,2.79687 v 7.23438 h -2.10938 v -8.09375 q 0,-1.40625 -0.51562,-2.10938 -0.51563,-0.70312 -1.6875,-0.70312 -0.89063,0 -1.65625,0.46875 -0.75,0.46875 -1.09375,1.375 -0.34375,0.90625 -0.34375,2.60937 v 6.45313 z m 20.00782,-14.75 v -2.4375 h 2.10937 v 2.4375 z m 0,14.75 V 581.9832 h 2.10937 v 12.45313 z m 4.47265,-3.71875 2.09375,-0.32813 q 0.17188,1.25 0.96875,1.92188 0.8125,0.67187 2.25,0.67187 1.45313,0 2.15627,-0.59375 0.70312,-0.59375 0.70312,-1.39062 0,-0.71875 -0.625,-1.125 -0.42189,-0.28125 -2.15626,-0.71875 -2.3125,-0.57813 -3.21875,-1 -0.89063,-0.4375 -1.35938,-1.1875 -0.45312,-0.76563 -0.45312,-1.67188 0,-0.82812 0.375,-1.53125 0.39062,-0.71875 1.04687,-1.1875 0.48438,-0.35937 1.32813,-0.60937 0.85937,-0.26563 1.82812,-0.26563 1.46875,0 2.57814,0.42188 1.10938,0.42187 1.62497,1.15625 0.53125,0.71875 0.73438,1.92187 l -2.06247,0.28125 q -0.14063,-0.96875 -0.81252,-1.5 -0.67187,-0.54687 -1.90625,-0.54687 -1.45312,0 -2.07812,0.48437 -0.625,0.48438 -0.625,1.125 0,0.40625 0.26562,0.73438 0.25,0.34375 0.8125,0.5625 0.3125,0.125 1.85938,0.54687 2.23439,0.59375 3.10939,0.98438 0.89059,0.375 1.39059,1.10937 0.51563,0.71875 0.51563,1.79688 0,1.04687 -0.625,1.98437 -0.60938,0.9375 -1.7656,1.45313 -1.15626,0.5 -2.62501,0.5 -2.42188,0 -3.70313,-1 -1.26562,-1.01563 -1.625,-3 z m 11.99999,0 2.09375,-0.32813 q 0.17187,1.25 0.96875,1.92188 0.8125,0.67187 2.25,0.67187 1.45312,0 2.15625,-0.59375 0.70312,-0.59375 0.70312,-1.39062 0,-0.71875 -0.625,-1.125 -0.42187,-0.28125 -2.15625,-0.71875 -2.3125,-0.57813 -3.21875,-1 -0.89062,-0.4375 -1.35937,-1.1875 -0.45313,-0.76563 -0.45313,-1.67188 0,-0.82812 0.375,-1.53125 0.39063,-0.71875 1.04688,-1.1875 0.48437,-0.35937 1.32812,-0.60937 0.85938,-0.26563 1.82813,-0.26563 1.46875,0 2.57812,0.42188 1.10938,0.42187 1.625,1.15625 0.53125,0.71875 0.73438,1.92187 l -2.0625,0.28125 q -0.14063,-0.96875 -0.8125,-1.5 -0.67188,-0.54687 -1.90625,-0.54687 -1.45313,0 -2.07813,0.48437 -0.625,0.48438 -0.625,1.125 0,0.40625 0.26563,0.73438 0.25,0.34375 0.8125,0.5625 0.3125,0.125 1.85937,0.54687 2.23438,0.59375 3.10938,0.98438 0.89062,0.375 1.39062,1.10937 0.51563,0.71875 0.51563,1.79688 0,1.04687 -0.625,1.98437 -0.60938,0.9375 -1.76563,1.45313 -1.15625,0.5 -2.625,0.5 -2.42187,0 -3.70312,-1 -1.26563,-1.01563 -1.625,-3 z m 12.85937,-11.03125 v -2.4375 h 2.10938 v 2.4375 z m 0,14.75 V 581.9832 h 2.10938 v 12.45313 z m 4.53516,-6.21875 q 0,-3.46875 1.92187,-5.125 1.60938,-1.39063 3.92188,-1.39063 2.5625,0 4.1875,1.6875 1.625,1.6875 1.625,4.64063 0,2.40625 -0.71875,3.78125 -0.71875,1.375 -2.09375,2.14062 -1.375,0.76563 -3,0.76563 -2.625,0 -4.23438,-1.67188 -1.60937,-1.6875 -1.60937,-4.82812 z m 2.17187,0 q 0,2.39062 1.03125,3.57812 1.04688,1.1875 2.64063,1.1875 1.5625,0 2.60937,-1.1875 1.04688,-1.20312 1.04688,-3.65625 0,-2.3125 -1.0625,-3.5 -1.04688,-1.1875 -2.59375,-1.1875 -1.59375,0 -2.64063,1.1875 -1.03125,1.1875 -1.03125,3.57813 z m 11.95703,6.21875 V 581.9832 h 1.90625 v 1.78125 q 1.375,-2.0625 3.95313,-2.0625 1.125,0 2.0625,0.40625 0.95312,0.40625 1.42187,1.0625 0.46875,0.65625 0.65625,1.5625 0.125,0.57813 0.125,2.04688 v 7.65625 h -2.10937 v -7.57813 q 0,-1.28125 -0.25,-1.92187 -0.25,-0.64063 -0.875,-1.01563 -0.625,-0.39062 -1.46875,-0.39062 -1.34375,0 -2.32813,0.85937 -0.98437,0.85938 -0.98437,3.25 v 6.79688 z" />
  <path
     style="fill:#f3f3f3;fill-rule:evenodd"
     inkscape:connector-curvature="0"
     id="path4739"
     d="M 251.31364,158.58267 H 360.06955 V 296.81891 H 251.31364 Z" />
  <path
     style="fill-rule:evenodd;stroke:#000000;stroke-width:1;stroke-linecap:butt;stroke-linejoin:round"
     inkscape:connector-curvature="0"
     id="path4741"
     d="M 251.31364,158.58267 H 360.06955 V 296.81891 H 251.31364 Z" />
  <path
     style="fill:#000000;fill-rule:nonzero"
     inkscape:connector-curvature="0"
     id="path4743"
     d="m 263.424,221.74078 v -17.1875 h 6.4375 q 1.96875,0 3.15625,0.53125 1.1875,0.51563 1.85937,1.60938 0.6875,1.07812 0.6875,2.26562 0,1.09375 -0.60937,2.07813 -0.59375,0.96875 -1.79688,1.5625 1.5625,0.45312 2.39063,1.5625 0.84375,1.09375 0.84375,2.59375 0,1.20312 -0.51563,2.25 -0.5,1.03125 -1.25,1.59375 -0.75,0.5625 -1.89062,0.85937 -1.125,0.28125 -2.76563,0.28125 z m 2.26562,-9.96875 h 3.71875 q 1.51563,0 2.17188,-0.1875 0.85937,-0.26562 1.29687,-0.85937 0.4375,-0.59375 0.4375,-1.5 0,-0.85938 -0.40625,-1.5 -0.40625,-0.65625 -1.17187,-0.89063 -0.76563,-0.25 -2.60938,-0.25 h -3.4375 z m 0,7.9375 h 4.28125 q 1.09375,0 1.54688,-0.0781 0.78125,-0.14063 1.3125,-0.46875 0.53125,-0.32813 0.85937,-0.95313 0.34375,-0.625 0.34375,-1.45312 0,-0.95313 -0.5,-1.65625 -0.48437,-0.71875 -1.35937,-1 -0.875,-0.29688 -2.51563,-0.29688 h -3.96875 z m 21.67969,0.5 q -1.17187,0.98438 -2.26562,1.40625 -1.07813,0.40625 -2.3125,0.40625 -2.04688,0 -3.15625,-1 -1.09375,-1 -1.09375,-2.5625 0,-0.92187 0.40625,-1.67187 0.42187,-0.75 1.09375,-1.20313 0.67187,-0.46875 1.51562,-0.70312 0.625,-0.15625 1.875,-0.3125 2.5625,-0.3125 3.76563,-0.73438 0.0156,-0.42187 0.0156,-0.54687 0,-1.28125 -0.60937,-1.8125 -0.79688,-0.71875 -2.39063,-0.71875 -1.5,0 -2.20312,0.53125 -0.70313,0.51562 -1.04688,1.84375 l -2.0625,-0.28125 q 0.28125,-1.32813 0.92188,-2.14063 0.64062,-0.8125 1.85937,-1.25 1.21875,-0.45312 2.82813,-0.45312 1.59375,0 2.59375,0.375 1,0.375 1.46875,0.95312 0.46875,0.5625 0.65625,1.4375 0.0938,0.53125 0.0938,1.9375 v 2.8125 q 0,2.9375 0.14062,3.71875 0.14063,0.78125 0.53125,1.5 h -2.20312 q -0.32813,-0.65625 -0.42188,-1.53125 z m -0.17187,-4.71875 q -1.15625,0.46875 -3.45313,0.79688 -1.29687,0.1875 -1.84375,0.42187 -0.53125,0.23438 -0.82812,0.6875 -0.28125,0.45313 -0.28125,1 0,0.84375 0.625,1.40625 0.64062,0.5625 1.875,0.5625 1.21875,0 2.17187,-0.53125 0.95313,-0.53125 1.39063,-1.45312 0.34375,-0.71875 0.34375,-2.10938 z m 4.55078,2.53125 2.09375,-0.32812 q 0.17187,1.25 0.96875,1.92187 0.8125,0.67188 2.25,0.67188 1.45312,0 2.15625,-0.59375 0.70312,-0.59375 0.70312,-1.39063 0,-0.71875 -0.625,-1.125 -0.42187,-0.28125 -2.15625,-0.71875 -2.3125,-0.57812 -3.21875,-1 -0.89062,-0.4375 -1.35937,-1.1875 -0.45313,-0.76562 -0.45313,-1.67187 0,-0.82813 0.375,-1.53125 0.39063,-0.71875 1.04688,-1.1875 0.48437,-0.35938 1.32812,-0.60938 0.85938,-0.26562 1.82813,-0.26562 1.46875,0 2.57812,0.42187 1.10938,0.42188 1.625,1.15625 0.53125,0.71875 0.73438,1.92188 l -2.0625,0.28125 q -0.14063,-0.96875 -0.8125,-1.5 -0.67188,-0.54688 -1.90625,-0.54688 -1.45313,0 -2.07813,0.48438 -0.625,0.48437 -0.625,1.125 0,0.40625 0.26563,0.73437 0.25,0.34375 0.8125,0.5625 0.3125,0.125 1.85937,0.54688 2.23438,0.59375 3.10938,0.98437 0.89062,0.375 1.39062,1.10938 0.51563,0.71875 0.51563,1.79687 0,1.04688 -0.625,1.98438 -0.60938,0.9375 -1.76563,1.45312 -1.15625,0.5 -2.625,0.5 -2.42187,0 -3.70312,-1 -1.26563,-1.01562 -1.625,-3 z m 21.375,-0.29687 2.17187,0.28125 q -0.51562,1.90625 -1.90625,2.96875 -1.39062,1.04687 -3.5625,1.04687 -2.73437,0 -4.34375,-1.67187 -1.59375,-1.6875 -1.59375,-4.73438 0,-3.14062 1.60938,-4.875 1.625,-1.73437 4.20312,-1.73437 2.5,0 4.07813,1.70312 1.59375,1.70313 1.59375,4.78125 0,0.1875 -0.0156,0.5625 h -9.28125 q 0.10938,2.04688 1.15625,3.14063 1.04688,1.09375 2.60938,1.09375 1.15625,0 1.96875,-0.60938 0.82812,-0.60937 1.3125,-1.95312 z m -6.9375,-3.40625 h 6.95312 q -0.14062,-1.5625 -0.79687,-2.35938 -1,-1.21875 -2.60938,-1.21875 -1.45312,0 -2.45312,0.98438 -0.98438,0.96875 -1.09375,2.59375 z m 26.5,7.42187 v -1.57812 q -1.1875,1.85937 -3.48438,1.85937 -1.48437,0 -2.73437,-0.8125 -1.25,-0.82812 -1.9375,-2.29687 -0.67188,-1.46875 -0.67188,-3.39063 0,-1.85937 0.60938,-3.375 0.625,-1.51562 1.85937,-2.32812 1.25,-0.8125 2.78125,-0.8125 1.125,0 2,0.48437 0.89063,0.46875 1.4375,1.23438 v -6.17188 h 2.09375 v 17.1875 z m -6.67188,-6.21875 q 0,2.39063 1,3.57813 1.01563,1.1875 2.39063,1.1875 1.39062,0 2.34375,-1.125 0.96875,-1.14063 0.96875,-3.45313 0,-2.5625 -0.98438,-3.75 -0.98437,-1.20312 -2.42187,-1.20312 -1.40625,0 -2.35938,1.15625 -0.9375,1.14062 -0.9375,3.60937 z m 20.47266,2.20313 2.17188,0.28125 q -0.51563,1.90625 -1.90625,2.96875 -1.39063,1.04687 -3.5625,1.04687 -2.73438,0 -4.34375,-1.67187 -1.59375,-1.6875 -1.59375,-4.73438 0,-3.14062 1.60937,-4.875 1.625,-1.73437 4.20313,-1.73437 2.5,0 4.07812,1.70312 1.59375,1.70313 1.59375,4.78125 0,0.1875 -0.0156,0.5625 h -9.28125 q 0.10937,2.04688 1.15625,3.14063 1.04687,1.09375 2.60937,1.09375 1.15625,0 1.96875,-0.60938 0.82813,-0.60937 1.3125,-1.95312 z m -6.9375,-3.40625 h 6.95313 q -0.14063,-1.5625 -0.79688,-2.35938 -1,-1.21875 -2.60937,-1.21875 -1.45313,0 -2.45313,0.98438 -0.98437,0.96875 -1.09375,2.59375 z" />
  <path
     style="fill:#000000;fill-rule:nonzero"
     inkscape:connector-curvature="0"
     id="path4745"
     d="m 270.6408,250.74078 v -1.57812 q -1.1875,1.85937 -3.48437,1.85937 -1.48438,0 -2.73438,-0.8125 -1.25,-0.82812 -1.9375,-2.29687 -0.67187,-1.46875 -0.67187,-3.39063 0,-1.85937 0.60937,-3.375 0.625,-1.51562 1.85938,-2.32812 1.25,-0.8125 2.78125,-0.8125 1.125,0 2,0.48437 0.89062,0.46875 1.4375,1.23438 v -6.17188 h 2.09375 v 17.1875 z m -6.67187,-6.21875 q 0,2.39063 1,3.57813 1.01562,1.1875 2.39062,1.1875 1.39063,0 2.34375,-1.125 0.96875,-1.14063 0.96875,-3.45313 0,-2.5625 -0.98437,-3.75 -0.98438,-1.20312 -2.42188,-1.20312 -1.40625,0 -2.35937,1.15625 -0.9375,1.14062 -0.9375,3.60937 z m 11.16015,0 q 0,-3.46875 1.92188,-5.125 1.60937,-1.39062 3.92187,-1.39062 2.5625,0 4.1875,1.6875 1.625,1.6875 1.625,4.64062 0,2.40625 -0.71875,3.78125 -0.71875,1.375 -2.09375,2.14063 -1.375,0.76562 -3,0.76562 -2.625,0 -4.23437,-1.67187 -1.60938,-1.6875 -1.60938,-4.82813 z m 2.17188,0 q 0,2.39063 1.03125,3.57813 1.04687,1.1875 2.64062,1.1875 1.5625,0 2.60938,-1.1875 1.04687,-1.20313 1.04687,-3.65625 0,-2.3125 -1.0625,-3.5 -1.04687,-1.1875 -2.59375,-1.1875 -1.59375,0 -2.64062,1.1875 -1.03125,1.1875 -1.03125,3.57812 z m 11.95703,6.21875 v -12.45312 h 1.90625 v 1.78125 q 1.375,-2.0625 3.95312,-2.0625 1.125,0 2.0625,0.40625 0.95313,0.40625 1.42188,1.0625 0.46875,0.65625 0.65625,1.5625 0.125,0.57812 0.125,2.04687 v 7.65625 h -2.10938 v -7.57812 q 0,-1.28125 -0.25,-1.92188 -0.25,-0.64062 -0.875,-1.01562 -0.625,-0.39063 -1.46875,-0.39063 -1.34375,0 -2.32812,0.85938 -0.98438,0.85937 -0.98438,3.25 v 6.79687 z m 13.34765,0 v -12.45312 h 1.90625 v 1.78125 q 1.375,-2.0625 3.95313,-2.0625 1.125,0 2.0625,0.40625 0.95312,0.40625 1.42187,1.0625 0.46875,0.65625 0.65625,1.5625 0.125,0.57812 0.125,2.04687 v 7.65625 h -2.10937 v -7.57812 q 0,-1.28125 -0.25,-1.92188 -0.25,-0.64062 -0.875,-1.01562 -0.625,-0.39063 -1.46875,-0.39063 -1.34375,0 -2.32813,0.85938 -0.98437,0.85937 -0.98437,3.25 v 6.79687 z m 21.87891,-4.01562 2.17187,0.28125 q -0.51562,1.90625 -1.90625,2.96875 -1.39062,1.04687 -3.5625,1.04687 -2.73437,0 -4.34375,-1.67187 -1.59375,-1.6875 -1.59375,-4.73438 0,-3.14062 1.60938,-4.875 1.625,-1.73437 4.20312,-1.73437 2.5,0 4.07813,1.70312 1.59375,1.70313 1.59375,4.78125 0,0.1875 -0.0156,0.5625 h -9.28125 q 0.10938,2.04688 1.15625,3.14063 1.04688,1.09375 2.60938,1.09375 1.15625,0 1.96875,-0.60938 0.82812,-0.60937 1.3125,-1.95312 z m -6.9375,-3.40625 h 6.95312 q -0.14062,-1.5625 -0.79687,-2.35938 -1,-1.21875 -2.60938,-1.21875 -1.45312,0 -2.45312,0.98438 -0.98438,0.96875 -1.09375,2.59375 z m 2.28125,-6.57813 1.54687,-3.28125 h 2.76563 l -2.57813,3.28125 z m 18.00391,9.98438 2.17187,0.28125 q -0.51562,1.90625 -1.90625,2.96875 -1.39062,1.04687 -3.5625,1.04687 -2.73437,0 -4.34375,-1.67187 -1.59375,-1.6875 -1.59375,-4.73438 0,-3.14062 1.60938,-4.875 1.625,-1.73437 4.20312,-1.73437 2.5,0 4.07813,1.70312 1.59375,1.70313 1.59375,4.78125 0,0.1875 -0.0156,0.5625 h -9.28125 q 0.10938,2.04688 1.15625,3.14063 1.04688,1.09375 2.60938,1.09375 1.15625,0 1.96875,-0.60938 0.82812,-0.60937 1.3125,-1.95312 z m -6.9375,-3.40625 h 6.95312 q -0.14062,-1.5625 -0.79687,-2.35938 -1,-1.21875 -2.60938,-1.21875 -1.45312,0 -2.45312,0.98438 -0.98438,0.96875 -1.09375,2.59375 z" />
  <path
     style="fill:#000000;fill-rule:nonzero"
     inkscape:connector-curvature="0"
     id="path4747"
     d="m 341.64862,247.85016 1.625,-0.25 q 0.125,0.96875 0.75,1.5 0.625,0.51562 1.75,0.51562 1.125,0 1.67187,-0.45312 0.54688,-0.46875 0.54688,-1.09375 0,-0.54688 -0.48438,-0.875 -0.32812,-0.21875 -1.67187,-0.54688 -1.8125,-0.46875 -2.51563,-0.79687 -0.6875,-0.32813 -1.04687,-0.90625 -0.35938,-0.59375 -0.35938,-1.3125 0,-0.64063 0.29688,-1.1875 0.29687,-0.5625 0.8125,-0.92188 0.375,-0.28125 1.03125,-0.46875 0.67187,-0.20312 1.42187,-0.20312 1.14063,0 2,0.32812 0.85938,0.32813 1.26563,0.89063 0.42187,0.5625 0.57812,1.5 l -1.60937,0.21875 q -0.10938,-0.75 -0.64063,-1.17188 -0.51562,-0.42187 -1.46875,-0.42187 -1.14062,0 -1.625,0.375 -0.46875,0.375 -0.46875,0.875 0,0.3125 0.1875,0.57812 0.20313,0.26563 0.64063,0.4375 0.23437,0.0938 1.4375,0.42188 1.75,0.45312 2.4375,0.75 0.6875,0.29687 1.07812,0.85937 0.39063,0.5625 0.39063,1.40625 0,0.82813 -0.48438,1.54688 -0.46875,0.71875 -1.375,1.125 -0.90625,0.39062 -2.04687,0.39062 -1.875,0 -2.875,-0.78125 -0.98438,-0.78125 -1.25,-2.32812 z" />
  <path
     style="fill:#f3f3f3;fill-rule:evenodd"
     inkscape:connector-curvature="0"
     id="path4749"
     d="m 382.77167,502.27823 h 438.2992 v 134.80313 h -438.2992 z" />
  <path
     style="fill-rule:evenodd;stroke:#000000;stroke-width:1;stroke-linecap:butt;stroke-linejoin:round"
     inkscape:connector-curvature="0"
     id="path4751"
     d="m 382.77167,502.27823 h 438.2992 v 134.80313 h -438.2992 z" />
  <path
     style="fill:#000000;fill-rule:nonzero"
     inkscape:connector-curvature="0"
     id="path4753"
     d="m 566.4896,578.2198 v -17.1875 h 2.28125 v 7.0625 h 8.92187 v -7.0625 h 2.28125 v 17.1875 h -2.28125 v -8.09375 h -8.92187 v 8.09375 z m 16.20703,-6.21875 q 0,-3.46875 1.92188,-5.125 1.60937,-1.39063 3.92187,-1.39063 2.5625,0 4.1875,1.6875 1.625,1.6875 1.625,4.64063 0,2.40625 -0.71875,3.78125 -0.71875,1.375 -2.09375,2.14062 -1.375,0.76563 -3,0.76563 -2.625,0 -4.23437,-1.67188 -1.60938,-1.6875 -1.60938,-4.82812 z m 2.17188,0 q 0,2.39062 1.03125,3.57812 1.04687,1.1875 2.64062,1.1875 1.5625,0 2.60938,-1.1875 1.04687,-1.20312 1.04687,-3.65625 0,-2.3125 -1.0625,-3.5 -1.04687,-1.1875 -2.59375,-1.1875 -1.59375,0 -2.64062,1.1875 -1.03125,1.1875 -1.03125,3.57813 z m 3.6875,-9.76563 -1.32813,1.98438 h -2.40625 l 2.53125,-3.28125 h 2.25 l 2.64063,3.28125 h -2.39063 z m 8.26953,20.75 v -17.21875 h 1.92187 v 1.625 q 0.6875,-0.95312 1.53125,-1.42187 0.85938,-0.48438 2.07813,-0.48438 1.59375,0 2.8125,0.82813 1.21875,0.8125 1.84375,2.3125 0.625,1.5 0.625,3.28125 0,1.90625 -0.6875,3.4375 -0.6875,1.53125 -2,2.34375 -1.29688,0.8125 -2.73438,0.8125 -1.0625,0 -1.90625,-0.4375 -0.82812,-0.45313 -1.375,-1.14063 v 6.0625 z m 1.92187,-10.92187 q 0,2.40625 0.96875,3.5625 0.96875,1.14062 2.35938,1.14062 1.40625,0 2.40625,-1.1875 1,-1.1875 1,-3.6875 0,-2.375 -0.98438,-3.5625 -0.96875,-1.1875 -2.32812,-1.1875 -1.35938,0 -2.39063,1.26563 -1.03125,1.25 -1.03125,3.65625 z m 11.44141,-8.59375 v -2.4375 h 2.10937 v 2.4375 z m 0,14.75 v -12.45313 h 2.10937 v 12.45313 z m 9.92578,-1.89063 0.3125,1.85938 q -0.89063,0.20312 -1.59375,0.20312 -1.15625,0 -1.79688,-0.35937 -0.625,-0.375 -0.89062,-0.96875 -0.25,-0.59375 -0.25,-2.48438 v -7.17187 h -1.54688 v -1.64063 h 1.54688 v -3.07812 l 2.09375,-1.26563 v 4.34375 h 2.125 v 1.64063 h -2.125 v 7.28125 q 0,0.90625 0.10937,1.17187 0.125,0.25 0.375,0.40625 0.25,0.14063 0.71875,0.14063 0.34375,0 0.92188,-0.0781 z m 10.18359,0.35938 q -1.17187,0.98437 -2.26562,1.40625 -1.07813,0.40625 -2.3125,0.40625 -2.04688,0 -3.15625,-1 -1.09375,-1 -1.09375,-2.5625 0,-0.92188 0.40625,-1.67188 0.42187,-0.75 1.09375,-1.20312 0.67187,-0.46875 1.51562,-0.70313 0.625,-0.15625 1.875,-0.3125 2.5625,-0.3125 3.76563,-0.73437 0.0156,-0.42188 0.0156,-0.54688 0,-1.28125 -0.60937,-1.8125 -0.79688,-0.71875 -2.39063,-0.71875 -1.5,0 -2.20312,0.53125 -0.70313,0.51563 -1.04688,1.84375 l -2.0625,-0.28125 q 0.28125,-1.32812 0.92188,-2.14062 0.64062,-0.8125 1.85937,-1.25 1.21875,-0.45313 2.82813,-0.45313 1.59375,0 2.59375,0.375 1,0.375 1.46875,0.95313 0.46875,0.5625 0.65625,1.4375 0.0938,0.53125 0.0938,1.9375 v 2.8125 q 0,2.9375 0.14062,3.71875 0.14063,0.78125 0.53125,1.5 h -2.20312 q -0.32813,-0.65625 -0.42188,-1.53125 z m -0.17187,-4.71875 q -1.15625,0.46875 -3.45313,0.79687 -1.29687,0.1875 -1.84375,0.42188 -0.53125,0.23437 -0.82812,0.6875 -0.28125,0.45312 -0.28125,1 0,0.84375 0.625,1.40625 0.64062,0.5625 1.875,0.5625 1.21875,0 2.17187,-0.53125 0.95313,-0.53125 1.39063,-1.45313 0.34375,-0.71875 0.34375,-2.10937 z m 5.34765,6.25 v -17.1875 h 2.10938 v 17.1875 z" />
</svg>
