<?xml version="1.0" encoding="UTF-8" standalone="no"?>
<!-- Created with Inkscape (http://www.inkscape.org/) -->

<svg
   width="800"
   height="600"
   viewBox="0 0 211.66666 158.75"
   version="1.1"
   id="svg1"
   inkscape:version="1.3 (0e150ed6c4, 2023-07-21)"
   sodipodi:docname="23007634-concepts.svg"
   xmlns:inkscape="http://www.inkscape.org/namespaces/inkscape"
   xmlns:sodipodi="http://sodipodi.sourceforge.net/DTD/sodipodi-0.dtd"
   xmlns="http://www.w3.org/2000/svg"
   xmlns:svg="http://www.w3.org/2000/svg">
  <sodipodi:namedview
     id="namedview1"
     pagecolor="#ffffff"
     bordercolor="#000000"
     borderopacity="0.25"
     inkscape:showpageshadow="2"
     inkscape:pageopacity="0.0"
     inkscape:pagecheckerboard="0"
     inkscape:deskcolor="#d1d1d1"
     inkscape:document-units="px"
     inkscape:zoom="0.64126689"
     inkscape:cx="619.08701"
     inkscape:cy="398.43005"
     inkscape:window-width="1366"
     inkscape:window-height="705"
     inkscape:window-x="-8"
     inkscape:window-y="-8"
     inkscape:window-maximized="1"
     inkscape:current-layer="layer1" />
  <defs
     id="defs1">
    <linearGradient
       id="swatch3"
       inkscape:swatch="solid">
      <stop
         style="stop-color:#000000;stop-opacity:1;"
         offset="0"
         id="stop3" />
    </linearGradient>
  </defs>
  <g
     inkscape:label="Calque 1"
     inkscape:groupmode="layer"
     id="layer1"
     style="display:inline">
    <path
       style="opacity:0.267956;fill:#ff007f;fill-opacity:1;stroke-width:0.264999;stroke-dasharray:none;paint-order:markers stroke fill"
       id="path7"
       sodipodi:type="arc"
       sodipodi:cx="53.843613"
       sodipodi:cy="47.860989"
       sodipodi:rx="21.248629"
       sodipodi:ry="17.741573"
       sodipodi:start="0"
       sodipodi:end="6.2646915"
       sodipodi:arc-type="slice"
       d="M 75.092241,47.860989 A 21.248629,17.741573 0 0 1 53.941854,65.602372 21.248629,17.741573 0 0 1 32.595892,48.025041 21.248629,17.741573 0 0 1 53.548896,30.121122 21.248629,17.741573 0 0 1 75.088608,47.532898 l -21.244995,0.328091 z" />
    <path
       style="opacity:0.267956;fill:#ff007f;fill-opacity:1;stroke-width:0.264999;stroke-dasharray:none;paint-order:markers stroke fill"
       id="path8"
       sodipodi:type="arc"
       sodipodi:cx="120.47766"
       sodipodi:cy="54.256203"
       sodipodi:rx="23.930494"
       sodipodi:ry="16.297491"
       sodipodi:start="0"
       sodipodi:end="6.2646915"
       sodipodi:arc-type="slice"
       d="M 144.40816,54.256203 A 23.930494,16.297491 0 0 1 120.5883,70.55352 23.930494,16.297491 0 0 1 96.54819,54.406902 23.930494,16.297491 0 0 1 120.14575,37.960279 23.930494,16.297491 0 0 1 144.40406,53.954817 l -23.9264,0.301386 z" />
    <path
       style="opacity:0.267956;fill:#ff007f;fill-opacity:1;stroke-width:0.264999;stroke-dasharray:none;paint-order:markers stroke fill"
       id="path9"
       sodipodi:type="arc"
       sodipodi:cx="86.851189"
       sodipodi:cy="74.473343"
       sodipodi:rx="36.927227"
       sodipodi:ry="21.248629"
       sodipodi:start="0"
       sodipodi:end="6.2646915"
       sodipodi:arc-type="slice"
       d="M 123.77842,74.473343 A 36.927227,21.248629 0 0 1 87.021919,95.721744 36.927227,21.248629 0 0 1 49.92554,74.669824 36.927227,21.248629 0 0 1 86.339011,53.226758 36.927227,21.248629 0 0 1 123.7721,74.080397 l -36.920911,0.392946 z" />
    <path
       style="opacity:0.267956;fill:#ff007f;fill-opacity:1;stroke-width:0.79375;stroke-dasharray:none;paint-order:markers stroke fill"
       id="path10"
       sodipodi:type="arc"
       sodipodi:cx="105.00536"
       sodipodi:cy="80.868561"
       sodipodi:rx="82.086716"
       sodipodi:ry="63.735477"
       sodipodi:start="0"
       sodipodi:end="6.2778273"
       sodipodi:arc-type="slice"
       d="M 187.09208,80.868561 A 82.086716,63.735477 0 0 1 105.11532,144.60398 82.086716,63.735477 0 0 1 22.918942,81.039308 82.086716,63.735477 0 0 1 104.6755,17.133598 82.086716,63.735477 0 0 1 187.0909,80.527067 l -82.08554,0.341494 z" />
  </g>
</svg>
